<?xml version="1.0" standalone="no"?>
<!DOCTYPE svg PUBLIC "-//W3C//DTD SVG 1.1//EN" "http://www.w3.org/Graphics/SVG/1.1/DTD/svg11.dtd" >
<svg xmlns="http://www.w3.org/2000/svg" xmlns:xlink="http://www.w3.org/1999/xlink" version="1.1">
<metadata>
Created by FontForge 20190801 at Sun Jun  9 11:31:39 2013
 By Unknown
Copyright (c) 2013 by Andriy Konstantynov. All rights reserved.
</metadata>
<defs>
<font id="EspumaPro-Bold" horiz-adv-x="725" >
  <font-face 
    font-family="EspumaPro-Bold"
    font-weight="400"
    font-stretch="normal"
    units-per-em="1000"
    panose-1="2 14 0 3 5 5 0 2 0 3"
    ascent="759"
    descent="-241"
    x-height="485"
    cap-height="700"
    bbox="-79 -291 1248 947"
    underline-thickness="50"
    underline-position="-100"
    unicode-range="U+0020-FB04"
  />
<missing-glyph horiz-adv-x="271" 
 />
    <glyph glyph-name="ff" unicode="ff" horiz-adv-x="773" 
d="M423 82v318h-185v-301q0 -62 13 -86q-38 -18 -102 -18q-60 0 -60 87v314l-55 -8q-14 47 -14 88l69 3v75q0 80 50 129t135 49q59 0 98.5 -21.5t39.5 -49.5q0 -63 -96 -63q-7 52 -34 52q-19 0 -31.5 -21.5t-12.5 -55.5v-93h185v56q0 88 52.5 142t142.5 54q64 0 106 -22
t42 -50q0 -63 -105 -63q-4 23 -15 38t-25 15q-21 0 -35 -27t-14 -69v-74h59q67 0 86 13q20 -29 20 -61t-88 -32h-77v-301q0 -62 13 -86q-38 -18 -102 -18q-60 0 -60 87z" />
    <glyph glyph-name="fi" unicode="fi" horiz-adv-x="606" 
d="M396 82v248q0 49 -4 80q-33 -10 -75 -10h-79v-301q0 -62 13 -86q-38 -18 -102 -18q-60 0 -60 87v314l-55 -8q-14 47 -14 88l69 3v32q0 99 66 160t179 61q79 0 131.5 -26.5t52.5 -60.5q0 -67 -105 -67q-7 31 -28 51.5t-50 20.5q-42 0 -69.5 -34t-27.5 -87v-49h197
q74 0 91 12q18 -60 18 -155v-238q0 -65 23 -83q-45 -21 -112 -21q-27 0 -43 18t-16 69z" />
    <glyph glyph-name="fl" unicode="fl" horiz-adv-x="643" 
d="M316 400h-78v-301q0 -62 13 -86q-38 -18 -102 -18q-60 0 -60 87v314l-55 -8q-14 47 -14 88l69 3v26q0 102 69.5 164.5t189.5 62.5q61 0 106 -14q51 8 119 8q8 -56 8 -148v-479q0 -65 23 -83q-46 -21 -112 -21q-60 0 -60 87v514q-11 24 -35.5 39t-56.5 15q-44 0 -73 -35.5
t-29 -91.5v-43h54q62 0 79 9q19 -33 19 -57q0 -32 -74 -32z" />
    <glyph glyph-name="ffi" unicode="ffi" horiz-adv-x="931" 
d="M405 82v318h-167v-301q0 -62 13 -86q-38 -18 -102 -18q-60 0 -60 87v314l-55 -8q-14 47 -14 88l69 3v75q0 80 48.5 129t131.5 49q58 0 96 -21.5t38 -49.5q0 -63 -92 -63q-6 52 -32 52q-17 0 -29 -22t-12 -55v-93h167v31q0 99 66 160t178 61q79 0 132 -26.5t53 -60.5
q0 -67 -106 -67q-6 31 -27 51.5t-50 20.5q-41 0 -69 -34t-28 -87v-49h206q73 0 91 12q18 -60 18 -155v-238q0 -65 24 -83q-46 -21 -112 -21q-28 0 -44.5 18t-16.5 69v248q0 46 -3 80q-33 -10 -75 -10h-88v-301q0 -64 13 -86q-40 -18 -102 -18q-28 0 -44 18t-16 69z" />
    <glyph glyph-name="ffl" unicode="ffl" horiz-adv-x="976" 
d="M423 82v318h-185v-301q0 -62 13 -86q-38 -18 -102 -18q-60 0 -60 87v314l-55 -8q-14 47 -14 88l69 3v75q0 80 50 129t135 49q59 0 98.5 -21.5t39.5 -49.5q0 -63 -96 -63q-7 52 -34 52q-19 0 -31.5 -21.5t-12.5 -55.5v-93h185v25q0 102 70 164.5t189 62.5q61 0 106 -14
q51 8 119 8q8 -56 8 -148v-479q0 -65 23 -83q-46 -21 -112 -21q-60 0 -60 87v513q-10 25 -35 40t-57 15q-44 0 -73 -35.5t-29 -91.5v-43h55q62 0 79 9q17 -29 17 -57q0 -32 -74 -32h-77v-301q0 -62 13 -86q-38 -18 -102 -18q-60 0 -60 87z" />
    <glyph glyph-name="f_dotlessi" unicode="f&#x131;" horiz-adv-x="581" 
d="M238 526v-46h171q74 0 91 12q18 -56 18 -155v-238q0 -65 24 -83q-46 -21 -113 -21q-27 0 -43 18t-16 69v248q0 49 -4 80q-33 -10 -75 -10h-53v-301q0 -62 13 -86q-38 -18 -102 -18q-60 0 -60 87v314l-55 -8q-14 47 -14 88l69 3v29q0 102 45 163t128 61q32 0 51 -21
t19 -52q-50 0 -72 -32.5t-22 -100.5z" />
    <glyph glyph-name="quoteright_afii10056" unicode="&#x2019;&#x407;" horiz-adv-x="462" 
d="M78 616l-21 15q-21 17 -21 33q0 11 10 22t20.5 35.5t10.5 66.5q0 16 -7.5 46t-8.5 45q38 13 93 13q20 0 33 -12.5t13 -33.5q0 -172 -122 -230zM243 82v468q0 74 -12 141q61 14 158 14q8 -56 8 -148v-458q0 -66 22 -83q-45 -21 -114 -21q-62 0 -62 87zM361 818
q0 32 21.5 53t55.5 21q29 0 47.5 -18.5t18.5 -48.5q0 -33 -21 -53.5t-54 -20.5q-30 0 -49 19t-19 48z" />
    <glyph glyph-name="afii10056_afii10056" unicode="&#x407;&#x407;" horiz-adv-x="572" 
d="M66 82v468q0 74 -12 141q61 14 158 14q7 -59 7 -148v-458q0 -65 24 -83q-45 -21 -114 -21q-29 0 -46 18t-17 69zM-42 818q0 32 21 53t55 21q30 0 48.5 -18.5t18.5 -48.5q0 -33 -21 -53.5t-55 -20.5q-29 0 -48 19t-19 48zM215 818q0 32 21.5 53t55.5 21q29 0 47.5 -18.5
t18.5 -48.5q0 -33 -21 -53.5t-54 -20.5q-31 0 -49.5 18.5t-18.5 48.5zM352 82v468q0 74 -12 141q61 14 158 14q8 -56 8 -148v-458q0 -66 22 -83q-45 -21 -114 -21q-62 0 -62 87zM471 818q0 32 21 53t55 21q29 0 47.5 -18.5t18.5 -48.5q0 -33 -21 -53.5t-54 -20.5
q-29 0 -48 19t-19 48z" />
    <glyph glyph-name="quoteright_afii10104" unicode="&#x2019;&#x457;" horiz-adv-x="442" 
d="M78 428l-21 16q-21 17 -21 32q0 11 10 22.5t20 35.5t10 66q0 16 -7 46.5t-8 45.5q38 13 93 13q20 0 33 -13t13 -34q0 -172 -122 -230zM231 82v248q0 75 -12 141q61 14 153 14q8 -56 8 -148v-238q0 -65 23 -83q-46 -21 -112 -21q-60 0 -60 87zM348 618q0 32 21.5 53
t55.5 21q29 0 48 -18.5t19 -48.5q0 -33 -21.5 -53.5t-55.5 -20.5q-29 0 -48 19t-19 48z" />
    <glyph glyph-name="afii10104_afii10104" unicode="&#x457;&#x457;" horiz-adv-x="544" 
d="M61 82v248q0 75 -12 141q61 14 153 14q8 -56 8 -148v-238q0 -65 24 -83q-46 -21 -112 -21q-28 0 -44.5 18t-16.5 69zM-48 618q0 32 21 53t54 21q31 0 49.5 -18.5t18.5 -48.5q0 -33 -21 -53.5t-55 -20.5q-30 0 -48.5 19t-18.5 48zM201 618q0 32 21.5 53t55.5 21
q29 0 47.5 -18.5t18.5 -48.5q0 -33 -21 -53.5t-54 -20.5q-30 0 -49 19t-19 48zM334 82v248q0 76 -13 141q63 14 154 14q8 -56 8 -148v-238q0 -66 22 -83q-45 -21 -111 -21q-28 0 -44 18t-16 69zM451 618q0 32 21 53t55 21q29 0 47.5 -18.5t18.5 -48.5q0 -33 -21 -53.5
t-54 -20.5q-30 0 -48.5 19t-18.5 48z" />
    <glyph glyph-name=".notdef" horiz-adv-x="271" 
 />
    <glyph glyph-name=".null" horiz-adv-x="0" 
 />
    <glyph glyph-name="nonmarkingreturn" horiz-adv-x="333" 
 />
    <glyph glyph-name="space" unicode=" " horiz-adv-x="271" 
 />
    <glyph glyph-name="exclam" unicode="!" horiz-adv-x="266" 
d="M59 305v247q0 77 -8 141q58 14 149 14q7 -59 7 -148v-327q-41 -14 -90 -14q-58 0 -58 87zM53 69q0 37 24 60.5t61 23.5q34 0 54.5 -21t20.5 -55q0 -37 -24 -60.5t-62 -23.5q-33 0 -53.5 21t-20.5 55z" />
    <glyph glyph-name="quotedbl" unicode="&#x22;" horiz-adv-x="364" 
d="M125 500h-66v229q58 0 97 -6l-9 -204q-2 -19 -22 -19zM284 500h-67v229q57 0 98 -6l-10 -204q-2 -19 -21 -19z" />
    <glyph glyph-name="numbersign" unicode="#" horiz-adv-x="775" 
d="M414 82l15 95h-154l-12 -78q-5 -30 -5 -44q0 -27 15 -39q-49 -21 -107 -21q-44 0 -44 53q0 15 3 34l15 94q-35 -1 -94 -11q-14 38 -14 88q33 2 120 4l30 185q-35 -1 -94 -11q-14 40 -14 88q33 2 120 4l5 27q10 60 11 141q61 14 142 14q-3 -57 -17 -148l-6 -34h154l5 27
q8 53 10 141q63 14 143 14q-3 -57 -17 -148l-6 -34h20q66 0 84 13q21 -30 21 -61q0 -32 -87 -32h-50l-30 -186h20q64 0 84 13q20 -29 20 -61t-87 -32h-50l-12 -78q-5 -30 -5 -44q0 -25 15 -39q-47 -21 -107 -21q-43 0 -43 53q0 15 3 34zM317 443l-29 -186h153l30 186h-154z
" />
    <glyph glyph-name="dollar" unicode="$" horiz-adv-x="575" 
d="M213 -42v38q-84 7 -132.5 39t-48.5 77q0 75 129 75q26 -107 111 -107q47 0 79.5 25.5t32.5 68.5q0 41 -35.5 71t-86 51t-100.5 45.5t-85.5 68.5t-35.5 105q0 70 44 119t128 66q-2 66 -7 111q51 14 131 14q5 -46 7 -121q75 -7 120 -37t45 -70q0 -34 -31.5 -46.5
t-97.5 -12.5q-23 82 -91 82q-42 0 -72 -27.5t-30 -66.5t36 -67t87.5 -47.5t103 -43t87.5 -68t36 -107.5q0 -76 -49.5 -127.5t-143.5 -66.5v-24q0 -65 18 -84q-40 -20 -98 -20q-51 0 -51 87z" />
    <glyph glyph-name="percent" unicode="%" horiz-adv-x="713" 
d="M97 82l449 611q48 12 125 12l-501 -700q-29 -10 -82 -10q-26 0 -26 19q0 22 35 68zM31 544q0 73 44 118t114 45q63 0 101 -40.5t38 -106.5q0 -73 -44 -118t-115 -45q-61 0 -99.5 41t-38.5 106zM130 554q0 -35 15 -57.5t38 -22.5q20 0 33 21t13 54q0 36 -15 57.5t-38 21.5
q-21 0 -33.5 -20.5t-12.5 -53.5zM386 140q0 73 43.5 118t113.5 45q63 0 101 -40.5t38 -106.5q0 -73 -43.5 -118t-114.5 -45q-62 0 -100 40.5t-38 106.5zM485 150q0 -35 14.5 -57.5t38.5 -22.5q20 0 32.5 21t12.5 54q0 36 -14.5 57.5t-38.5 21.5q-21 0 -33 -20.5t-12 -53.5z
" />
    <glyph glyph-name="ampersand" unicode="&#x26;" horiz-adv-x="663" 
d="M583 300l22 -17q-31 -92 -82 -156l36 -35q40 -38 98 -78q-13 -10 -47.5 -15.5t-58.5 -5.5q-49 0 -113 54q-81 -54 -181 -54q-103 0 -162 54t-59 139q0 58 33 102t90 84q-54 95 -54 166q0 73 55.5 121t156.5 48q84 0 133.5 -38t49.5 -104q0 -33 -12 -60.5t-39.5 -52
t-48.5 -38t-61 -37.5q-4 -2 -6 -3.5t-5 -3t-6 -3.5q54 -81 139 -174q13 19 35 55t34.5 51t23.5 15q7 0 29 -14zM284 80q49 0 91 26q-93 89 -161 182q-40 -43 -40 -101q0 -46 27 -76.5t83 -30.5zM246 544q0 -38 29 -98q42 28 64.5 54t22.5 56q0 29 -17 46.5t-39 17.5
q-28 0 -44 -22.5t-16 -53.5z" />
    <glyph glyph-name="quotesingle" unicode="'" horiz-adv-x="210" 
d="M125 500h-66v229q58 0 97 -6l-9 -204q-2 -19 -22 -19z" />
    <glyph glyph-name="parenleft" unicode="(" horiz-adv-x="319" 
d="M282 -70v-87q-119 0 -185 119.5t-66 319.5q0 215 66 345t185 130v-87q-54 0 -81 -98t-27 -268q0 -172 27.5 -273t80.5 -101z" />
    <glyph glyph-name="parenright" unicode=")" horiz-adv-x="319" 
d="M37 670v87q119 0 185 -119.5t66 -319.5q0 -215 -66 -345t-185 -130v87q54 0 81.5 98.5t27.5 267.5q0 173 -27.5 273.5t-81.5 100.5z" />
    <glyph glyph-name="asterisk" unicode="*" horiz-adv-x="512" 
d="M124 287l58 101h-108q-28 0 -28 28v24q0 28 28 28h101l-51 89q-5 12 -5 18q0 12 24 26.5t37 14.5q14 0 22 -15l52 -90l52 90q10 16 23 16q12 0 36 -15.5t24 -26.5q0 -6 -5 -18l-51 -89h104q29 0 29 -28v-24q0 -28 -29 -28h-112l59 -101q5 -10 5 -17q0 -12 -24 -27
t-37 -15t-23 16l-51 88l-51 -88q-9 -16 -22 -16q-12 0 -37 15t-25 27q0 7 5 17z" />
    <glyph glyph-name="plus" unicode="+" horiz-adv-x="512" 
d="M203 95v168h-10q-76 0 -141 -12q-14 40 -14 88q56 4 148 4h17v157h103v-157h64q64 0 84 13q20 -29 20 -60q0 -33 -86 -33h-82v-168h-103z" />
    <glyph glyph-name="comma" unicode="," horiz-adv-x="257" 
d="M87 -140l-20 16q-22 18 -22 32q0 11 9.5 25t18.5 38.5t9 61.5q0 16 -8 45.5t-9 45.5q40 13 97 13q22 0 36 -13t14 -33q0 -171 -125 -231z" />
    <glyph glyph-name="hyphen" unicode="-" horiz-adv-x="329" 
d="M214 233h-31q-75 0 -141 -12q-14 47 -14 88q56 4 149 4h20q65 0 84 13q20 -31 20 -61q0 -32 -87 -32z" />
    <glyph glyph-name="period" unicode="." horiz-adv-x="257" 
d="M48 69q0 37 24 60.5t62 23.5q33 0 54 -21t21 -55q0 -37 -24 -60.5t-62 -23.5q-34 0 -54.5 21t-20.5 55z" />
    <glyph glyph-name="slash" unicode="/" horiz-adv-x="526" 
d="M32 -18l268 593q37 80 52 141q63 14 147 14q-19 -57 -60 -148l-265 -583q-16 -35 -16 -83q-49 -21 -109 -21q-34 0 -34 30q0 20 17 57z" />
    <glyph glyph-name="zero" unicode="0" horiz-adv-x="611" 
d="M36 324q0 159 77.5 258.5t202.5 99.5q116 0 188 -91.5t72 -239.5q0 -159 -78.5 -258.5t-204.5 -99.5q-115 0 -186 91.5t-71 239.5zM201 340q0 -115 30 -187.5t77 -72.5q46 0 73.5 70.5t27.5 184.5q0 115 -30 187.5t-77 72.5q-46 0 -73.5 -70.5t-27.5 -184.5z" />
    <glyph glyph-name="one" unicode="1" horiz-adv-x="391" 
d="M46 471l-21 23q-8 9 -8 22q0 23 26 49q42 41 124 101q61 14 154 14q7 -59 7 -148v-433q0 -65 13 -83q-42 -21 -102 -21q-29 0 -44.5 17.5t-15.5 69.5v464q-76 -49 -133 -75z" />
    <glyph glyph-name="two" unicode="2" horiz-adv-x="512" 
d="M475 496q0 -52 -28 -101.5t-69 -89t-82.5 -76t-75 -74.5t-40.5 -71h194q65 0 83 14q21 -25 21 -61q0 -18 -17 -27.5t-70 -9.5h-198q-78 0 -141 -8q-14 38 -14 85q0 36 28.5 77t69 79t81 77t69 83.5t28.5 85.5q0 50 -28 83t-75 33q-29 0 -51.5 -13t-33.5 -28t-22.5 -28
t-20.5 -13q-13 0 -29 11l-23 14q25 65 80 104.5t139 39.5q97 0 161 -52t64 -134z" />
    <glyph glyph-name="three" unicode="3" horiz-adv-x="536" 
d="M234 80q46 0 73.5 30.5t27.5 81.5q0 50 -25.5 82.5t-65.5 32.5h-16q-28 0 -56 -4q-8 36 -8 83q24 6 60 6h17q30 0 48.5 28t18.5 70q0 48 -23.5 76.5t-65.5 28.5q-27 0 -48 -13t-31.5 -28t-21.5 -28t-20 -13q-13 0 -31 11l-25 14q22 63 81.5 103.5t143.5 40.5
q91 0 148.5 -47.5t57.5 -126.5q0 -50 -24 -90t-67 -63q55 -19 87 -63t32 -104q0 -88 -67 -141.5t-179 -53.5q-95 0 -154.5 37t-59.5 86q0 57 87 57q10 -41 37 -67t69 -26z" />
    <glyph glyph-name="four" unicode="4" horiz-adv-x="565" 
d="M308 82v49h-131q-77 0 -140 -8q-15 41 -15 85l273 458q61 14 158 14q8 -56 8 -148v-316q44 1 61 13q21 -25 21 -64q0 -33 -82 -34v-32q0 -65 23 -83q-46 -21 -115 -21q-28 0 -44.5 18t-16.5 69zM147 216h161v286z" />
    <glyph glyph-name="five" unicode="5" horiz-adv-x="531" 
d="M357 591h-143l-15 -165h98q89 0 143.5 -57t54.5 -151q0 -102 -66.5 -163.5t-181.5 -61.5q-92 0 -151.5 37t-59.5 86q0 57 86 57q10 -41 37.5 -67t67.5 -26q47 0 75 35t28 95q0 57 -24.5 94.5t-62.5 37.5h-42q-61 0 -113 -6q-14 42 -14 86l22 249q56 4 148 4h95
q65 0 84 23q21 -38 21 -71q0 -18 -17.5 -27t-69.5 -9z" />
    <glyph glyph-name="six" unicode="6" horiz-adv-x="552" 
d="M431 609q-113 0 -167.5 -48.5t-67.5 -153.5q55 39 125 39q87 0 141 -58.5t54 -152.5q0 -107 -69 -174.5t-174 -67.5q-111 0 -174 81t-63 230q0 175 85.5 276.5t218.5 101.5q52 0 71.5 -18.5t19.5 -54.5zM266 365q-55 0 -73 -88q4 -97 27.5 -149.5t60.5 -52.5q32 0 53 39
t21 99q0 68 -25 110t-64 42z" />
    <glyph glyph-name="seven" unicode="7" horiz-adv-x="525" 
d="M142 82l144 362q37 96 51 147h-215q-65 0 -84 -14q-20 24 -20 61q0 18 17 27.5t70 9.5h228q77 0 141 8q14 -44 14 -85q-13 -55 -51 -148l-139 -351q-24 -63 -24 -83q-38 -21 -102 -21q-22 0 -32.5 7.5t-10.5 28.5q0 15 13 51z" />
    <glyph glyph-name="eight" unicode="8" horiz-adv-x="550" 
d="M35 176q0 112 99 172q-84 56 -84 148q0 83 60 134.5t167 51.5q102 0 161 -48t59 -126q0 -100 -91 -159q106 -58 106 -161q0 -89 -66.5 -142t-179.5 -53q-110 0 -170.5 50.5t-60.5 132.5zM360 169q0 42 -31.5 69t-93.5 56q-62 -33 -62 -108q0 -47 26 -76.5t68 -29.5
q38 0 65.5 24.5t27.5 64.5zM196 507q0 -37 26.5 -61t76.5 -47q60 31 60 99q0 43 -24 70t-58 27t-57.5 -26.5t-23.5 -61.5z" />
    <glyph glyph-name="nine" unicode="9" horiz-adv-x="550" 
d="M150 128q7 -21 36.5 -37t65.5 -16q49 0 75 44.5t30 163.5q-54 -40 -127 -40q-87 0 -141 56.5t-54 147.5q0 104 69 169t174 65q112 0 174 -81t62 -241q0 -176 -75 -271t-206 -95q-72 0 -121.5 27t-49.5 62q0 46 88 46zM283 325q55 0 73 81q-13 193 -85 193
q-32 0 -53 -36.5t-21 -94.5q0 -64 24.5 -103.5t61.5 -39.5z" />
    <glyph glyph-name="colon" unicode=":" horiz-adv-x="257" 
d="M48 69q0 37 24 60.5t62 23.5q33 0 54 -21t21 -55q0 -37 -24 -60.5t-62 -23.5q-34 0 -54.5 21t-20.5 55zM48 403q0 37 24 60.5t62 23.5q33 0 54 -21t21 -55q0 -37 -24 -60.5t-62 -23.5q-34 0 -54.5 21t-20.5 55z" />
    <glyph glyph-name="semicolon" unicode=";" horiz-adv-x="257" 
d="M58 403q0 37 24 60.5t61 23.5q34 0 54.5 -21t20.5 -55q0 -37 -24 -60.5t-62 -23.5q-33 0 -53.5 21t-20.5 55zM87 -140l-20 16q-22 18 -22 32q0 11 9.5 25t18.5 38.5t9 61.5q0 16 -8 45.5t-9 45.5q40 13 97 13q22 0 36 -13t14 -33q0 -171 -125 -231z" />
    <glyph glyph-name="less" unicode="&#x3c;" horiz-adv-x="510" 
d="M433 492l43 -23q-91 -72 -265 -173q173 -100 265 -172l-43 -23q-25 -12 -55 -12q-42 0 -86 31q-19 13 -73.5 47.5t-102 66.5t-84.5 62q37 30 85 62.5t102.5 67.5t72.5 47q46 31 86 31q26 0 55 -12z" />
    <glyph glyph-name="equal" unicode="=" horiz-adv-x="533" 
d="M408 168h-215q-76 0 -141 -12q-14 40 -14 88q56 4 148 4h205q64 0 84 13q20 -29 20 -61t-87 -32zM408 379h-215q-76 0 -141 -12q-14 40 -14 88q56 4 148 4h205q64 0 84 13q20 -29 20 -60q0 -33 -87 -33z" />
    <glyph glyph-name="greater" unicode="&#x3e;" horiz-adv-x="510" 
d="M77 101l-44 23q86 67 265 172q-179 106 -265 173l44 23q25 12 54 12q40 0 87 -31q20 -14 73.5 -48t101.5 -66.5t85 -62.5q-37 -29 -85 -62t-102 -67t-73 -47q-44 -31 -87 -31q-25 0 -54 12z" />
    <glyph glyph-name="question" unicode="?" horiz-adv-x="472" 
d="M161 69q0 37 23.5 60.5t60.5 23.5q35 0 55.5 -20.5t20.5 -55.5q0 -37 -24 -60.5t-61 -23.5q-34 0 -54.5 21t-20.5 55zM162 279q0 36 18.5 69t40.5 54t40.5 52.5t18.5 64.5q0 40 -22 70.5t-62 30.5q-24 0 -43.5 -13t-29.5 -28t-20 -28t-19 -13q-12 0 -28 11l-24 14
q23 65 75.5 104.5t130.5 39.5q87 0 145 -47.5t58 -118.5q0 -39 -20.5 -78t-45 -64t-45 -54t-20.5 -50v-73q-36 -14 -84 -14q-26 0 -45 16t-19 55z" />
    <glyph glyph-name="at" unicode="@" horiz-adv-x="1047" 
d="M743 294v-158q0 -32 15 -46.5t36 -14.5q65 0 65 156q0 200 -87.5 298t-235.5 98q-161 0 -254.5 -109t-93.5 -298q0 -185 101 -277.5t275 -92.5q76 0 140.5 15t105 30.5t60.5 15.5q13 0 25 -11l15 -13q-48 -52 -148.5 -85.5t-244.5 -33.5q-80 0 -148.5 13.5t-130 44.5
t-104.5 79.5t-68 122t-25 166.5q0 240 139 377.5t369 137.5q207 0 332.5 -110.5t125.5 -304.5q0 -144 -72 -221.5t-197 -77.5q-143 0 -143 104q-31 -106 -132 -106q-77 0 -123.5 60.5t-46.5 160.5q0 123 71.5 198t193.5 75q113 0 178 -52q7 -56 7 -141zM595 238v53
q0 48 -7 94q-20 20 -51 20q-39 0 -60 -47t-21 -123q0 -74 18 -117t44 -43q30 0 53.5 48.5t23.5 114.5z" />
    <glyph glyph-name="A" unicode="A" 
d="M511 82l-39 102h-257l-31 -85q-20 -56 -20 -83q-46 -21 -101 -21q-31 0 -31 26q0 23 15 61l183 468q24 59 41 141q56 14 156 14q31 -59 64 -148l176 -458q15 -38 26.5 -55.5t28.5 -27.5q-38 -21 -112 -21q-67 0 -99 87zM342 523l-95 -255h193z" />
    <glyph glyph-name="B" unicode="B" horiz-adv-x="633" 
d="M566 528q0 -108 -103 -160q63 -19 99 -64t36 -107q0 -88 -68 -142.5t-178 -54.5h-134q-77 0 -141 -8q-14 44 -14 85v468q0 75 -12 141q52 14 158 14h150q93 0 150 -48t57 -124zM217 84h106q49 0 79 32t30 84q0 53 -32.5 86t-83.5 33h-99v-235zM216 616q1 -21 1 -64v-148
h89q42 0 68 29t26 76t-28 77t-71 30h-85z" />
    <glyph glyph-name="C" unicode="C" horiz-adv-x="658" 
d="M201 357q0 -124 50.5 -200.5t133.5 -76.5q45 0 78.5 9.5t49 21.5t32 21.5t29.5 9.5t30 -10l23 -14q-30 -53 -101 -89t-161 -36q-152 0 -240.5 93t-88.5 245q0 169 94 272.5t254 103.5q106 0 172 -39t66 -89q0 -62 -124 -62q-11 46 -42.5 74.5t-80.5 28.5
q-75 0 -124.5 -73.5t-49.5 -189.5z" />
    <glyph glyph-name="D" unicode="D" horiz-adv-x="706" 
d="M349 700q141 0 228 -93t87 -243q0 -162 -94 -263t-246 -101h-106q-77 0 -141 -8q-14 44 -14 85v468q0 75 -12 141q52 14 158 14h140zM217 84h124q70 0 113 73t43 190q0 119 -45.5 194t-118.5 75h-117q1 -21 1 -64v-468z" />
    <glyph glyph-name="E" unicode="E" horiz-adv-x="592" 
d="M437 318h-220v-234h238q65 0 84 14q20 -25 20 -64q0 -34 -87 -34h-254q-77 0 -141 -8q-14 44 -14 85v473q0 76 -12 142q56 8 148 8h243q66 0 84 9q21 -24 21 -61q0 -32 -87 -32h-244q1 -19 1 -60v-154h203q65 0 84 9q20 -24 20 -61q0 -32 -87 -32z" />
    <glyph glyph-name="F" unicode="F" horiz-adv-x="562" 
d="M444 616h-228q1 -19 1 -59v-155h186q65 0 84 9q21 -24 21 -61q0 -32 -87 -32h-204v-219q0 -66 13 -83q-42 -21 -108 -21q-27 0 -43 18t-16 69v468q0 76 -12 142q56 8 148 8h227q65 0 84 9q20 -23 20 -61q0 -32 -86 -32z" />
    <glyph glyph-name="G" unicode="G" horiz-adv-x="693" 
d="M201 357q0 -123 52 -200t136 -77q54 0 94 14v127q0 47 -2 70q-59 -2 -97 -7q-14 38 -14 84q56 8 148 8h111q8 -56 8 -148v-110q-32 -53 -103.5 -89t-162.5 -36q-155 0 -245 92.5t-90 245.5q0 169 94.5 272.5t255.5 103.5q107 0 174 -39t67 -89q0 -62 -124 -62
q-11 45 -43.5 74t-81.5 29q-77 0 -127 -73t-50 -190z" />
    <glyph glyph-name="H" unicode="H" horiz-adv-x="700" 
d="M483 82v235h-266v-218q0 -66 13 -83q-42 -21 -108 -21q-27 0 -43 18t-16 69v468q0 74 -12 141q61 14 158 14q8 -56 8 -148v-155h266v148q0 77 -8 141q61 14 154 14q8 -56 8 -148v-458q0 -37 4.5 -55t18.5 -28q-46 -21 -115 -21q-62 0 -62 87z" />
    <glyph glyph-name="I" unicode="I" horiz-adv-x="280" 
d="M63 82v468q0 74 -12 141q61 14 158 14q8 -56 8 -148v-458q0 -66 22 -83q-45 -21 -114 -21q-62 0 -62 87z" />
    <glyph glyph-name="J" unicode="J" horiz-adv-x="284" 
d="M68 -26v576q0 76 -13 141q65 14 158 14q8 -56 8 -148v-565q0 -99 -49.5 -161.5t-123.5 -62.5q-31 0 -51.5 20t-20.5 53q41 0 66.5 38t25.5 95z" />
    <glyph glyph-name="K" unicode="K" horiz-adv-x="659" 
d="M406 84l-189 258v-243q0 -64 13 -86q-41 -18 -105 -18q-62 0 -62 87v472q0 70 -12 137q63 14 149 14q17 -53 17 -102v-213l141 169q36 44 99 141q55 5 143 5q-47 -82 -93 -140l-149 -186l207 -277q50 -66 87 -87q-32 -22 -104 -22q-77 0 -142 91z" />
    <glyph glyph-name="L" unicode="L" horiz-adv-x="569" 
d="M454 0h-236q-77 0 -141 -8q-14 44 -14 85v473q0 74 -12 141q61 14 158 14q8 -56 8 -148v-473h220q65 0 83 14q21 -25 21 -64q0 -34 -87 -34z" />
    <glyph glyph-name="M" unicode="M" horiz-adv-x="942" 
d="M733 82l-53 371l-126 -354q-20 -56 -20 -86q-35 -18 -99 -18q-26 0 -47 18t-40 69l-127 361l-47 -344q-4 -34 -4 -42q0 -29 15 -41q-45 -21 -101 -21q-42 0 -42 56q0 14 17 139t35 242l17 118q7 62 7 141q65 14 163 14q36 -58 50 -103l139 -429l127 380q22 65 37 147
q55 4 140 5h20q15 -53 30 -148l65 -458q9 -65 35 -83q-42 -21 -114 -21q-29 0 -49 18t-28 69z" />
    <glyph glyph-name="N" unicode="N" horiz-adv-x="687" 
d="M63 82v468q0 74 -12 141q49 14 132 14v-2l315 -428v275q0 77 -8 141q47 14 126 14q7 -59 7 -148v-458q0 -65 23 -83q-42 -21 -98 -21q-27 0 -40 24l-318 433v-353q0 -65 14 -83q-39 -21 -92 -21q-23 0 -36 18t-13 69z" />
    <glyph glyph-name="O" unicode="O" 
d="M36 336q0 165 93.5 268t244.5 103q141 0 228 -95t87 -248q0 -165 -94 -268t-246 -103q-140 0 -226.5 95t-86.5 248zM201 353q0 -121 46 -197t119 -76q70 0 113.5 74t43.5 193q0 121 -46 197t-119 76q-70 0 -113.5 -74t-43.5 -193z" />
    <glyph glyph-name="P" unicode="P" horiz-adv-x="596" 
d="M63 82v463q0 75 -12 141q52 14 158 14h90q117 0 189.5 -57.5t72.5 -149.5q0 -100 -79 -162.5t-207 -62.5h-58v-169q0 -66 13 -83q-42 -21 -108 -21q-27 0 -43 18t-16 69zM216 616q1 -21 1 -64v-200h74q50 0 81 36t31 94q0 59 -33 96.5t-86 37.5h-68z" />
    <glyph glyph-name="Q" unicode="Q" 
d="M349 -7q-140 0 -226.5 95t-86.5 248q0 165 93.5 268t244.5 103q141 0 228 -95t87 -248q0 -111 -44.5 -197t-124.5 -131q86 -44 120 -44q26 0 46 11q25 -36 25 -67q0 -46 -47 -46q-27 0 -54 9.5t-69.5 31.5t-53.5 27q-77 35 -138 35zM201 353q0 -121 46 -197t119 -76
q70 0 113.5 74t43.5 193q0 121 -46 197t-119 76q-70 0 -113.5 -74t-43.5 -193z" />
    <glyph glyph-name="R" unicode="R" horiz-adv-x="629" 
d="M63 82v463q0 75 -12 141q52 14 158 14h92q116 0 188 -57.5t72 -150.5q0 -62 -32.5 -111t-91.5 -78l114 -199q41 -70 71 -87q-38 -22 -107 -22q-73 0 -119 91l-103 183h-76v-170q0 -66 13 -83q-42 -21 -108 -21q-27 0 -43 18t-16 69zM216 616q1 -21 1 -64v-199h76
q50 0 80.5 36t30.5 93q0 59 -33 96.5t-86 37.5h-69z" />
    <glyph glyph-name="S" unicode="S" horiz-adv-x="575" 
d="M161 187q26 -107 111 -107q47 0 79.5 25.5t32.5 68.5q0 41 -35.5 71t-86 51t-100.5 45.5t-85.5 68.5t-35.5 105q0 86 65.5 139t188.5 53q96 0 155 -31.5t59 -78.5q0 -34 -31.5 -46.5t-97.5 -12.5q-23 82 -91 82q-42 0 -72 -27.5t-30 -66.5t36 -67t87.5 -47.5t103 -43
t87.5 -68t36 -107.5q0 -90 -70 -145t-203 -55q-105 0 -168.5 34t-63.5 85q0 75 129 75z" />
    <glyph glyph-name="T" unicode="T" horiz-adv-x="648" 
d="M540 616h-138q0 -9 0.5 -29t0.5 -30v-458q0 -37 4.5 -55t18.5 -28q-46 -21 -115 -21q-62 0 -62 87v468q0 45 -2 66h-71q-77 0 -141 -8q-14 44 -14 84q56 8 148 8h354q65 0 83 14q21 -25 21 -64q0 -34 -87 -34z" />
    <glyph glyph-name="U" unicode="U" horiz-adv-x="726" 
d="M63 258v292q0 74 -12 141q61 14 158 14q8 -56 8 -148v-286q0 -85 41.5 -138t107.5 -53q64 0 103.5 51.5t39.5 134.5v284q0 77 -8 141q61 14 154 14q8 -56 8 -148v-275q0 -129 -86.5 -209t-226.5 -80q-128 0 -207.5 73.5t-79.5 191.5z" />
    <glyph glyph-name="V" unicode="V" horiz-adv-x="714" 
d="M265 82l-175 468q-25 66 -68 141q65 14 162 14q36 -53 53 -103l152 -440l139 391q24 66 40 147q57 5 124 5q-6 -51 -26 -100l-191 -506q-23 -60 -23 -86q-34 -18 -98 -18q-26 0 -47 18t-42 69z" />
    <glyph glyph-name="W" unicode="W" horiz-adv-x="1081" 
d="M667 82l-109 389l-121 -372q-18 -58 -18 -86q-35 -18 -101 -18q-27 0 -46.5 18t-38.5 69l-149 468q-18 56 -62 141q68 14 164 14q34 -54 48 -103l121 -418l110 366q25 83 33 147q58 5 124 5q35 -54 48 -100l120 -416l111 367q24 82 34 147q57 5 124 5q-6 -55 -22 -100
l-165 -506q-17 -50 -19 -86q-35 -18 -100 -18q-29 0 -50.5 18t-35.5 69z" />
    <glyph glyph-name="X" unicode="X" horiz-adv-x="722" 
d="M541 700q46 5 143 5q-21 -52 -56 -100l-175 -247l184 -259q28 -38 45.5 -55.5t37.5 -27.5q-35 -21 -114 -21q-72 0 -137 87l-130 184l-118 -168q-44 -63 -52 -95q-27 -8 -105 -8q-28 0 -28 19q0 18 33 67l200 285l-129 184q-52 72 -112 141q58 14 171 14q48 -56 113 -148
l71 -101l67 97q58 82 91 147z" />
    <glyph glyph-name="Y" unicode="Y" horiz-adv-x="702" 
d="M270 82v219l-153 249q-43 69 -100 141q61 14 172 14q39 -50 100 -148l78 -125l74 121q53 87 78 147q46 5 143 5q-19 -53 -48 -100l-190 -307v-199q0 -37 4.5 -55t18.5 -28q-46 -21 -115 -21q-62 0 -62 87z" />
    <glyph glyph-name="Z" unicode="Z" horiz-adv-x="638" 
d="M127 700h320q77 0 140 8q14 -38 14 -85l-374 -539h273q65 0 84 14q20 -25 20 -64q0 -34 -87 -34h-325q-78 0 -141 -8q-14 38 -14 85l374 539h-267q-65 0 -84 -14q-20 24 -20 64q0 34 87 34z" />
    <glyph glyph-name="bracketleft" unicode="[" horiz-adv-x="328" 
d="M295 750v-80h-106v-740h106v-80h-236v900h236z" />
    <glyph glyph-name="backslash" unicode="\" horiz-adv-x="591" 
d="M373 -18l-269 593q-34 75 -77 141q56 14 146 14q41 -68 75 -148l266 -583q30 -66 61 -83q-37 -21 -102 -21q-60 0 -100 87z" />
    <glyph glyph-name="bracketright" unicode="]" horiz-adv-x="328" 
d="M37 750h237v-900h-237v80h107v740h-107v80z" />
    <glyph glyph-name="asciicircum" unicode="^" horiz-adv-x="534" 
d="M64 471l-17 21q-11 14 -11 27q0 19 26 41q114 97 195 153q84 -59 168 -129q54 -44 73 -45q-2 -19 -15 -42.5t-32 -23.5q-15 0 -40 15q-22 14 -47.5 33.5t-57 44.5t-51.5 40q-42 -34 -64.5 -52t-56.5 -41t-70 -42z" />
    <glyph glyph-name="underscore" unicode="_" horiz-adv-x="558" 
d="M558 -100h-558v80h558v-80z" />
    <glyph glyph-name="grave" unicode="`" horiz-adv-x="278" 
d="M25 663q23 49 47 76q40 -28 108 -86q52 -43 73 -44q-7 -67 -40 -67q-14 0 -32 12q-20 12 -77.5 58t-78.5 51z" />
    <glyph glyph-name="a" unicode="a" horiz-adv-x="530" 
d="M319 82v12q-32 -101 -141 -101q-65 0 -105 34.5t-40 90.5q0 75 79.5 120t206.5 58v26q0 38 -21 60.5t-56 22.5q-33 0 -55 -25t-22 -59q-116 0 -116 63q0 41 61.5 72t157.5 31q91 0 145 -43t54 -113v-232q0 -65 24 -83q-46 -21 -113 -21q-27 0 -43 18t-16 69zM319 231
q-66 -7 -101.5 -32t-35.5 -66q0 -24 15 -38.5t38 -14.5q29 0 56 34t28 78v39z" />
    <glyph glyph-name="b" unicode="b" horiz-adv-x="556" 
d="M61 130v445q0 74 -12 141q61 14 153 14q8 -56 8 -148v-181q33 86 138 86q78 0 126.5 -60.5t48.5 -158.5q0 -123 -73 -199t-191 -76q-91 0 -144.5 33t-53.5 104zM210 147q0 -43 6 -59q18 -13 52 -13q43 0 67.5 48.5t24.5 126.5q0 69 -19.5 112t-51.5 43q-30 0 -54 -38.5
t-25 -98.5v-121z" />
    <glyph glyph-name="c" unicode="c" horiz-adv-x="506" 
d="M196 245q0 -76 29 -123t76 -47q28 0 49.5 7.5t31.5 16t20 16t17 7.5q10 0 30 -10l22 -13q-23 -45 -76.5 -75.5t-121.5 -30.5q-110 0 -175 64.5t-65 169.5q0 117 70 188.5t187 71.5q79 0 127.5 -33.5t48.5 -78.5q0 -55 -110 -55q-6 37 -24 61t-44 24q-40 0 -66 -44.5
t-26 -115.5z" />
    <glyph glyph-name="d" unicode="d" horiz-adv-x="551" 
d="M328 716q63 14 154 14q8 -56 8 -148v-483q0 -37 4.5 -55t18.5 -28q-46 -21 -112 -21q-60 0 -60 87v20q-34 -109 -138 -109q-78 0 -126.5 60.5t-48.5 158.5q0 123 69.5 199t182.5 76q33 0 61 -13v101q0 75 -13 141zM258 75q31 0 57 50t26 113v143q-23 24 -63 24
q-39 0 -63 -48.5t-24 -125.5q0 -70 19 -113t48 -43z" />
    <glyph glyph-name="e" unicode="e" horiz-adv-x="517" 
d="M33 227q0 115 67.5 187.5t174.5 72.5q103 0 156 -52t53 -143q-1 -39 -25 -69h-268q5 -67 35.5 -107.5t76.5 -40.5q36 0 61 11.5t38.5 23.5t22.5 12q13 0 30 -11l23 -13q-24 -44 -78.5 -74.5t-123.5 -30.5q-111 0 -177 64.5t-66 169.5zM269 405q-27 0 -47 -29t-28 -78h145
q-9 107 -70 107z" />
    <glyph glyph-name="f" unicode="f" horiz-adv-x="439" 
d="M316 400h-78v-301q0 -62 13 -86q-38 -18 -102 -18q-60 0 -60 87v314l-55 -8q-14 47 -14 88l69 3v57q0 88 52.5 142t142.5 54q64 0 105.5 -22t41.5 -50q0 -63 -105 -63q-3 23 -13.5 38t-25.5 15q-21 0 -35 -27t-14 -69v-74h58q68 0 86 13q21 -30 21 -61q0 -32 -87 -32z
" />
    <glyph glyph-name="g" unicode="g" horiz-adv-x="554" 
d="M48 307q0 79 62 129.5t160 50.5q50 0 95 -16q36 76 112 76q42 0 60.5 -22t18.5 -49q0 -26 -19 -40t-52 -14q-6 21 -20 34.5t-30 13.5q-19 0 -35 -16q71 -44 71 -129q0 -79 -64 -129t-162 -50q-33 0 -61 6q-14 -14 -14 -32q0 -26 37 -34t89 -7.5t104.5 -4t89.5 -35
t37 -89.5q0 -84 -73 -133t-211 -49q-105 0 -164 30t-59 92q0 47 31.5 77t68.5 33l35 3q-45 5 -69.5 25t-24.5 66q0 57 45 91q-58 44 -58 122zM373 -76q0 14 -3.5 25.5t-9.5 19.5t-14.5 13.5t-19.5 9t-23 5.5t-25.5 2.5t-27.5 1t-28.5 0.5h-28.5q-28 -33 -28 -85
q0 -37 28 -59.5t76 -22.5q51 0 77.5 25.5t26.5 64.5zM192 320q0 -44 21 -70.5t52 -26.5q32 0 49 26.5t17 63.5q0 45 -21.5 71t-52.5 26t-48 -26t-17 -64z" />
    <glyph glyph-name="h" unicode="h" horiz-adv-x="573" 
d="M363 82v241q0 40 -15.5 65.5t-38.5 25.5q-34 0 -65 -46t-34 -105v-164q0 -62 13 -86q-38 -18 -102 -18q-60 0 -60 87v493q0 74 -12 141q61 14 144 14q17 -48 17 -102v-238q20 51 66.5 78.5t108.5 27.5q56 0 91.5 -40.5t35.5 -103.5v-253q0 -65 23 -83q-46 -21 -112 -21
q-60 0 -60 87z" />
    <glyph glyph-name="i" unicode="i" horiz-adv-x="272" 
d="M61 82v248q0 75 -12 141q61 14 153 14q8 -56 8 -148v-238q0 -65 23 -83q-46 -21 -112 -21q-60 0 -60 87zM51 647q0 37 24 60t62 23q33 0 53.5 -20.5t20.5 -54.5q0 -37 -24 -60t-62 -23q-33 0 -53.5 20.5t-20.5 54.5z" />
    <glyph glyph-name="j" unicode="j" horiz-adv-x="276" 
d="M55 647q0 37 24 60t62 23q33 0 53.5 -20.5t20.5 -54.5q0 -37 -23.5 -60t-61.5 -23q-33 0 -54 20.5t-21 54.5zM66 -26v356q0 75 -12 141q61 14 153 14q8 -56 8 -148v-345q0 -102 -45 -163t-129 -61q-32 0 -51 21t-19 52q51 0 73 32.5t22 100.5z" />
    <glyph glyph-name="k" unicode="k" horiz-adv-x="546" 
d="M308 86l-98 135v-122q0 -62 13 -86q-38 -18 -102 -18q-60 0 -60 87v493q0 74 -12 141q61 14 144 14q17 -48 17 -102v-349l49 57q33 39 103 141q53 5 139 5q-40 -66 -97 -140l-61 -78l118 -160q30 -41 46.5 -58.5t35.5 -28.5q-35 -22 -104 -22q-73 0 -131 91z" />
    <glyph glyph-name="l" unicode="l" horiz-adv-x="272" 
d="M61 82v493q0 74 -12 141q61 14 153 14q8 -56 8 -148v-483q0 -65 23 -83q-46 -21 -112 -21q-60 0 -60 87z" />
    <glyph glyph-name="m" unicode="m" horiz-adv-x="824" 
d="M337 82v233q0 39 -12.5 64.5t-31.5 25.5q-29 0 -54.5 -44t-28.5 -101v-161q0 -62 13 -86q-38 -18 -102 -18q-60 0 -60 87v248q0 74 -12 141q61 14 144 14q17 -48 17 -101q17 50 55.5 76.5t93.5 26.5q46 0 79 -28t44 -75q17 50 56 76.5t95 26.5q57 0 93 -39.5t36 -101.5
v-247q0 -65 23 -83q-46 -21 -112 -21q-60 0 -60 87v233q0 40 -12.5 65t-32.5 25q-26 0 -50 -39.5t-32 -93.5v-173q0 -65 14 -86q-40 -18 -102 -18q-28 0 -44.5 18t-16.5 69z" />
    <glyph glyph-name="n" unicode="n" horiz-adv-x="573" 
d="M363 82v233q0 40 -15.5 65t-38.5 25q-35 0 -66.5 -46.5t-32.5 -104.5v-155q0 -62 13 -86q-38 -18 -102 -18q-60 0 -60 87v248q0 74 -12 141q61 14 144 14q17 -48 17 -102q20 50 66.5 77t108.5 27q56 0 91.5 -39.5t35.5 -101.5v-247q0 -65 23 -83q-46 -21 -112 -21
q-60 0 -60 87z" />
    <glyph glyph-name="o" unicode="o" horiz-adv-x="551" 
d="M33 227q0 116 71.5 188t186.5 72q102 0 164.5 -65t62.5 -169q0 -116 -71.5 -188t-186.5 -72q-101 0 -164 65t-63 169zM194 245q0 -76 24.5 -123t62.5 -47q34 0 54.5 44.5t20.5 115.5q0 76 -24 123t-62 47q-34 0 -55 -44t-21 -116z" />
    <glyph glyph-name="p" unicode="p" horiz-adv-x="556" 
d="M61 -145v475q0 74 -12 141q61 14 144 14q17 -48 17 -101q33 103 138 103q78 0 126.5 -60.5t48.5 -158.5q0 -123 -65 -199t-172 -76q-45 0 -76 20v-140q0 -61 13 -87q-38 -18 -102 -18q-60 0 -60 87zM289 405q-29 0 -53.5 -47.5t-25.5 -109.5v-152q28 -21 71 -21
q36 0 57.5 48t21.5 126q0 70 -19.5 113t-51.5 43z" />
    <glyph glyph-name="q" unicode="q" horiz-adv-x="553" 
d="M494 294v-421q0 -66 23 -84q-45 -21 -112 -21q-27 0 -43 18t-16 69v244q-33 -106 -138 -106q-78 0 -126.5 60.5t-48.5 158.5q0 123 73 199t189 76q122 0 192 -52q7 -56 7 -141zM346 238v53q0 48 -7 94q-23 20 -61 20q-37 0 -59.5 -48.5t-22.5 -125.5q0 -70 19.5 -113
t51.5 -43q29 0 54 49t25 114z" />
    <glyph glyph-name="r" unicode="r" horiz-adv-x="476" 
d="M61 82v248q0 74 -12 141q61 14 144 14q17 -48 17 -102v-1q30 105 131 105q42 0 70.5 -35.5t28.5 -82.5q0 -59 -115 -59q-4 41 -17 68t-30 27q-26 0 -46 -48.5t-22 -117.5v-140q0 -62 13 -86q-38 -18 -102 -18q-60 0 -60 87z" />
    <glyph glyph-name="s" unicode="s" horiz-adv-x="442" 
d="M136 148q17 -73 68 -73q25 0 42 14t17 36q0 24 -23 42.5t-55.5 33.5t-65.5 32.5t-56 47t-23 68.5q0 60 49 99t141 39q73 0 119 -25t46 -62q0 -27 -25.5 -37.5t-79.5 -10.5q-16 53 -56 53q-21 0 -35 -14t-14 -34q0 -23 23.5 -41t56.5 -32t66.5 -30.5t57 -46.5t23.5 -70
q0 -64 -53.5 -104t-149.5 -40q-81 0 -129.5 26.5t-48.5 67.5q0 61 105 61z" />
    <glyph glyph-name="t" unicode="t" horiz-adv-x="429" 
d="M295 400h-66v-254q0 -31 16.5 -51t43.5 -20q20 0 34 8.5t21.5 17.5t12.5 9q12 0 30 -11l22 -13q-16 -40 -56 -66.5t-90 -26.5q-84 0 -133.5 40t-49.5 105v258q-9 -1 -53 -8q-14 40 -14 88q63 3 71 3q2 10 8 30.5t9 38t3 36.5q54 10 117 10q6 -54 8 -114h47q66 0 86 13
q20 -31 20 -61q0 -32 -87 -32z" />
    <glyph glyph-name="u" unicode="u" horiz-adv-x="573" 
d="M210 337v-167q0 -42 15.5 -68.5t39.5 -26.5q34 0 65 46t33 107v102q0 68 -7 145q52 10 148 10q8 -56 8 -148v-238q0 -65 23 -83q-46 -21 -112 -21q-60 0 -60 87v14q-20 -49 -66.5 -76t-107.5 -27q-56 0 -92 41.5t-36 106.5v189q0 74 -12 141q61 14 153 14q8 -56 8 -148z
" />
    <glyph glyph-name="v" unicode="v" horiz-adv-x="552" 
d="M187 82l-98 248q-33 81 -68 141q58 14 147 14q32 -47 53 -102l78 -231l64 178q25 69 41 147q57 5 120 5q-8 -56 -27 -99l-116 -284q-19 -45 -22 -86q-31 -18 -90 -18q-25 0 -44.5 18t-37.5 69z" />
    <glyph glyph-name="w" unicode="w" horiz-adv-x="839" 
d="M178 82l-88 248q-22 63 -64 141q58 14 146 14q32 -50 49 -102l67 -222l51 169q25 83 33 147q55 5 116 5q34 -53 49 -100l66 -222l52 170q28 97 35 147q55 5 115 5q-4 -47 -22 -99l-103 -284q-19 -50 -19 -86q-32 -18 -91 -18q-26 0 -44.5 18t-33.5 69l-60 208l-68 -191
q-17 -48 -17 -86q-32 -18 -91 -18q-25 0 -42.5 18t-35.5 69z" />
    <glyph glyph-name="x" unicode="x" horiz-adv-x="558" 
d="M389 477q46 5 139 5q-23 -53 -59 -99l-102 -140l106 -144q27 -38 44.5 -55.5t38.5 -27.5q-32 -21 -108 -21q-67 0 -130 87l-59 80l-46 -63q-46 -63 -54 -95q-25 -8 -101 -8q-27 0 -27 19q0 22 33 67l126 175l-52 73q-50 70 -115 141q54 14 161 14q53 -60 115 -148l1 -1
q52 70 89 141z" />
    <glyph glyph-name="y" unicode="y" horiz-adv-x="561" 
d="M233 -25l9 24q-32 14 -56 83l-96 248q-27 71 -66 141q61 14 147 14q37 -61 52 -103l75 -230l66 178q23 63 38 147q45 5 132 5q-13 -54 -45 -145l-125 -344q-40 -112 -97.5 -168.5t-126.5 -56.5q-33 0 -53 22t-20 60q121 0 166 125z" />
    <glyph glyph-name="z" unicode="z" horiz-adv-x="531" 
d="M394 0h-185q-78 0 -145 -6q-14 40 -14 82l243 324h-138q-66 0 -89 -13q-18 28 -18 61q0 32 88 32h181q77 0 145 6q14 -47 14 -76l-253 -330h152q39 0 57 4.5t29 18.5q20 -36 20 -71q0 -32 -87 -32z" />
    <glyph glyph-name="braceleft" unicode="{" horiz-adv-x="425" 
d="M388 -70v-87q-119 0 -183.5 66t-65.5 174q-2 174 -107 174v86q54 1 80 44t27 115q1 115 65.5 185t183.5 70v-87q-105 0 -107 -156q0 -147 -95 -214q95 -61 95 -199q2 -171 107 -171z" />
    <glyph glyph-name="bar" unicode="|" horiz-adv-x="248" 
d="M59 -100v850h130v-850h-130z" />
    <glyph glyph-name="braceright" unicode="}" horiz-adv-x="425" 
d="M37 670v87q119 0 183.5 -66t65.5 -174q2 -174 107 -174v-86q-54 -1 -80 -44t-27 -115q-1 -115 -65.5 -185t-183.5 -70v87q105 0 107 156q0 147 95 214q-95 61 -95 199q-2 171 -107 171z" />
    <glyph glyph-name="asciitilde" unicode="~" horiz-adv-x="455" 
d="M408 373l18 -16q-17 -52 -52 -83t-72 -31q-40 0 -82 23.5t-64 23.5q-56 0 -92 -47q-34 25 -34 72q0 37 30.5 56.5t68.5 19.5q41 0 92 -24t68 -24q23 0 40.5 11.5t29 23.5t21.5 12q6 0 28 -17z" />
    <glyph glyph-name="exclamdown" unicode="&#xa1;" horiz-adv-x="266" 
d="M59 -20v247q0 78 -8 141q58 14 149 14q7 -59 7 -148v-326q-40 -15 -90 -15q-58 0 -58 87zM53 527q0 37 24 60.5t61 23.5q34 0 54.5 -21t20.5 -55q0 -37 -24 -60.5t-62 -23.5q-33 0 -53.5 21t-20.5 55z" />
    <glyph glyph-name="cent" unicode="&#xa2;" horiz-adv-x="492" 
d="M217 -42v39q-87 14 -136.5 75.5t-49.5 154.5q0 98 49.5 166t136.5 87q-1 54 -8 111q47 14 114 14q4 -51 6 -122q57 -10 90.5 -40.5t33.5 -67.5q0 -55 -110 -55q-6 37 -22 61t-40 24q-38 0 -62.5 -44.5t-24.5 -115.5q0 -76 27 -123t72 -47q27 0 47.5 7.5t30 16t19 16
t16.5 7.5q10 0 30 -10l22 -13q-16 -33 -50 -59.5t-79 -38.5v-26q0 -65 18 -84q-37 -20 -87 -20q-43 0 -43 87z" />
    <glyph glyph-name="sterling" unicode="&#xa3;" horiz-adv-x="625" 
d="M438 302h-157v-157q0 -43 7 -61h195q65 0 83 14q21 -25 21 -61q0 -18 -17.5 -27.5t-69.5 -9.5h-277q-78 0 -141 -8q-14 38 -14 85q35 4 60 5v218q-40 -3 -77 -11q-14 40 -14 88q39 3 91 3v103q0 91 73 157.5t189 66.5q89 0 143 -38.5t54 -87.5q0 -64 -123 -64
q-10 50 -29 76.5t-58 26.5q-42 0 -69 -31t-27 -80v-128h140q65 0 83 14q21 -30 21 -59q0 -17 -17.5 -25.5t-69.5 -8.5z" />
    <glyph glyph-name="currency" unicode="&#xa4;" horiz-adv-x="509" 
d="M60 267q0 59 30 105l-47 48q-11 8 -11 19q0 12 22 35.5t35 23.5q10 0 21 -11l50 -51q46 23 103 23q46 0 89 -18l47 47q9 10 19 10q12 0 35 -23t23 -35q0 -10 -10 -19l-43 -43q24 -43 24 -95q0 -57 -29 -104l49 -49q10 -10 10 -19q0 -12 -22.5 -35t-35.5 -23q-12 0 -19 10
l-53 52q-45 -24 -104 -24q-50 0 -89 18l-45 -45q-9 -10 -19 -10q-12 0 -35.5 22t-23.5 35q0 10 11 20l41 42q-23 40 -23 94zM166 277q0 -50 24.5 -82t64.5 -32q39 0 63 30.5t24 79.5q0 50 -25 82t-65 32q-39 0 -62.5 -30t-23.5 -80z" />
    <glyph glyph-name="yen" unicode="&#xa5;" horiz-adv-x="702" 
d="M270 82v15q-56 0 -125 -7q-14 30 -14 70q68 7 139 7v55q-56 0 -125 -7q-14 30 -14 70q59 6 139 6v10l-153 249q-39 63 -100 141q61 14 172 14q39 -50 100 -148l78 -125l74 121q51 82 78 147q46 5 143 5q-19 -53 -48 -100l-190 -307v-7h51q66 0 83 11q21 -20 21 -53
q0 -27 -87 -27h-68v-55h51q65 0 83 10q21 -20 21 -52q0 -28 -87 -28h-68q0 -37 4.5 -54t18.5 -27q-46 -21 -115 -21q-62 0 -62 87z" />
    <glyph glyph-name="brokenbar" unicode="&#xa6;" horiz-adv-x="248" 
d="M59 -100v368h130v-368h-130zM189 750v-368h-130v368h130z" />
    <glyph glyph-name="section" unicode="&#xa7;" horiz-adv-x="458" 
d="M134 48q19 -73 78 -73q30 0 49 20t19 47q0 28 -25 50.5t-60 39.5t-70.5 36.5t-60.5 53.5t-25 80q0 89 79 129q-79 56 -79 126q0 62 52.5 106t150.5 44q74 0 122.5 -26t48.5 -65q0 -27 -26 -37.5t-80 -10.5q-7 24 -24 40.5t-40 16.5q-27 0 -43.5 -20t-16.5 -46
q0 -28 25.5 -49.5t61.5 -38t72 -36t61.5 -55t25.5 -83.5q0 -84 -71 -127q71 -53 71 -122q0 -67 -56.5 -111t-160.5 -44q-81 0 -132 27t-51 68q0 60 105 60zM308 274q0 31 -28 54.5t-85 55.5q-40 -16 -40 -55q0 -17 8.5 -31.5t28 -29t34.5 -23t45 -24.5q37 18 37 53z" />
    <glyph glyph-name="dieresis" unicode="&#xa8;" horiz-adv-x="445" 
d="M38 618q0 32 21 53t54 21q30 0 48.5 -18.5t18.5 -48.5q0 -33 -21 -53.5t-54 -20.5q-30 0 -48.5 19t-18.5 48zM259 618q0 32 21 53t55 21q29 0 47.5 -18.5t18.5 -48.5q0 -33 -21 -53.5t-54 -20.5q-30 0 -48.5 19t-18.5 48z" />
    <glyph glyph-name="copyright" unicode="&#xa9;" horiz-adv-x="564" 
d="M31 228q0 114 74 186.5t189 72.5q109 0 174 -64.5t65 -170.5q0 -114 -74.5 -186.5t-189.5 -72.5q-109 0 -173.5 64.5t-64.5 170.5zM123 243q0 -82 45 -134t116 -52t114 49.5t43 130.5q0 82 -45 134t-116 52t-114 -49.5t-43 -130.5zM253 245q0 -39 14 -63t37 -24t39 12
t19 12q7 0 15 -5l11 -7q-12 -22 -38.5 -38t-59.5 -16q-55 0 -87 33t-32 86q0 60 34 96t93 36q39 0 63 -17t24 -39q0 -29 -55 -29q-7 44 -33 44q-19 0 -31.5 -22.5t-12.5 -58.5z" />
    <glyph glyph-name="ordfeminine" unicode="&#xaa;" horiz-adv-x="339" 
d="M203 451v4q-23 -59 -90 -59q-41 0 -66 21.5t-25 56.5q0 47 50 75t131 36v16q0 24 -13 38t-36 14q-21 0 -35.5 -16t-14.5 -37q-73 0 -73 40q0 26 38.5 45t100.5 19q57 0 91.5 -27t34.5 -71v-144q0 -41 14 -52q-27 -13 -70 -13q-37 0 -37 54zM149 450q19 0 36.5 22.5
t17.5 50.5v21q-88 -8 -88 -61q0 -14 9.5 -23.5t24.5 -9.5z" />
    <glyph glyph-name="guillemotleft" unicode="&#xab;" horiz-adv-x="504" 
d="M265 121l-24 -21q-16 -11 -31 -11q-22 0 -47 29q-73 82 -135 162q69 88 135 162q25 29 47 29q17 0 31 -11l24 -21q-10 -19 -25.5 -42t-27.5 -38.5t-33 -42t-29 -36.5q8 -10 29 -36.5t33 -42t27.5 -38.5t25.5 -42zM470 121l-24 -21q-17 -11 -31 -11q-23 0 -47 29
q-73 82 -135 162q69 88 135 162q24 29 47 29q14 0 31 -11l24 -21q-10 -19 -25.5 -42t-27.5 -38.5t-33 -42t-29 -36.5q8 -10 29 -36.5t33 -42t27.5 -38.5t25.5 -42z" />
    <glyph glyph-name="logicalnot" unicode="&#xac;" horiz-adv-x="567" 
d="M383 227v125h-350v80h480v-205h-130z" />
    <glyph glyph-name="uni00AD" unicode="&#xad;" horiz-adv-x="329" 
d="M214 233h-31q-75 0 -141 -12q-14 47 -14 88q56 4 149 4h20q65 0 84 13q20 -31 20 -61q0 -32 -87 -32z" />
    <glyph glyph-name="registered" unicode="&#xae;" horiz-adv-x="546" 
d="M31 458q0 110 71 179.5t182 69.5q105 0 168 -62.5t63 -164.5q0 -110 -71.5 -179t-183.5 -69q-105 0 -167 62t-62 164zM105 472q0 -85 47 -138t123 -53q75 0 120.5 51t45.5 134q0 85 -47 138t-123 53q-75 0 -120.5 -51t-45.5 -134zM186 383v159q0 25 -5 49q15 3 52 5h36
q42 0 68 -20t26 -53q0 -42 -42 -65l39 -68q15 -26 25 -31q-14 -9 -41 -9t-45 35l-31 59h-23v-56q0 -22 5 -30q-19 -8 -42 -8q-22 0 -22 33zM245 565v-88h22q16 0 25.5 11.5t9.5 30.5q0 20 -10.5 33t-27.5 13h-19z" />
    <glyph glyph-name="macron" unicode="&#xaf;" horiz-adv-x="386" 
d="M264 586h-79q-76 0 -141 -12q-14 38 -14 79q56 4 148 4h69q65 0 84 13q20 -28 20 -54q0 -30 -87 -30z" />
    <glyph glyph-name="degree" unicode="&#xb0;" horiz-adv-x="359" 
d="M31 544q0 73 44 118t114 45q63 0 101 -40.5t38 -106.5q0 -73 -44 -118t-115 -45q-61 0 -99.5 41t-38.5 106zM130 554q0 -35 15 -57.5t38 -22.5q20 0 33 21t13 54q0 36 -15 57.5t-38 21.5q-21 0 -33.5 -20.5t-12.5 -53.5z" />
    <glyph glyph-name="plusminus" unicode="&#xb1;" horiz-adv-x="512" 
d="M203 193v168h-10q-76 0 -141 -12q-14 40 -14 88q56 4 148 4h17v157h103v-157h64q64 0 84 13q20 -29 20 -60q0 -33 -86 -33h-82v-168h-103zM388 86h-195q-76 0 -141 -12q-14 40 -14 88q56 4 148 4h184q64 0 84 13q20 -29 20 -61t-86 -32z" />
    <glyph glyph-name="twosuperior" unicode="&#xb2;" horiz-adv-x="269" 
d="M237 623q0 -27 -19.5 -55t-44 -46.5t-47 -41.5t-26.5 -40h90q32 0 39 6q10 -11 10 -29q0 -17 -41 -17h-94q-40 0 -66 -4q-6 20 -6 40q0 19 20 43.5t44.5 44t44.5 45t20 46.5q0 22 -13 36.5t-35 14.5q-17 0 -29 -9t-18.5 -18t-12.5 -9t-13 4l-11 7q24 66 103 66
q45 0 75 -23.5t30 -60.5z" />
    <glyph glyph-name="threesuperior" unicode="&#xb3;" horiz-adv-x="281" 
d="M124 438q22 0 34.5 13t12.5 36q0 22 -12 36t-31 14h-7q-6 0 -26 -2q-4 36 -4 39q12 3 28 3h6q14 0 22.5 12.5t8.5 30.5q0 46 -42 46q-16 0 -26.5 -9t-17.5 -18t-12 -9q-7 0 -14 4l-12 7q10 29 38 47.5t68 18.5q42 0 69.5 -21.5t27.5 -56.5q0 -46 -42 -69q57 -18 57 -75
q0 -40 -32 -64t-84 -24q-45 0 -72.5 16.5t-27.5 39.5q0 26 40 26q13 -41 50 -41z" />
    <glyph glyph-name="acute" unicode="&#xb4;" horiz-adv-x="278" 
d="M67 535l-18 22q-10 13 -10 26q0 19 25 41q106 88 143 115q27 -31 46 -76q-111 -89 -186 -128z" />
    <glyph glyph-name="mu" unicode="&#xb5;" horiz-adv-x="573" 
d="M210 337v-167q0 -42 15.5 -68.5t39.5 -26.5q34 0 65 46t33 107v102q0 68 -7 145q52 10 148 10q8 -56 8 -148v-238q0 -65 23 -83q-46 -21 -112 -21q-60 0 -60 87v17q-18 -48 -61 -75.5t-101 -30.5v-69q0 -65 23 -83q-45 -21 -106 -21q-57 0 -57 87v423q0 74 -12 141
q61 14 153 14q8 -56 8 -148z" />
    <glyph glyph-name="paragraph" unicode="&#xb6;" horiz-adv-x="672" 
d="M392 705q8 -56 8 -148v-558q0 -65 23 -83q-46 -21 -112 -21q-60 0 -60 87v318q-98 0 -159 53t-61 139q0 100 87.5 156.5t273.5 56.5zM481 -18v568q0 74 -12 141q54 14 138 14q6 -50 6 -148v-558q0 -65 21 -83q-39 -21 -99 -21q-54 0 -54 87z" />
    <glyph glyph-name="periodcentered" unicode="&#xb7;" horiz-adv-x="257" 
d="M48 298q0 37 24 60.5t62 23.5q33 0 54 -20.5t21 -54.5q0 -37 -24 -60.5t-62 -23.5q-34 0 -54.5 20.5t-20.5 54.5z" />
    <glyph glyph-name="cedilla" unicode="&#xb8;" horiz-adv-x="492" 
d="M229 0h70q0 -25 36 -51.5t36 -55.5q0 -40 -29 -64.5t-77 -24.5q-35 0 -66 14l6 23q5 16 10.5 22.5t18.5 6.5q3 0 11 -1.5t16 -1.5q29 0 29 30q0 8 -9.5 16t-21 15.5t-21 26t-9.5 45.5z" />
    <glyph glyph-name="onesuperior" unicode="&#xb9;" horiz-adv-x="219" 
d="M41 610l-10 11q-4 4 -4 11q0 11 13 23q32 30 58 44q28 7 72 7q4 -25 4 -67v-193q0 -30 7 -38q-20 -10 -49 -10t-29 40v205q-34 -22 -62 -33z" />
    <glyph glyph-name="ordmasculine" unicode="&#xba;" horiz-adv-x="350" 
d="M22 542q0 72 45 117t117 45q65 0 104.5 -40t39.5 -106q0 -72 -45 -117t-118 -45q-64 0 -103.5 40t-39.5 106zM123 553q0 -47 15 -76.5t40 -29.5q22 0 35 27.5t13 72.5q0 47 -15 76.5t-40 29.5q-22 0 -35 -27.5t-13 -72.5z" />
    <glyph glyph-name="guillemotright" unicode="&#xbb;" horiz-adv-x="504" 
d="M58 100l-24 21q10 19 25.5 42t27.5 38.5t33 42t29 36.5q-8 10 -29 36.5t-33 42t-27.5 38.5t-25.5 42l24 21q16 11 31 11q22 0 47 -29q73 -82 135 -162q-69 -88 -135 -162q-25 -29 -47 -29q-15 0 -31 11zM263 100l-24 21q10 19 25.5 42t27.5 38.5t33 42t29 36.5
q-8 10 -29 36.5t-33 42t-27.5 38.5t-25.5 42l24 21q16 11 31 11q22 0 47 -29q67 -76 135 -162q-69 -88 -135 -162q-25 -29 -47 -29q-15 0 -31 11z" />
    <glyph glyph-name="onequarter" unicode="&#xbc;" horiz-adv-x="659" 
d="M59 82l450 611q48 12 125 12l-502 -700q-28 -10 -81 -10q-26 0 -26 19q0 22 34 68zM505 38v20h-61q-40 0 -66 -3q-7 21 -7 40l128 204q28 7 74 7q4 -25 4 -67v-141q19 0 28 7q11 -12 11 -31q0 -16 -39 -16v-12q0 -31 11 -38q-20 -10 -54 -10q-29 0 -29 40zM51 610l-10 11
q-4 4 -4 11q0 11 13 23q32 30 58 44q28 7 72 7q4 -25 4 -67v-193q0 -30 7 -38q-20 -10 -49 -10t-29 40v205q-34 -22 -62 -33zM430 98h75v128z" />
    <glyph glyph-name="onehalf" unicode="&#xbd;" horiz-adv-x="659" 
d="M59 82l450 611q48 12 125 12l-502 -700q-28 -10 -81 -10q-26 0 -26 19q0 22 34 68zM618 223q0 -27 -19.5 -55t-44 -46.5t-47 -41.5t-26.5 -40h90q31 0 39 6q10 -11 10 -29q0 -17 -41 -17h-94q-40 0 -66 -4q-6 20 -6 40q0 19 20 43.5t44.5 44t44.5 45t20 46.5
q0 22 -13 36.5t-35 14.5q-17 0 -29 -9t-18.5 -18t-12.5 -9q-8 0 -13 4l-12 7q26 66 103 66q46 0 76 -23.5t30 -60.5zM51 610l-10 11q-4 4 -4 11q0 11 13 23q32 30 58 44q28 7 72 7q4 -25 4 -67v-193q0 -30 7 -38q-20 -10 -49 -10t-29 40v205q-34 -22 -62 -33z" />
    <glyph glyph-name="threequarters" unicode="&#xbe;" horiz-adv-x="659" 
d="M59 82l450 611q48 12 125 12l-502 -700q-28 -10 -81 -10q-26 0 -26 19q0 22 34 68zM515 38v20h-61q-40 0 -66 -3q-7 21 -7 40l128 204q28 7 74 7q4 -25 4 -67v-141q19 0 28 7q11 -12 11 -31q0 -16 -39 -16v-12q0 -31 11 -38q-20 -10 -54 -10q-29 0 -29 40zM134 438
q22 0 34.5 13t12.5 36q0 22 -12 36t-31 14h-7q-6 0 -26 -2q-4 36 -4 39q12 3 28 3h6q14 0 22.5 12.5t8.5 30.5q0 46 -42 46q-16 0 -26.5 -9t-17.5 -18t-12 -9q-7 0 -14 4l-12 7q10 29 38 47.5t68 18.5q42 0 69.5 -21.5t27.5 -56.5q0 -46 -42 -69q57 -18 57 -75
q0 -40 -32 -64t-84 -24q-45 0 -72.5 16.5t-27.5 39.5q0 26 40 26q13 -41 50 -41zM440 98h75v128z" />
    <glyph glyph-name="questiondown" unicode="&#xbf;" horiz-adv-x="473" 
d="M312 531q0 -37 -24 -60.5t-61 -23.5q-35 0 -55.5 20.5t-20.5 55.5q0 37 24 60.5t61 23.5q34 0 55 -21t21 -55zM311 321q0 -36 -18.5 -69t-41 -54t-41 -52.5t-18.5 -64.5q0 -39 22.5 -70t62.5 -31q24 0 43.5 13t29.5 28t20 28t19 13q11 0 28 -11l24 -14
q-23 -65 -75.5 -104.5t-130.5 -39.5q-87 0 -145.5 47.5t-58.5 118.5q0 39 20.5 78t45 64t45 54t20.5 50v73q36 14 85 14q26 0 45 -16t19 -55z" />
    <glyph glyph-name="Agrave" unicode="&#xc0;" 
d="M511 82l-39 102h-257l-31 -85q-20 -56 -20 -83q-46 -21 -101 -21q-31 0 -31 26q0 23 15 61l183 468q24 59 41 141q56 14 156 14q31 -59 64 -148l176 -458q15 -38 26.5 -55.5t28.5 -27.5q-38 -21 -112 -21q-67 0 -99 87zM342 523l-95 -255h193zM258 863q23 49 47 76
q40 -28 108 -86q52 -43 73 -44q-7 -67 -40 -67q-14 0 -32 12q-20 12 -77.5 58t-78.5 51z" />
    <glyph glyph-name="Aacute" unicode="&#xc1;" 
d="M511 82l-39 102h-257l-31 -85q-20 -56 -20 -83q-46 -21 -101 -21q-31 0 -31 26q0 23 15 61l183 468q24 59 41 141q56 14 156 14q31 -59 64 -148l176 -458q15 -38 26.5 -55.5t28.5 -27.5q-38 -21 -112 -21q-67 0 -99 87zM342 523l-95 -255h193zM293 735l-18 22
q-10 13 -10 26q0 19 25 41q106 88 143 115q27 -31 46 -76q-111 -89 -186 -128z" />
    <glyph glyph-name="Acircumflex" unicode="&#xc2;" 
d="M511 82l-39 102h-257l-31 -85q-20 -56 -20 -83q-46 -21 -101 -21q-31 0 -31 26q0 23 15 61l183 468q24 59 41 141q56 14 156 14q31 -59 64 -148l176 -458q15 -38 26.5 -55.5t28.5 -27.5q-38 -21 -112 -21q-67 0 -99 87zM239 748l-17 22q-11 13 -11 26q0 20 26 42
q96 80 125 100q44 -31 98 -77q51 -43 73 -44q-2 -20 -15 -43.5t-32 -23.5q-15 0 -40 15q-16 10 -46 34l-40 32q-72 -56 -121 -83zM342 523l-95 -255h193z" />
    <glyph glyph-name="Atilde" unicode="&#xc3;" 
d="M511 82l-39 102h-257l-31 -85q-20 -56 -20 -83q-46 -21 -101 -21q-31 0 -31 26q0 23 15 61l183 468q24 59 41 141q56 14 156 14q31 -59 64 -148l176 -458q15 -38 26.5 -55.5t28.5 -27.5q-38 -21 -112 -21q-67 0 -99 87zM510 857l19 -14q-14 -47 -41.5 -71t-59.5 -24
q-18 0 -48 13.5t-55 13.5q-46 0 -76 -31q-34 21 -34 61q0 33 23.5 50t52.5 17q22 0 64 -16.5t62 -16.5q22 0 41 16t25 16q5 0 27 -14zM342 523l-95 -255h193z" />
    <glyph glyph-name="Adieresis" unicode="&#xc4;" 
d="M511 82l-39 102h-257l-31 -85q-20 -56 -20 -83q-46 -21 -101 -21q-31 0 -31 26q0 23 15 61l183 468q24 59 41 141q56 14 156 14q31 -59 64 -148l176 -458q15 -38 26.5 -55.5t28.5 -27.5q-38 -21 -112 -21q-67 0 -99 87zM342 523l-95 -255h193zM191 818q0 32 21 53t54 21
q30 0 48.5 -18.5t18.5 -48.5q0 -33 -21 -53.5t-54 -20.5q-30 0 -48.5 19t-18.5 48zM412 818q0 32 21 53t55 21q29 0 47.5 -18.5t18.5 -48.5q0 -33 -21 -53.5t-54 -20.5q-30 0 -48.5 19t-18.5 48z" />
    <glyph glyph-name="Aring" unicode="&#xc5;" 
d="M511 82l-39 102h-257l-31 -85q-20 -56 -20 -83q-46 -21 -101 -21q-31 0 -31 26q0 23 15 61l183 468q24 59 41 141q56 14 156 14q31 -59 64 -148l176 -458q15 -38 26.5 -55.5t28.5 -27.5q-38 -21 -112 -21q-67 0 -99 87zM269 835q0 44 30.5 72t79.5 28q44 0 70 -25t26 -66
q0 -44 -30.5 -72t-79.5 -28q-43 0 -69.5 25t-26.5 66zM342 523l-95 -255h193zM340 841q0 -23 9.5 -37t24.5 -14q14 0 22.5 13t8.5 35t-10 36t-25 14q-13 0 -21.5 -13t-8.5 -34z" />
    <glyph glyph-name="AE" unicode="&#xc6;" horiz-adv-x="839" 
d="M684 318h-181v-234h198q66 0 84 14q21 -25 21 -64q0 -34 -87 -34h-214q-78 0 -141 -8q-14 38 -14 85v61h-142l-15 -39q-29 -70 -29 -87q-39 -17 -102 -17q-30 0 -30 26q0 19 21 61l230 468q36 79 54 142q56 8 148 8h204q65 0 84 9q20 -23 20 -61q0 -32 -87 -32h-204
q1 -19 1 -60v-154h163q66 0 84 9q21 -24 21 -61q0 -32 -87 -32zM350 509l-110 -287h110v287z" />
    <glyph glyph-name="Ccedilla" unicode="&#xc7;" horiz-adv-x="658" 
d="M201 357q0 -124 50.5 -200.5t133.5 -76.5q45 0 78.5 9.5t49 21.5t32 21.5t29.5 9.5t30 -10l23 -14q-28 -48 -90.5 -83t-143.5 -41q2 -15 13.5 -27t24.5 -19.5t23.5 -21.5t10.5 -33q0 -40 -29 -64.5t-77 -24.5q-35 0 -66 14l6 23q5 16 10.5 22.5t18.5 6.5q3 0 11 -1.5
t16 -1.5q29 0 29 30q0 8 -9.5 16t-20.5 15t-20.5 24.5t-10.5 42.5q-133 13 -210 104t-77 232q0 169 94 272.5t254 103.5q106 0 172 -39t66 -89q0 -62 -124 -62q-11 46 -42.5 74.5t-80.5 28.5q-75 0 -124.5 -73.5t-49.5 -189.5z" />
    <glyph glyph-name="Egrave" unicode="&#xc8;" horiz-adv-x="592" 
d="M437 318h-220v-234h238q65 0 84 14q20 -25 20 -64q0 -34 -87 -34h-254q-77 0 -141 -8q-14 44 -14 85v473q0 76 -12 142q56 8 148 8h243q66 0 84 9q21 -24 21 -61q0 -32 -87 -32h-244q1 -19 1 -60v-154h203q65 0 84 9q20 -24 20 -61q0 -32 -87 -32zM182 863q23 49 47 76
q40 -28 108 -86q52 -43 73 -44q-7 -67 -40 -67q-14 0 -32 12q-20 12 -77.5 58t-78.5 51z" />
    <glyph glyph-name="Eacute" unicode="&#xc9;" horiz-adv-x="592" 
d="M437 318h-220v-234h238q65 0 84 14q20 -25 20 -64q0 -34 -87 -34h-254q-77 0 -141 -8q-14 44 -14 85v473q0 76 -12 142q56 8 148 8h243q66 0 84 9q21 -24 21 -61q0 -32 -87 -32h-244q1 -19 1 -60v-154h203q65 0 84 9q20 -24 20 -61q0 -32 -87 -32zM217 735l-18 22
q-10 13 -10 26q0 19 25 41q106 88 143 115q27 -31 46 -76q-111 -89 -186 -128z" />
    <glyph glyph-name="Ecircumflex" unicode="&#xca;" horiz-adv-x="592" 
d="M437 318h-220v-234h238q65 0 84 14q20 -25 20 -64q0 -34 -87 -34h-254q-77 0 -141 -8q-14 44 -14 85v473q0 76 -12 142q56 8 148 8h243q66 0 84 9q21 -24 21 -61q0 -32 -87 -32h-244q1 -19 1 -60v-154h203q65 0 84 9q20 -24 20 -61q0 -32 -87 -32zM163 748l-17 22
q-11 13 -11 26q0 20 26 42q96 80 125 100q44 -31 98 -77q51 -43 73 -44q-2 -20 -15 -43.5t-32 -23.5q-15 0 -40 15q-16 10 -46 34l-40 32q-72 -56 -121 -83z" />
    <glyph glyph-name="Edieresis" unicode="&#xcb;" horiz-adv-x="592" 
d="M437 318h-220v-234h238q65 0 84 14q20 -25 20 -64q0 -34 -87 -34h-254q-77 0 -141 -8q-14 44 -14 85v473q0 76 -12 142q56 8 148 8h243q66 0 84 9q21 -24 21 -61q0 -32 -87 -32h-244q1 -19 1 -60v-154h203q65 0 84 9q20 -24 20 -61q0 -32 -87 -32zM114 818q0 32 21 53
t54 21q30 0 48.5 -18.5t18.5 -48.5q0 -33 -21 -53.5t-54 -20.5q-30 0 -48.5 19t-18.5 48zM335 818q0 32 21 53t55 21q29 0 47.5 -18.5t18.5 -48.5q0 -33 -21 -53.5t-54 -20.5q-30 0 -48.5 19t-18.5 48z" />
    <glyph glyph-name="Igrave" unicode="&#xcc;" horiz-adv-x="280" 
d="M63 82v468q0 74 -12 141q61 14 158 14q8 -56 8 -148v-458q0 -66 22 -83q-45 -21 -114 -21q-62 0 -62 87zM26 863q23 49 47 76q40 -28 108 -86q52 -43 73 -44q-7 -67 -40 -67q-14 0 -32 12q-20 12 -77.5 58t-78.5 51z" />
    <glyph glyph-name="Iacute" unicode="&#xcd;" horiz-adv-x="280" 
d="M63 82v468q0 74 -12 141q61 14 158 14q8 -56 8 -148v-458q0 -66 22 -83q-45 -21 -114 -21q-62 0 -62 87zM61 735l-18 22q-10 13 -10 26q0 19 25 41q106 88 143 115q27 -31 46 -76q-111 -89 -186 -128z" />
    <glyph glyph-name="Icircumflex" unicode="&#xce;" horiz-adv-x="280" 
d="M63 82v468q0 74 -12 141q61 14 158 14q8 -56 8 -148v-458q0 -66 22 -83q-45 -21 -114 -21q-62 0 -62 87zM7 748l-17 22q-11 13 -11 26q0 20 26 42q96 80 125 100q44 -31 98 -77q51 -43 73 -44q-2 -20 -15 -43.5t-32 -23.5q-15 0 -40 15q-16 10 -46 34l-40 32
q-72 -56 -121 -83z" />
    <glyph glyph-name="Idieresis" unicode="&#xcf;" horiz-adv-x="280" 
d="M63 82v468q0 74 -12 141q61 14 158 14q8 -56 8 -148v-458q0 -66 22 -83q-45 -21 -114 -21q-62 0 -62 87zM-42 818q0 32 21 53t54 21q30 0 48.5 -18.5t18.5 -48.5q0 -33 -21 -53.5t-54 -20.5q-30 0 -48.5 19t-18.5 48zM179 818q0 32 21 53t55 21q29 0 47.5 -18.5
t18.5 -48.5q0 -33 -21 -53.5t-54 -20.5q-30 0 -48.5 19t-18.5 48z" />
    <glyph glyph-name="Eth" unicode="&#xd0;" horiz-adv-x="742" 
d="M385 700q141 0 228 -93t87 -243q0 -162 -94 -263t-246 -101h-106q-77 0 -140 -8q-15 41 -15 85v236q-34 -4 -52 -8q-14 40 -14 88l66 3v149q0 75 -12 141q50 12 148 14h150zM321 318h-68v-234h124q70 0 113.5 73t43.5 190q0 119 -46 194t-118 75h-118q1 -21 1 -64v-155
h51q65 0 83 14q21 -31 21 -61q0 -32 -87 -32z" />
    <glyph glyph-name="Ntilde" unicode="&#xd1;" horiz-adv-x="687" 
d="M63 82v468q0 74 -12 141q49 14 132 14v-2l315 -428v275q0 77 -8 141q47 14 126 14q7 -59 7 -148v-458q0 -65 23 -83q-42 -21 -98 -21q-27 0 -40 24l-318 433v-353q0 -65 14 -83q-39 -21 -92 -21q-23 0 -36 18t-13 69zM481 857l19 -14q-14 -47 -41.5 -71t-59.5 -24
q-18 0 -48 13.5t-55 13.5q-46 0 -76 -31q-34 21 -34 61q0 33 23.5 50t52.5 17q22 0 64 -16.5t62 -16.5q22 0 41 16t25 16q5 0 27 -14z" />
    <glyph glyph-name="Ograve" unicode="&#xd2;" 
d="M36 336q0 165 93.5 268t244.5 103q141 0 228 -95t87 -248q0 -165 -94 -268t-246 -103q-140 0 -226.5 95t-86.5 248zM201 353q0 -121 46 -197t119 -76q70 0 113.5 74t43.5 193q0 121 -46 197t-119 76q-70 0 -113.5 -74t-43.5 -193zM248 863q23 49 47 76q40 -28 108 -86
q52 -43 73 -44q-7 -67 -40 -67q-14 0 -32 12q-20 12 -77.5 58t-78.5 51z" />
    <glyph glyph-name="Oacute" unicode="&#xd3;" 
d="M36 336q0 165 93.5 268t244.5 103q141 0 228 -95t87 -248q0 -165 -94 -268t-246 -103q-140 0 -226.5 95t-86.5 248zM201 353q0 -121 46 -197t119 -76q70 0 113.5 74t43.5 193q0 121 -46 197t-119 76q-70 0 -113.5 -74t-43.5 -193zM283 735l-18 22q-10 13 -10 26
q0 19 25 41q106 88 143 115q27 -31 46 -76q-111 -89 -186 -128z" />
    <glyph glyph-name="Ocircumflex" unicode="&#xd4;" 
d="M36 336q0 165 93.5 268t244.5 103q141 0 228 -95t87 -248q0 -165 -94 -268t-246 -103q-140 0 -226.5 95t-86.5 248zM201 353q0 -121 46 -197t119 -76q70 0 113.5 74t43.5 193q0 121 -46 197t-119 76q-70 0 -113.5 -74t-43.5 -193zM229 748l-17 22q-11 13 -11 26
q0 20 26 42q96 80 125 100q44 -31 98 -77q51 -43 73 -44q-2 -20 -15 -43.5t-32 -23.5q-15 0 -40 15q-16 10 -46 34l-40 32q-72 -56 -121 -83z" />
    <glyph glyph-name="Otilde" unicode="&#xd5;" 
d="M36 336q0 165 93.5 268t244.5 103q141 0 228 -95t87 -248q0 -165 -94 -268t-246 -103q-140 0 -226.5 95t-86.5 248zM201 353q0 -121 46 -197t119 -76q70 0 113.5 74t43.5 193q0 121 -46 197t-119 76q-70 0 -113.5 -74t-43.5 -193zM500 857l19 -14q-14 -47 -41.5 -71
t-59.5 -24q-18 0 -48 13.5t-55 13.5q-46 0 -76 -31q-34 21 -34 61q0 33 23.5 50t52.5 17q22 0 64 -16.5t62 -16.5q22 0 41 16t25 16q5 0 27 -14z" />
    <glyph glyph-name="Odieresis" unicode="&#xd6;" 
d="M36 336q0 165 93.5 268t244.5 103q141 0 228 -95t87 -248q0 -165 -94 -268t-246 -103q-140 0 -226.5 95t-86.5 248zM201 353q0 -121 46 -197t119 -76q70 0 113.5 74t43.5 193q0 121 -46 197t-119 76q-70 0 -113.5 -74t-43.5 -193zM181 818q0 32 21 53t54 21
q30 0 48.5 -18.5t18.5 -48.5q0 -33 -21 -53.5t-54 -20.5q-30 0 -48.5 19t-18.5 48zM402 818q0 32 21 53t55 21q29 0 47.5 -18.5t18.5 -48.5q0 -33 -21 -53.5t-54 -20.5q-30 0 -48.5 19t-18.5 48z" />
    <glyph glyph-name="multiply" unicode="&#xd7;" horiz-adv-x="510" 
d="M436 415l-115 -115l116 -116q10 -10 10 -19q0 -12 -22.5 -35t-35.5 -23q-10 0 -19 10l-116 116l-115 -115q-9 -10 -19 -10q-12 0 -35 22t-23 35q0 11 10 20l115 115l-114 114q-10 9 -10 20q0 12 22 35t35 23q9 0 20 -11l114 -114l115 115q9 11 20 11q12 0 35 -23t23 -35
q0 -11 -11 -20z" />
    <glyph glyph-name="Oslash" unicode="&#xd8;" 
d="M89 82l18 24q-71 93 -71 230q0 165 93.5 268t244.5 103q93 0 166 -45l24 31q48 12 125 12l-78 -103q78 -96 78 -238q0 -165 -94 -268t-246 -103q-92 0 -166 44l-24 -32q-29 -10 -81 -10q-27 0 -27 19q0 20 38 68zM523 347q0 64 -14 120l-250 -330q44 -57 107 -57
q70 0 113.5 74t43.5 193zM201 353q0 -61 12 -112l250 323q-44 56 -105 56q-70 0 -113.5 -74t-43.5 -193z" />
    <glyph glyph-name="Ugrave" unicode="&#xd9;" horiz-adv-x="726" 
d="M63 258v292q0 74 -12 141q61 14 158 14q8 -56 8 -148v-286q0 -85 41.5 -138t107.5 -53q64 0 103.5 51.5t39.5 134.5v284q0 77 -8 141q61 14 154 14q8 -56 8 -148v-275q0 -129 -86.5 -209t-226.5 -80q-128 0 -207.5 73.5t-79.5 191.5zM249 863q23 49 47 76q40 -28 108 -86
q52 -43 73 -44q-7 -67 -40 -67q-14 0 -32 12q-20 12 -77.5 58t-78.5 51z" />
    <glyph glyph-name="Uacute" unicode="&#xda;" horiz-adv-x="726" 
d="M63 258v292q0 74 -12 141q61 14 158 14q8 -56 8 -148v-286q0 -85 41.5 -138t107.5 -53q64 0 103.5 51.5t39.5 134.5v284q0 77 -8 141q61 14 154 14q8 -56 8 -148v-275q0 -129 -86.5 -209t-226.5 -80q-128 0 -207.5 73.5t-79.5 191.5zM284 735l-18 22q-10 13 -10 26
q0 19 25 41q106 88 143 115q27 -31 46 -76q-111 -89 -186 -128z" />
    <glyph glyph-name="Ucircumflex" unicode="&#xdb;" horiz-adv-x="726" 
d="M63 258v292q0 74 -12 141q61 14 158 14q8 -56 8 -148v-286q0 -85 41.5 -138t107.5 -53q64 0 103.5 51.5t39.5 134.5v284q0 77 -8 141q61 14 154 14q8 -56 8 -148v-275q0 -129 -86.5 -209t-226.5 -80q-128 0 -207.5 73.5t-79.5 191.5zM229 748l-17 22q-11 13 -11 26
q0 20 26 42q96 80 125 100q44 -31 98 -77q51 -43 73 -44q-2 -20 -15 -43.5t-32 -23.5q-15 0 -40 15q-16 10 -46 34l-40 32q-72 -56 -121 -83z" />
    <glyph glyph-name="Udieresis" unicode="&#xdc;" horiz-adv-x="726" 
d="M63 258v292q0 74 -12 141q61 14 158 14q8 -56 8 -148v-286q0 -85 41.5 -138t107.5 -53q64 0 103.5 51.5t39.5 134.5v284q0 77 -8 141q61 14 154 14q8 -56 8 -148v-275q0 -129 -86.5 -209t-226.5 -80q-128 0 -207.5 73.5t-79.5 191.5zM181 818q0 32 21 53t54 21
q30 0 48.5 -18.5t18.5 -48.5q0 -33 -21 -53.5t-54 -20.5q-30 0 -48.5 19t-18.5 48zM402 818q0 32 21 53t55 21q29 0 47.5 -18.5t18.5 -48.5q0 -33 -21 -53.5t-54 -20.5q-30 0 -48.5 19t-18.5 48z" />
    <glyph glyph-name="Yacute" unicode="&#xdd;" horiz-adv-x="702" 
d="M270 82v219l-153 249q-43 69 -100 141q61 14 172 14q39 -50 100 -148l78 -125l74 121q53 87 78 147q46 5 143 5q-19 -53 -48 -100l-190 -307v-199q0 -37 4.5 -55t18.5 -28q-46 -21 -115 -21q-62 0 -62 87zM272 735l-18 22q-10 13 -10 26q0 19 25 41q106 88 143 115
q27 -31 46 -76q-111 -89 -186 -128z" />
    <glyph glyph-name="Thorn" unicode="&#xde;" horiz-adv-x="600" 
d="M63 82v468q0 74 -12 141q61 14 158 14q7 -52 8 -112h87q117 0 189 -59.5t72 -156.5q0 -103 -79 -167t-207 -64h-62v-47q0 -66 13 -83q-42 -21 -108 -21q-27 0 -43 18t-16 69zM288 508h-71v-278h79q50 0 81 38t31 99q0 63 -33.5 102t-86.5 39z" />
    <glyph glyph-name="germandbls" unicode="&#xdf;" horiz-adv-x="669" 
d="M61 82v423q0 102 67.5 164.5t182.5 62.5q100 0 155 -43.5t55 -97.5q0 -31 -17 -62t-38 -53t-38 -50t-17 -52t24 -43t58 -34.5t68 -33.5t58 -50t24 -75q0 -65 -53.5 -105t-142.5 -40q-87 0 -136 26t-49 67q0 62 105 62q7 -32 24.5 -52.5t43.5 -20.5q25 0 42 14t17 35
q0 25 -23.5 46t-57 37.5t-66.5 35.5t-56.5 50t-23.5 72q0 32 17 62t38 50t38 47t17 52q0 31 -21.5 52.5t-51.5 21.5q-41 0 -67.5 -35.5t-26.5 -91.5v-424q0 -62 13 -86q-38 -18 -102 -18q-60 0 -60 87z" />
    <glyph glyph-name="agrave" unicode="&#xe0;" horiz-adv-x="530" 
d="M319 82v12q-32 -101 -141 -101q-65 0 -105 34.5t-40 90.5q0 75 79.5 120t206.5 58v26q0 38 -21 60.5t-56 22.5q-33 0 -55 -25t-22 -59q-116 0 -116 63q0 41 61.5 72t157.5 31q91 0 145 -43t54 -113v-232q0 -65 24 -83q-46 -21 -113 -21q-27 0 -43 18t-16 69zM150 663
q23 49 47 76q40 -28 108 -86q52 -43 73 -44q-7 -67 -40 -67q-14 0 -32 12q-20 12 -77.5 58t-78.5 51zM319 231q-66 -7 -101.5 -32t-35.5 -66q0 -24 15 -38.5t38 -14.5q29 0 56 34t28 78v39z" />
    <glyph glyph-name="aacute" unicode="&#xe1;" horiz-adv-x="530" 
d="M319 82v12q-32 -101 -141 -101q-65 0 -105 34.5t-40 90.5q0 75 79.5 120t206.5 58v26q0 38 -21 60.5t-56 22.5q-33 0 -55 -25t-22 -59q-116 0 -116 63q0 41 61.5 72t157.5 31q91 0 145 -43t54 -113v-232q0 -65 24 -83q-46 -21 -113 -21q-27 0 -43 18t-16 69zM185 535
l-18 22q-10 13 -10 26q0 19 25 41q106 88 143 115q27 -31 46 -76q-111 -89 -186 -128zM235 80q29 0 56 34t28 78v39q-66 -7 -101.5 -32t-35.5 -66q0 -24 15 -38.5t38 -14.5z" />
    <glyph glyph-name="acircumflex" unicode="&#xe2;" horiz-adv-x="530" 
d="M319 82v12q-32 -101 -141 -101q-65 0 -105 34.5t-40 90.5q0 75 79.5 120t206.5 58v26q0 38 -21 60.5t-56 22.5q-33 0 -55 -25t-22 -59q-116 0 -116 63q0 41 61.5 72t157.5 31q91 0 145 -43t54 -113v-232q0 -65 24 -83q-46 -21 -113 -21q-27 0 -43 18t-16 69zM131 548
l-17 22q-11 13 -11 26q0 20 26 42q96 80 125 100q44 -31 98 -77q51 -43 73 -44q-2 -20 -15 -43.5t-32 -23.5q-15 0 -40 15q-16 10 -46 34l-40 32q-72 -56 -121 -83zM319 197v34q-66 -7 -101.5 -32t-35.5 -66q0 -24 15 -38.5t38 -14.5q30 0 57 36t27 81z" />
    <glyph glyph-name="atilde" unicode="&#xe3;" horiz-adv-x="530" 
d="M319 82v12q-32 -101 -141 -101q-65 0 -105 34.5t-40 90.5q0 75 79.5 120t206.5 58v26q0 38 -21 60.5t-56 22.5q-33 0 -55 -25t-22 -59q-116 0 -116 63q0 41 61.5 72t157.5 31q91 0 145 -43t54 -113v-232q0 -65 24 -83q-46 -21 -113 -21q-27 0 -43 18t-16 69zM402 657
l19 -14q-14 -47 -41.5 -71t-59.5 -24q-18 0 -48 13.5t-55 13.5q-46 0 -76 -31q-34 21 -34 61q0 33 23.5 50t52.5 17q22 0 64 -16.5t62 -16.5q22 0 41 16t25 16q5 0 27 -14zM319 231q-66 -7 -101.5 -32t-35.5 -66q0 -24 15 -38.5t38 -14.5q29 0 56 34t28 78v39z" />
    <glyph glyph-name="adieresis" unicode="&#xe4;" horiz-adv-x="530" 
d="M319 82v12q-32 -101 -141 -101q-65 0 -105 34.5t-40 90.5q0 75 79.5 120t206.5 58v26q0 38 -21 60.5t-56 22.5q-33 0 -55 -25t-22 -59q-116 0 -116 63q0 41 61.5 72t157.5 31q91 0 145 -43t54 -113v-232q0 -65 24 -83q-46 -21 -113 -21q-27 0 -43 18t-16 69zM82 618
q0 32 21 53t54 21q30 0 48.5 -18.5t18.5 -48.5q0 -33 -21 -53.5t-54 -20.5q-30 0 -48.5 19t-18.5 48zM303 618q0 32 21 53t55 21q29 0 47.5 -18.5t18.5 -48.5q0 -33 -21 -53.5t-54 -20.5q-30 0 -48.5 19t-18.5 48zM235 80q29 0 56 34t28 78v39q-66 -7 -101.5 -32t-35.5 -66
q0 -24 15 -38.5t38 -14.5z" />
    <glyph glyph-name="aring" unicode="&#xe5;" horiz-adv-x="530" 
d="M319 82v12q-32 -101 -141 -101q-65 0 -105 34.5t-40 90.5q0 75 79.5 120t206.5 58v26q0 38 -21 60.5t-56 22.5q-33 0 -55 -25t-22 -59q-116 0 -116 63q0 41 61.5 72t157.5 31q91 0 145 -43t54 -113v-232q0 -65 24 -83q-46 -21 -113 -21q-27 0 -43 18t-16 69zM162 635
q0 44 30.5 72t79.5 28q44 0 70 -25t26 -66q0 -44 -30.5 -72t-79.5 -28q-43 0 -69.5 25t-26.5 66zM319 231q-66 -7 -101.5 -32t-35.5 -66q0 -24 15 -38.5t38 -14.5q29 0 56 34t28 78v39zM233 641q0 -23 9.5 -37t24.5 -14q14 0 22.5 13t8.5 35t-10 36t-25 14q-13 0 -21.5 -13
t-8.5 -34z" />
    <glyph glyph-name="ae" unicode="&#xe6;" horiz-adv-x="794" 
d="M736 223h-267q5 -67 35 -107.5t77 -40.5q28 0 50 7.5t32.5 16t21 16t17.5 7.5q13 0 31 -11l22 -13q-23 -44 -75.5 -74.5t-117.5 -30.5q-124 0 -188 86q-54 -86 -175 -86q-74 0 -120 34.5t-46 90.5q0 75 79 119.5t207 57.5v27q0 38 -21 60.5t-56 22.5q-33 0 -55 -25
t-22 -59q-116 0 -116 63q0 41 59.5 72t152.5 31q99 0 151 -54q60 54 150 54q98 0 149 -52t51 -143q-1 -38 -26 -69zM242 80q45 0 77 52v99q-137 -14 -137 -98q0 -24 16.5 -38.5t43.5 -14.5zM547 405q-28 0 -48 -29t-28 -78h145q-9 107 -69 107z" />
    <glyph glyph-name="ccedilla" unicode="&#xe7;" horiz-adv-x="506" 
d="M196 245q0 -76 29 -123t76 -47q28 0 49.5 7.5t31.5 16t20 16t17 7.5q10 0 30 -10l22 -13q-20 -39 -64 -68t-101 -36q1 -15 12.5 -27.5t25 -20t24 -22t10.5 -32.5q0 -40 -29 -64.5t-77 -24.5q-35 0 -66 14l6 23q5 16 10.5 22.5t18.5 6.5q3 0 11 -1.5t16 -1.5q29 0 29 30
q0 8 -9.5 16t-20.5 15t-20.5 24.5t-10.5 42.5q-94 10 -148.5 73t-54.5 159q0 117 70 188.5t187 71.5q79 0 127.5 -33.5t48.5 -78.5q0 -55 -110 -55q-6 37 -24 61t-44 24q-40 0 -66 -44.5t-26 -115.5z" />
    <glyph glyph-name="egrave" unicode="&#xe8;" horiz-adv-x="517" 
d="M33 227q0 115 67.5 187.5t174.5 72.5q103 0 156 -52t53 -143q-1 -39 -25 -69h-268q5 -67 35.5 -107.5t76.5 -40.5q36 0 61 11.5t38.5 23.5t22.5 12q13 0 30 -11l23 -13q-24 -44 -78.5 -74.5t-123.5 -30.5q-111 0 -177 64.5t-66 169.5zM144 663q23 49 47 76
q40 -28 108 -86q52 -43 73 -44q-7 -67 -40 -67q-14 0 -32 12q-20 12 -77.5 58t-78.5 51zM269 405q-27 0 -47 -29t-28 -78h145q-9 107 -70 107z" />
    <glyph glyph-name="eacute" unicode="&#xe9;" horiz-adv-x="517" 
d="M33 227q0 115 67.5 187.5t174.5 72.5q103 0 156 -52t53 -143q-1 -39 -25 -69h-268q5 -67 35.5 -107.5t76.5 -40.5q36 0 61 11.5t38.5 23.5t22.5 12q13 0 30 -11l23 -13q-24 -44 -78.5 -74.5t-123.5 -30.5q-111 0 -177 64.5t-66 169.5zM179 535l-18 22q-10 13 -10 26
q0 19 25 41q106 88 143 115q27 -31 46 -76q-111 -89 -186 -128zM269 405q-27 0 -47 -29t-28 -78h145q-9 107 -70 107z" />
    <glyph glyph-name="ecircumflex" unicode="&#xea;" horiz-adv-x="517" 
d="M33 227q0 115 67.5 187.5t174.5 72.5q103 0 156 -52t53 -143q-1 -39 -25 -69h-268q5 -67 35.5 -107.5t76.5 -40.5q36 0 61 11.5t38.5 23.5t22.5 12q13 0 30 -11l23 -13q-24 -44 -78.5 -74.5t-123.5 -30.5q-111 0 -177 64.5t-66 169.5zM127 548l-17 22q-11 13 -11 26
q0 20 26 42q96 80 125 100q44 -31 98 -77q51 -43 73 -44q-2 -20 -15 -43.5t-32 -23.5q-15 0 -40 15q-16 10 -46 34l-40 32q-72 -56 -121 -83zM269 405q-27 0 -47 -29t-28 -78h145q-9 107 -70 107z" />
    <glyph glyph-name="edieresis" unicode="&#xeb;" horiz-adv-x="517" 
d="M33 227q0 115 67.5 187.5t174.5 72.5q103 0 156 -52t53 -143q-1 -39 -25 -69h-268q5 -67 35.5 -107.5t76.5 -40.5q36 0 61 11.5t38.5 23.5t22.5 12q13 0 30 -11l23 -13q-24 -44 -78.5 -74.5t-123.5 -30.5q-111 0 -177 64.5t-66 169.5zM77 618q0 32 21 53t54 21
q30 0 48.5 -18.5t18.5 -48.5q0 -33 -21 -53.5t-54 -20.5q-30 0 -48.5 19t-18.5 48zM298 618q0 32 21 53t55 21q29 0 47.5 -18.5t18.5 -48.5q0 -33 -21 -53.5t-54 -20.5q-30 0 -48.5 19t-18.5 48zM269 405q-27 0 -47 -29t-28 -78h145q-9 107 -70 107z" />
    <glyph glyph-name="igrave" unicode="&#xec;" horiz-adv-x="272" 
d="M25 663q23 49 47 76q40 -28 108 -86q52 -43 73 -44q-7 -67 -40 -67q-14 0 -32 12q-20 12 -77.5 58t-78.5 51zM61 82v248q0 75 -12 141q61 14 153 14q8 -56 8 -148v-238q0 -65 23 -83q-46 -21 -112 -21q-60 0 -60 87z" />
    <glyph glyph-name="iacute" unicode="&#xed;" horiz-adv-x="272" 
d="M57 535l-18 22q-10 13 -10 26q0 19 25 41q106 88 143 115q27 -31 46 -76q-111 -89 -186 -128zM61 82v248q0 75 -12 141q61 14 153 14q8 -56 8 -148v-238q0 -65 23 -83q-46 -21 -112 -21q-60 0 -60 87z" />
    <glyph glyph-name="icircumflex" unicode="&#xee;" horiz-adv-x="272" 
d="M61 82v248q0 75 -12 141q61 14 153 14q8 -56 8 -148v-238q0 -65 23 -83q-46 -21 -112 -21q-60 0 -60 87zM3 548l-17 22q-11 13 -11 26q0 20 26 42q96 80 125 100q44 -31 98 -77q51 -43 73 -44q-2 -20 -15 -43.5t-32 -23.5q-15 0 -40 15q-16 10 -46 34l-40 32
q-72 -56 -121 -83z" />
    <glyph glyph-name="idieresis" unicode="&#xef;" horiz-adv-x="272" 
d="M-44 618q0 32 21 53t54 21q30 0 48.5 -18.5t18.5 -48.5q0 -33 -21 -53.5t-54 -20.5q-30 0 -48.5 19t-18.5 48zM177 618q0 32 21 53t55 21q29 0 47.5 -18.5t18.5 -48.5q0 -33 -21 -53.5t-54 -20.5q-30 0 -48.5 19t-18.5 48zM61 82v248q0 75 -12 141q61 14 153 14
q8 -56 8 -148v-238q0 -65 23 -83q-46 -21 -112 -21q-60 0 -60 87z" />
    <glyph glyph-name="eth" unicode="&#xf0;" horiz-adv-x="551" 
d="M213 521l-18 21q-10 15 -10 27q0 19 25 41l27 22q-18 13 -40 24t-32.5 16.5t-10.5 11.5q0 14 12 29l16 19q72 -19 125 -46q56 42 79 58q24 -27 47 -76q-23 -18 -47 -35q129 -116 132 -370v-10q0 -116 -71.5 -188t-186.5 -72q-101 0 -164 65t-63 169q0 116 71.5 188
t186.5 72q23 0 48 -5q-19 51 -44 88q-52 -34 -82 -49zM194 245q0 -76 24.5 -123t62.5 -47q34 0 54.5 44.5t20.5 115.5q0 76 -24 123t-62 47q-34 0 -55 -44t-21 -116z" />
    <glyph glyph-name="ntilde" unicode="&#xf1;" horiz-adv-x="573" 
d="M363 82v233q0 40 -15.5 65t-38.5 25q-35 0 -67 -48.5t-32 -108.5v-149q0 -62 13 -86q-38 -18 -102 -18q-60 0 -60 87v248q0 74 -12 141q61 14 144 14q17 -48 17 -102q20 50 66.5 77t108.5 27q56 0 91.5 -39.5t35.5 -101.5v-247q0 -65 23 -83q-46 -21 -112 -21
q-60 0 -60 87zM425 657l19 -14q-14 -47 -41.5 -71t-59.5 -24q-18 0 -48 13.5t-55 13.5q-46 0 -76 -31q-34 21 -34 61q0 33 23.5 50t52.5 17q22 0 64 -16.5t62 -16.5q22 0 41 16t25 16q5 0 27 -14z" />
    <glyph glyph-name="ograve" unicode="&#xf2;" horiz-adv-x="551" 
d="M33 227q0 116 71.5 188t186.5 72q102 0 164.5 -65t62.5 -169q0 -116 -71.5 -188t-186.5 -72q-101 0 -164 65t-63 169zM194 245q0 -76 24.5 -123t62.5 -47q34 0 54.5 44.5t20.5 115.5q0 76 -24 123t-62 47q-34 0 -55 -44t-21 -116zM161 663q23 49 47 76q40 -28 108 -86
q52 -43 73 -44q-7 -67 -40 -67q-14 0 -32 12q-20 12 -77.5 58t-78.5 51z" />
    <glyph glyph-name="oacute" unicode="&#xf3;" horiz-adv-x="551" 
d="M33 227q0 116 71.5 188t186.5 72q102 0 164.5 -65t62.5 -169q0 -116 -71.5 -188t-186.5 -72q-101 0 -164 65t-63 169zM194 245q0 -76 24.5 -123t62.5 -47q34 0 54.5 44.5t20.5 115.5q0 76 -24 123t-62 47q-34 0 -55 -44t-21 -116zM197 535l-18 22q-10 13 -10 26
q0 19 25 41q106 88 143 115q27 -31 46 -76q-111 -89 -186 -128z" />
    <glyph glyph-name="ocircumflex" unicode="&#xf4;" horiz-adv-x="551" 
d="M33 227q0 116 71.5 188t186.5 72q102 0 164.5 -65t62.5 -169q0 -116 -71.5 -188t-186.5 -72q-101 0 -164 65t-63 169zM194 245q0 -76 24.5 -123t62.5 -47q34 0 54.5 44.5t20.5 115.5q0 76 -24 123t-62 47q-34 0 -55 -44t-21 -116zM142 548l-17 22q-11 13 -11 26
q0 20 26 42q96 80 125 100q44 -31 98 -77q51 -43 73 -44q-2 -20 -15 -43.5t-32 -23.5q-15 0 -40 15q-16 10 -46 34l-40 32q-72 -56 -121 -83z" />
    <glyph glyph-name="otilde" unicode="&#xf5;" horiz-adv-x="551" 
d="M33 227q0 116 71.5 188t186.5 72q102 0 164.5 -65t62.5 -169q0 -116 -71.5 -188t-186.5 -72q-101 0 -164 65t-63 169zM194 245q0 -76 24.5 -123t62.5 -47q34 0 54.5 44.5t20.5 115.5q0 76 -24 123t-62 47q-34 0 -55 -44t-21 -116zM413 657l19 -14q-14 -47 -41.5 -71
t-59.5 -24q-18 0 -48 13.5t-55 13.5q-46 0 -76 -31q-34 21 -34 61q0 33 23.5 50t52.5 17q22 0 64 -16.5t62 -16.5q22 0 41 16t25 16q5 0 27 -14z" />
    <glyph glyph-name="odieresis" unicode="&#xf6;" horiz-adv-x="551" 
d="M33 227q0 116 71.5 188t186.5 72q102 0 164.5 -65t62.5 -169q0 -116 -71.5 -188t-186.5 -72q-101 0 -164 65t-63 169zM194 245q0 -76 24.5 -123t62.5 -47q34 0 54.5 44.5t20.5 115.5q0 76 -24 123t-62 47q-34 0 -55 -44t-21 -116zM93 618q0 32 21 53t54 21
q30 0 48.5 -18.5t18.5 -48.5q0 -33 -21 -53.5t-54 -20.5q-30 0 -48.5 19t-18.5 48zM314 618q0 32 21 53t55 21q29 0 47.5 -18.5t18.5 -48.5q0 -33 -21 -53.5t-54 -20.5q-30 0 -48.5 19t-18.5 48z" />
    <glyph glyph-name="divide" unicode="&#xf7;" horiz-adv-x="529" 
d="M404 283h-211q-77 0 -141 -13q-14 40 -14 88q56 4 148 4h201q65 0 84 14q20 -30 20 -61q0 -32 -87 -32zM190 143q0 34 22.5 55.5t57.5 21.5q31 0 50 -19t19 -50q0 -35 -22 -56.5t-58 -21.5q-30 0 -49.5 19.5t-19.5 50.5zM191 492q0 34 22 55.5t57 21.5q31 0 50 -19
t19 -50q0 -35 -22 -56t-58 -21q-30 0 -49 19t-19 50z" />
    <glyph glyph-name="oslash" unicode="&#xf8;" horiz-adv-x="551" 
d="M33 227q0 116 71.5 188t186.5 72q62 0 113 -27l12 15q37 12 99 12l-55 -70q58 -64 58 -164q0 -116 -71.5 -188t-186.5 -72q-58 0 -109 24l-9 -12q-21 -10 -60 -10q-20 0 -20 19q0 18 26 52q-55 64 -55 161zM185 245q0 -32 4 -53l142 177q-27 36 -62 36q-37 0 -60.5 -44.5
t-23.5 -115.5zM365 235q0 19 -4 53l-140 -180q25 -33 61 -33q37 0 60 44.5t23 115.5z" />
    <glyph glyph-name="ugrave" unicode="&#xf9;" horiz-adv-x="573" 
d="M210 337v-167q0 -42 15.5 -68.5t39.5 -26.5q34 0 65 46t33 107v102q0 68 -7 145q52 10 148 10q8 -56 8 -148v-238q0 -65 23 -83q-46 -21 -112 -21q-60 0 -60 87v14q-20 -49 -66.5 -76t-107.5 -27q-56 0 -92 41.5t-36 106.5v189q0 74 -12 141q61 14 153 14q8 -56 8 -148z
M172 663q23 49 47 76q40 -28 108 -86q52 -43 73 -44q-7 -67 -40 -67q-14 0 -32 12q-20 12 -77.5 58t-78.5 51z" />
    <glyph glyph-name="uacute" unicode="&#xfa;" horiz-adv-x="573" 
d="M210 337v-167q0 -42 15.5 -68.5t39.5 -26.5q34 0 65 46t33 107v102q0 68 -7 145q52 10 148 10q8 -56 8 -148v-238q0 -65 23 -83q-46 -21 -112 -21q-60 0 -60 87v14q-20 -49 -66.5 -76t-107.5 -27q-56 0 -92 41.5t-36 106.5v189q0 74 -12 141q61 14 153 14q8 -56 8 -148z
M207 535l-18 22q-10 13 -10 26q0 19 25 41q105 88 143 115q27 -31 46 -76q-111 -89 -186 -128z" />
    <glyph glyph-name="ucircumflex" unicode="&#xfb;" horiz-adv-x="573" 
d="M210 337v-167q0 -42 15.5 -68.5t39.5 -26.5q34 0 65 46t33 107v102q0 68 -7 145q52 10 148 10q8 -56 8 -148v-238q0 -65 23 -83q-46 -21 -112 -21q-60 0 -60 87v14q-20 -49 -66.5 -76t-107.5 -27q-56 0 -92 41.5t-36 106.5v189q0 74 -12 141q61 14 153 14q8 -56 8 -148z
M154 548l-17 22q-11 13 -11 26q0 20 26 42q96 80 125 100q44 -31 98 -77q51 -43 73 -44q-2 -20 -15 -43.5t-32 -23.5q-15 0 -40 15q-16 10 -46 34l-40 32q-72 -56 -121 -83z" />
    <glyph glyph-name="udieresis" unicode="&#xfc;" horiz-adv-x="573" 
d="M210 337v-167q0 -42 15.5 -68.5t39.5 -26.5q35 0 66.5 49t31.5 111v95q0 68 -7 145q52 10 148 10q8 -56 8 -148v-238q0 -65 23 -83q-46 -21 -112 -21q-60 0 -60 87v14q-20 -49 -66.5 -76t-107.5 -27q-56 0 -92 41.5t-36 106.5v189q0 74 -12 141q61 14 153 14
q8 -56 8 -148zM104 618q0 32 21 53t54 21q30 0 48.5 -18.5t18.5 -48.5q0 -33 -21 -53.5t-54 -20.5q-30 0 -48.5 19t-18.5 48zM325 618q0 32 21 53t55 21q29 0 47.5 -18.5t18.5 -48.5q0 -33 -21 -53.5t-54 -20.5q-30 0 -48.5 19t-18.5 48z" />
    <glyph glyph-name="yacute" unicode="&#xfd;" horiz-adv-x="561" 
d="M233 -25l9 24q-32 14 -56 83l-96 248q-27 71 -66 141q61 14 147 14q37 -61 52 -103l75 -230l66 178q23 63 38 147q45 5 132 5q-13 -54 -45 -145l-125 -344q-40 -112 -97.5 -168.5t-126.5 -56.5q-33 0 -53 22t-20 60q121 0 166 125zM201 535l-18 22q-10 13 -10 26
q0 19 25 41q105 88 143 115q27 -31 46 -76q-111 -89 -186 -128z" />
    <glyph glyph-name="thorn" unicode="&#xfe;" horiz-adv-x="556" 
d="M61 -145v720q0 74 -12 141q61 14 144 14q17 -48 17 -102v-247q33 106 138 106q78 0 126.5 -60.5t48.5 -158.5q0 -123 -65 -199t-172 -76q-45 0 -76 20v-140q0 -61 13 -87q-38 -18 -102 -18q-60 0 -60 87zM289 405q-29 0 -53.5 -47.5t-25.5 -109.5v-152q28 -21 71 -21
q36 0 57.5 48t21.5 126q0 70 -19.5 113t-51.5 43z" />
    <glyph glyph-name="ydieresis" unicode="&#xff;" horiz-adv-x="561" 
d="M233 -25l9 24q-32 14 -56 83l-96 248q-27 71 -66 141q61 14 147 14q37 -61 52 -103l75 -230l66 178q23 63 38 147q45 5 132 5q-13 -54 -45 -145l-125 -344q-40 -112 -97.5 -168.5t-126.5 -56.5q-33 0 -53 22t-20 60q121 0 166 125zM98 618q0 32 21 53t54 21
q30 0 48.5 -18.5t18.5 -48.5q0 -33 -21 -53.5t-54 -20.5q-30 0 -48.5 19t-18.5 48zM319 618q0 32 21 53t55 21q29 0 47.5 -18.5t18.5 -48.5q0 -33 -21 -53.5t-54 -20.5q-30 0 -48.5 19t-18.5 48z" />
    <glyph glyph-name="Amacron" unicode="&#x100;" 
d="M511 82l-39 102h-257l-31 -85q-20 -56 -20 -83q-46 -21 -101 -21q-31 0 -31 26q0 23 15 61l183 468q24 59 41 141q56 14 156 14q31 -59 64 -148l176 -458q15 -38 26.5 -55.5t28.5 -27.5q-38 -21 -112 -21q-67 0 -99 87zM342 523l-95 -255h193zM446 786h-79
q-76 0 -141 -12q-14 38 -14 79q56 4 148 4h69q65 0 84 13q20 -28 20 -54q0 -30 -87 -30z" />
    <glyph glyph-name="amacron" unicode="&#x101;" horiz-adv-x="530" 
d="M319 82v12q-32 -101 -141 -101q-65 0 -105 34.5t-40 90.5q0 75 79.5 120t206.5 58v26q0 38 -21 60.5t-56 22.5q-33 0 -55 -25t-22 -59q-116 0 -116 63q0 41 61.5 72t157.5 31q91 0 145 -43t54 -113v-232q0 -65 24 -83q-46 -21 -113 -21q-27 0 -43 18t-16 69zM336 586h-79
q-76 0 -141 -12q-14 38 -14 79q56 4 148 4h69q64 0 84 13q20 -28 20 -54q0 -30 -87 -30zM319 231q-66 -7 -101.5 -32t-35.5 -66q0 -24 15 -38.5t38 -14.5q29 0 56 34t28 78v39z" />
    <glyph glyph-name="Abreve" unicode="&#x102;" 
d="M511 82l-39 102h-257l-31 -85q-20 -56 -20 -83q-46 -21 -101 -21q-31 0 -31 26q0 23 15 61l183 468q24 59 41 141q56 14 156 14q31 -59 64 -148l176 -458q15 -38 26.5 -55.5t28.5 -27.5q-38 -21 -112 -21q-67 0 -99 87zM389 821q20 0 36 8t24.5 17.5t16.5 17.5t14 8
q4 0 26 -10l22 -13q-19 -46 -63.5 -77.5t-99.5 -31.5q-67 0 -108 26.5t-41 61.5q0 48 91 48q7 -24 28.5 -39.5t53.5 -15.5zM342 523l-95 -255h193z" />
    <glyph glyph-name="abreve" unicode="&#x103;" horiz-adv-x="530" 
d="M319 82v12q-32 -101 -141 -101q-65 0 -105 34.5t-40 90.5q0 75 79.5 120t206.5 58v26q0 38 -21 60.5t-56 22.5q-33 0 -55 -25t-22 -59q-116 0 -116 63q0 41 61.5 72t157.5 31q91 0 145 -43t54 -113v-232q0 -65 24 -83q-46 -21 -113 -21q-27 0 -43 18t-16 69zM281 621
q20 0 36 8t24.5 17.5t16.5 17.5t14 8q4 0 26 -10l22 -13q-19 -46 -63.5 -77.5t-99.5 -31.5q-67 0 -108 26.5t-41 61.5q0 48 91 48q7 -24 28.5 -39.5t53.5 -15.5zM319 231q-66 -7 -101.5 -32t-35.5 -66q0 -24 15 -38.5t38 -14.5q29 0 56 34t28 78v39z" />
    <glyph glyph-name="Aogonek" unicode="&#x104;" 
d="M511 82l-39 102h-257l-31 -85q-20 -56 -20 -83q-46 -21 -101 -21q-31 0 -31 26q0 23 15 61l183 468q24 59 41 141q56 14 156 14q31 -59 64 -148l176 -458q15 -38 26.5 -55.5t28.5 -27.5q-21 -12 -66 -18q-44 -49 -44 -100q0 -13 8 -22t21 -9q8 0 16 1.5t11 1.5
q13 0 18.5 -6.5t10.5 -22.5l7 -23q-33 -14 -67 -14q-49 0 -77 23.5t-28 63.5q0 67 57 106q-50 9 -78 85zM342 523l-95 -255h193z" />
    <glyph glyph-name="aogonek" unicode="&#x105;" horiz-adv-x="530" 
d="M319 82v12q-32 -101 -141 -101q-65 0 -105 34.5t-40 90.5q0 75 79.5 120t206.5 58v26q0 38 -21 60.5t-56 22.5q-33 0 -55 -25t-22 -59q-116 0 -116 63q0 41 61.5 72t157.5 31q91 0 145 -43t54 -113v-232q0 -65 24 -83q-26 -12 -69 -18q-44 -49 -44 -100q0 -13 8 -22
t21 -9q8 0 16 1.5t11 1.5q13 0 18.5 -6.5t10.5 -22.5l7 -23q-33 -14 -67 -14q-49 0 -77 23.5t-28 63.5q0 67 58 107q-37 12 -37 84zM319 197v34q-66 -7 -101.5 -32t-35.5 -66q0 -24 15 -38.5t38 -14.5q30 0 57 36t27 81z" />
    <glyph glyph-name="Cacute" unicode="&#x106;" horiz-adv-x="658" 
d="M201 357q0 -124 50.5 -200.5t133.5 -76.5q45 0 78.5 9.5t49 21.5t32 21.5t29.5 9.5t30 -10l23 -14q-30 -53 -101 -89t-161 -36q-152 0 -240.5 93t-88.5 245q0 169 94 272.5t254 103.5q106 0 172 -39t66 -89q0 -62 -124 -62q-11 46 -42.5 74.5t-80.5 28.5
q-75 0 -124.5 -73.5t-49.5 -189.5zM289 735l-18 22q-10 13 -10 26q0 19 25 41q106 88 143 115q27 -31 46 -76q-111 -89 -186 -128z" />
    <glyph glyph-name="cacute" unicode="&#x107;" horiz-adv-x="506" 
d="M196 245q0 -76 29 -123t76 -47q28 0 49.5 7.5t31.5 16t20 16t17 7.5q10 0 30 -10l22 -13q-23 -45 -76.5 -75.5t-121.5 -30.5q-110 0 -175 64.5t-65 169.5q0 117 70 188.5t187 71.5q79 0 127.5 -33.5t48.5 -78.5q0 -55 -110 -55q-6 37 -24 61t-44 24q-40 0 -66 -44.5
t-26 -115.5zM193 535l-18 22q-10 13 -10 26q0 19 25 41q106 88 143 115q27 -31 46 -76q-111 -89 -186 -128z" />
    <glyph glyph-name="Ccircumflex" unicode="&#x108;" horiz-adv-x="658" 
d="M201 357q0 -124 50.5 -200.5t133.5 -76.5q45 0 78.5 9.5t49 21.5t32 21.5t29.5 9.5t30 -10l23 -14q-30 -53 -101 -89t-161 -36q-152 0 -240.5 93t-88.5 245q0 169 94 272.5t254 103.5q106 0 172 -39t66 -89q0 -62 -124 -62q-11 46 -42.5 74.5t-80.5 28.5
q-75 0 -124.5 -73.5t-49.5 -189.5zM235 748l-17 22q-11 13 -11 26q0 20 26 42q96 80 125 100q44 -31 98 -77q51 -43 73 -44q-2 -20 -15 -43.5t-32 -23.5q-15 0 -40 15q-16 10 -46 34l-40 32q-72 -56 -121 -83z" />
    <glyph glyph-name="ccircumflex" unicode="&#x109;" horiz-adv-x="506" 
d="M196 245q0 -76 29 -123t76 -47q28 0 49.5 7.5t31.5 16t20 16t17 7.5q10 0 30 -10l22 -13q-23 -45 -76.5 -75.5t-121.5 -30.5q-110 0 -175 64.5t-65 169.5q0 117 70 188.5t187 71.5q79 0 127.5 -33.5t48.5 -78.5q0 -55 -110 -55q-6 37 -24 61t-44 24q-40 0 -66 -44.5
t-26 -115.5zM140 548l-17 22q-11 13 -11 26q0 20 26 42q96 80 125 100q44 -31 98 -77q51 -43 73 -44q-2 -20 -15 -43.5t-32 -23.5q-15 0 -40 15q-16 10 -46 34l-40 32q-72 -56 -121 -83z" />
    <glyph glyph-name="Cdotaccent" unicode="&#x10a;" horiz-adv-x="658" 
d="M201 357q0 -124 50.5 -200.5t133.5 -76.5q45 0 78.5 9.5t49 21.5t32 21.5t29.5 9.5t30 -10l23 -14q-30 -53 -101 -89t-161 -36q-152 0 -240.5 93t-88.5 245q0 169 94 272.5t254 103.5q106 0 172 -39t66 -89q0 -62 -124 -62q-11 46 -42.5 74.5t-80.5 28.5
q-75 0 -124.5 -73.5t-49.5 -189.5zM296 825q0 33 21.5 54t55.5 21q30 0 48.5 -18.5t18.5 -49.5q0 -33 -21 -54t-55 -21q-31 0 -49.5 18.5t-18.5 49.5z" />
    <glyph glyph-name="cdotaccent" unicode="&#x10b;" horiz-adv-x="506" 
d="M196 245q0 -76 29 -123t76 -47q28 0 49.5 7.5t31.5 16t20 16t17 7.5q10 0 30 -10l22 -13q-23 -45 -76.5 -75.5t-121.5 -30.5q-110 0 -175 64.5t-65 169.5q0 117 70 188.5t187 71.5q79 0 127.5 -33.5t48.5 -78.5q0 -55 -110 -55q-6 37 -24 61t-44 24q-40 0 -66 -44.5
t-26 -115.5zM201 625q0 33 21.5 54t55.5 21q30 0 48.5 -18.5t18.5 -49.5q0 -33 -21 -54t-55 -21q-31 0 -49.5 18.5t-18.5 49.5z" />
    <glyph glyph-name="Ccaron" unicode="&#x10c;" horiz-adv-x="658" 
d="M201 357q0 -124 50.5 -200.5t133.5 -76.5q45 0 78.5 9.5t49 21.5t32 21.5t29.5 9.5t30 -10l23 -14q-30 -53 -101 -89t-161 -36q-152 0 -240.5 93t-88.5 245q0 169 94 272.5t254 103.5q106 0 172 -39t66 -89q0 -62 -124 -62q-11 46 -42.5 74.5t-80.5 28.5
q-75 0 -124.5 -73.5t-49.5 -189.5zM209 861q10 24 53 73q80 -53 116 -83q81 62 121 83l18 -22q10 -13 10 -26q0 -19 -25 -41q-98 -81 -125 -101q-19 12 -56 41.5t-66.5 50.5t-45.5 25z" />
    <glyph glyph-name="ccaron" unicode="&#x10d;" horiz-adv-x="506" 
d="M196 245q0 -76 29 -123t76 -47q28 0 49.5 7.5t31.5 16t20 16t17 7.5q10 0 30 -10l22 -13q-23 -45 -76.5 -75.5t-121.5 -30.5q-110 0 -175 64.5t-65 169.5q0 117 70 188.5t187 71.5q79 0 127.5 -33.5t48.5 -78.5q0 -55 -110 -55q-6 37 -24 61t-44 24q-40 0 -66 -44.5
t-26 -115.5zM114 661q10 24 53 73q80 -53 116 -83q81 62 121 83l18 -22q10 -13 10 -26q0 -19 -25 -41q-98 -81 -125 -101q-19 12 -56 41.5t-66.5 50.5t-45.5 25z" />
    <glyph glyph-name="Dcaron" unicode="&#x10e;" horiz-adv-x="706" 
d="M349 700q141 0 228 -93t87 -243q0 -162 -94 -263t-246 -101h-106q-77 0 -141 -8q-14 44 -14 85v468q0 75 -12 141q52 14 158 14h140zM217 84h124q70 0 113 73t43 190q0 119 -45.5 194t-118.5 75h-117q1 -21 1 -64v-468zM164 861q10 24 53 73q80 -53 116 -83q81 62 121 83
l18 -22q10 -13 10 -26q0 -19 -25 -41q-98 -81 -125 -101q-19 12 -56 41.5t-66.5 50.5t-45.5 25z" />
    <glyph glyph-name="dcaron" unicode="&#x10f;" horiz-adv-x="714" 
d="M328 716q63 14 154 14q8 -56 8 -148v-483q0 -37 4.5 -55t18.5 -28q-46 -21 -112 -21q-60 0 -60 87v20q-34 -109 -138 -109q-78 0 -126.5 60.5t-48.5 158.5q0 123 69.5 199t182.5 76q33 0 61 -13v101q0 75 -13 141zM258 75q31 0 57 50t26 113v143q-23 24 -63 24
q-39 0 -63 -48.5t-24 -125.5q0 -70 19 -113t48 -43zM575 502l-17 13q-17 15 -17 25q0 8 5 16t11.5 15t11.5 25.5t5 45.5q0 13 -6 37.5t-7 36.5q29 11 75 11q16 0 26.5 -10.5t10.5 -26.5q0 -143 -98 -188z" />
    <glyph glyph-name="Dcroat" unicode="&#x110;" horiz-adv-x="742" 
d="M385 700q141 0 228 -93t87 -243q0 -162 -94 -263t-246 -101h-106q-77 0 -140 -8q-15 41 -15 85v236q-34 -4 -52 -8q-14 40 -14 88l66 3v149q0 75 -12 141q50 12 148 14h150zM321 318h-68v-234h124q70 0 113.5 73t43.5 190q0 119 -46 194t-118 75h-118q1 -21 1 -64v-155
h51q65 0 83 14q21 -31 21 -61q0 -32 -87 -32z" />
    <glyph glyph-name="dcroat" unicode="&#x111;" horiz-adv-x="614" 
d="M493 549h-3v-450q0 -37 4.5 -55t18.5 -28q-46 -21 -112 -21q-60 0 -60 87v20q-34 -109 -138 -109q-78 0 -126.5 60.5t-48.5 158.5q0 123 69.5 199t182.5 76q33 0 61 -13v75q-75 -2 -136 -12q-14 47 -14 88q57 4 149 4q-3 34 -12 87q63 14 154 14q5 -40 7 -101q51 0 70 13
q20 -29 20 -60q0 -33 -86 -33zM258 75q31 0 57 50t26 113v143q-23 24 -63 24q-39 0 -63 -48.5t-24 -125.5q0 -70 19 -113t48 -43z" />
    <glyph glyph-name="Emacron" unicode="&#x112;" horiz-adv-x="592" 
d="M437 318h-220v-234h238q65 0 84 14q20 -25 20 -64q0 -34 -87 -34h-254q-77 0 -141 -8q-14 44 -14 85v473q0 76 -12 142q56 8 148 8h243q66 0 84 9q21 -24 21 -61q0 -32 -87 -32h-244q1 -19 1 -60v-154h203q65 0 84 9q20 -24 20 -61q0 -32 -87 -32zM369 786h-79
q-76 0 -141 -12q-14 38 -14 79q56 4 148 4h69q64 0 84 13q20 -28 20 -54q0 -30 -87 -30z" />
    <glyph glyph-name="emacron" unicode="&#x113;" horiz-adv-x="517" 
d="M33 227q0 115 67.5 187.5t174.5 72.5q103 0 156 -52t53 -143q-1 -39 -25 -69h-268q5 -67 35.5 -107.5t76.5 -40.5q36 0 61 11.5t38.5 23.5t22.5 12q13 0 30 -11l23 -13q-24 -44 -78.5 -74.5t-123.5 -30.5q-111 0 -177 64.5t-66 169.5zM332 586h-79q-76 0 -141 -12
q-14 38 -14 79q56 4 148 4h69q65 0 84 13q20 -28 20 -54q0 -30 -87 -30zM269 405q-27 0 -47 -29t-28 -78h145q-9 107 -70 107z" />
    <glyph glyph-name="Ebreve" unicode="&#x114;" horiz-adv-x="592" 
d="M437 318h-220v-234h238q65 0 84 14q20 -25 20 -64q0 -34 -87 -34h-254q-77 0 -141 -8q-14 44 -14 85v473q0 76 -12 142q56 8 148 8h243q66 0 84 9q21 -24 21 -61q0 -32 -87 -32h-244q1 -19 1 -60v-154h203q65 0 84 9q20 -24 20 -61q0 -32 -87 -32zM313 821q20 0 36 8
t24.5 17.5t16.5 17.5t14 8q4 0 26 -10l22 -13q-19 -46 -63.5 -77.5t-99.5 -31.5q-67 0 -108 26.5t-41 61.5q0 48 91 48q7 -24 28.5 -39.5t53.5 -15.5z" />
    <glyph glyph-name="ebreve" unicode="&#x115;" horiz-adv-x="517" 
d="M33 227q0 115 67.5 187.5t174.5 72.5q103 0 156 -52t53 -143q-1 -39 -25 -69h-268q5 -67 35.5 -107.5t76.5 -40.5q36 0 61 11.5t38.5 23.5t22.5 12q13 0 30 -11l23 -13q-24 -44 -78.5 -74.5t-123.5 -30.5q-111 0 -177 64.5t-66 169.5zM276 621q20 0 36 8t24.5 17.5
t16.5 17.5t14 8q3 0 26 -10l22 -13q-19 -46 -63.5 -77.5t-99.5 -31.5q-67 0 -108 26.5t-41 61.5q0 48 91 48q7 -24 28.5 -39.5t53.5 -15.5zM269 405q-27 0 -47 -29t-28 -78h145q-9 107 -70 107z" />
    <glyph glyph-name="Edotaccent" unicode="&#x116;" horiz-adv-x="592" 
d="M437 318h-220v-234h238q65 0 84 14q20 -25 20 -64q0 -34 -87 -34h-254q-77 0 -141 -8q-14 44 -14 85v473q0 76 -12 142q56 8 148 8h243q66 0 84 9q21 -24 21 -61q0 -32 -87 -32h-244q1 -19 1 -60v-154h203q65 0 84 9q20 -24 20 -61q0 -32 -87 -32zM224 825q0 33 21.5 54
t55.5 21q30 0 48.5 -18.5t18.5 -49.5q0 -33 -21 -54t-55 -21q-31 0 -49.5 18.5t-18.5 49.5z" />
    <glyph glyph-name="edotaccent" unicode="&#x117;" horiz-adv-x="517" 
d="M33 227q0 115 67.5 187.5t174.5 72.5q103 0 156 -52t53 -143q-1 -39 -25 -69h-268q5 -67 35.5 -107.5t76.5 -40.5q36 0 61 11.5t38.5 23.5t22.5 12q13 0 30 -11l23 -13q-24 -44 -78.5 -74.5t-123.5 -30.5q-111 0 -177 64.5t-66 169.5zM187 625q0 33 21.5 54t55.5 21
q30 0 48.5 -18.5t18.5 -49.5q0 -33 -21 -54t-55 -21q-31 0 -49.5 18.5t-18.5 49.5zM269 405q-27 0 -47 -29t-28 -78h145q-9 107 -70 107z" />
    <glyph glyph-name="Eogonek" unicode="&#x118;" horiz-adv-x="592" 
d="M437 318h-220v-234h238q65 0 84 14q20 -25 20 -64q0 -34 -84 -34q-46 -52 -46 -102q0 -13 8 -22t21 -9q8 0 16 1.5t11 1.5q13 0 18.5 -6.5t10.5 -22.5l7 -23q-33 -14 -67 -14q-49 0 -77 23.5t-28 63.5q0 68 62 109h-193q-77 0 -141 -8q-14 44 -14 85v473q0 76 -12 142
q56 8 148 8h243q66 0 84 9q21 -24 21 -61q0 -32 -87 -32h-244q1 -19 1 -60v-154h203q65 0 84 9q20 -24 20 -61q0 -32 -87 -32z" />
    <glyph glyph-name="eogonek" unicode="&#x119;" horiz-adv-x="517" 
d="M33 227q0 115 67.5 187.5t174.5 72.5q103 0 156 -52t53 -143q-1 -39 -25 -69h-268q5 -67 35.5 -107.5t76.5 -40.5q36 0 61 11.5t38.5 23.5t22.5 12q13 0 30 -11l23 -13q-19 -35 -57.5 -62t-88.5 -37q-45 -51 -45 -101q0 -13 8 -22t21 -9q8 0 16 1.5t11 1.5
q13 0 18.5 -6.5t10.5 -22.5l7 -23q-33 -14 -67 -14q-49 0 -77 23.5t-28 63.5q0 64 52 103q-104 4 -165 68t-61 165zM269 405q-27 0 -47 -29t-28 -78h145q-9 107 -70 107z" />
    <glyph glyph-name="Ecaron" unicode="&#x11a;" horiz-adv-x="592" 
d="M437 318h-220v-234h238q65 0 84 14q20 -25 20 -64q0 -34 -87 -34h-254q-77 0 -141 -8q-14 44 -14 85v473q0 76 -12 142q56 8 148 8h243q66 0 84 9q21 -24 21 -61q0 -32 -87 -32h-244q1 -19 1 -60v-154h203q65 0 84 9q20 -24 20 -61q0 -32 -87 -32zM137 861q10 24 53 73
q80 -53 116 -83q81 62 121 83l18 -22q10 -13 10 -26q0 -19 -25 -41q-98 -81 -125 -101q-19 12 -56 41.5t-66.5 50.5t-45.5 25z" />
    <glyph glyph-name="ecaron" unicode="&#x11b;" horiz-adv-x="517" 
d="M33 227q0 115 67.5 187.5t174.5 72.5q103 0 156 -52t53 -143q-1 -39 -25 -69h-268q5 -67 35.5 -107.5t76.5 -40.5q36 0 61 11.5t38.5 23.5t22.5 12q13 0 30 -11l23 -13q-24 -44 -78.5 -74.5t-123.5 -30.5q-111 0 -177 64.5t-66 169.5zM101 661q10 24 53 73
q80 -53 116 -83q81 62 121 83l18 -22q10 -13 10 -26q0 -19 -25 -41q-98 -81 -125 -101q-19 12 -56 41.5t-66.5 50.5t-45.5 25zM269 405q-27 0 -47 -29t-28 -78h145q-9 107 -70 107z" />
    <glyph glyph-name="Gcircumflex" unicode="&#x11c;" horiz-adv-x="693" 
d="M201 357q0 -123 52 -200t136 -77q54 0 94 14v127q0 47 -2 70q-59 -2 -97 -7q-14 38 -14 84q56 8 148 8h111q8 -56 8 -148v-110q-32 -53 -103.5 -89t-162.5 -36q-155 0 -245 92.5t-90 245.5q0 169 94.5 272.5t255.5 103.5q107 0 174 -39t67 -89q0 -62 -124 -62
q-11 45 -43.5 74t-81.5 29q-77 0 -127 -73t-50 -190zM234 748l-17 22q-11 13 -11 26q0 20 26 42q96 80 125 100q44 -31 98 -77q51 -43 73 -44q-2 -20 -15 -43.5t-32 -23.5q-15 0 -40 15q-16 10 -46 34l-40 32q-72 -56 -121 -83z" />
    <glyph glyph-name="gcircumflex" unicode="&#x11d;" horiz-adv-x="554" 
d="M48 307q0 79 62 129.5t160 50.5q50 0 95 -16q36 76 112 76q42 0 60.5 -22t18.5 -49q0 -26 -19 -40t-52 -14q-6 21 -20 34.5t-30 13.5q-19 0 -35 -16q71 -44 71 -129q0 -79 -64 -129t-162 -50q-33 0 -61 6q-14 -14 -14 -32q0 -26 37 -34t89 -7.5t104.5 -4t89.5 -35
t37 -89.5q0 -84 -73 -133t-211 -49q-105 0 -164 30t-59 92q0 47 31.5 77t68.5 33l35 3q-45 5 -69.5 25t-24.5 66q0 57 45 91q-58 44 -58 122zM129 548l-17 22q-11 13 -11 26q0 20 26 42q96 80 125 100q44 -31 98 -77q51 -43 73 -44q-2 -20 -15 -43.5t-32 -23.5q-15 0 -40 15
q-16 10 -46 34l-40 32q-72 -56 -121 -83zM373 -76q0 14 -3.5 25.5t-9.5 19.5t-14.5 13.5t-19.5 9t-23 5.5t-25.5 2.5t-27.5 1t-28.5 0.5h-28.5q-28 -33 -28 -85q0 -37 28 -59.5t76 -22.5q51 0 77.5 25.5t26.5 64.5zM192 320q0 -44 21 -70.5t52 -26.5q32 0 49 26.5t17 63.5
q0 45 -21.5 71t-52.5 26t-48 -26t-17 -64z" />
    <glyph glyph-name="Gbreve" unicode="&#x11e;" horiz-adv-x="693" 
d="M201 357q0 -123 52 -200t136 -77q54 0 94 14v127q0 47 -2 70q-59 -2 -97 -7q-14 38 -14 84q56 8 148 8h111q8 -56 8 -148v-110q-32 -53 -103.5 -89t-162.5 -36q-155 0 -245 92.5t-90 245.5q0 169 94.5 272.5t255.5 103.5q107 0 174 -39t67 -89q0 -62 -124 -62
q-11 45 -43.5 74t-81.5 29q-77 0 -127 -73t-50 -190zM384 821q20 0 36 8t24.5 17.5t16.5 17.5t14 8q3 0 26 -10l22 -13q-19 -46 -63.5 -77.5t-99.5 -31.5q-67 0 -108 26.5t-41 61.5q0 48 91 48q7 -24 28.5 -39.5t53.5 -15.5z" />
    <glyph glyph-name="gbreve" unicode="&#x11f;" horiz-adv-x="554" 
d="M48 307q0 79 62 129.5t160 50.5q50 0 95 -16q36 76 112 76q42 0 60.5 -22t18.5 -49q0 -26 -19 -40t-52 -14q-6 21 -20 34.5t-30 13.5q-19 0 -35 -16q71 -44 71 -129q0 -79 -64 -129t-162 -50q-33 0 -61 6q-14 -14 -14 -32q0 -26 37 -34t89 -7.5t104.5 -4t89.5 -35
t37 -89.5q0 -84 -73 -133t-211 -49q-105 0 -164 30t-59 92q0 47 31.5 77t68.5 33l35 3q-45 5 -69.5 25t-24.5 66q0 57 45 91q-58 44 -58 122zM373 -76q0 14 -3.5 25.5t-9.5 19.5t-14.5 13.5t-19.5 9t-23 5.5t-25.5 2.5t-27.5 1t-28.5 0.5h-28.5q-28 -33 -28 -85
q0 -37 28 -59.5t76 -22.5q51 0 77.5 25.5t26.5 64.5zM279 621q20 0 36 8t24.5 17.5t16.5 17.5t14 8q4 0 26 -10l22 -13q-19 -46 -63.5 -77.5t-99.5 -31.5q-67 0 -108 26.5t-41 61.5q0 48 91 48q7 -24 28.5 -39.5t53.5 -15.5zM192 320q0 -44 21 -70.5t52 -26.5q32 0 49 26.5
t17 63.5q0 45 -21.5 71t-52.5 26t-48 -26t-17 -64z" />
    <glyph glyph-name="Gdotaccent" unicode="&#x120;" horiz-adv-x="693" 
d="M201 357q0 -123 52 -200t136 -77q54 0 94 14v127q0 47 -2 70q-59 -2 -97 -7q-14 38 -14 84q56 8 148 8h111q8 -56 8 -148v-110q-32 -53 -103.5 -89t-162.5 -36q-155 0 -245 92.5t-90 245.5q0 169 94.5 272.5t255.5 103.5q107 0 174 -39t67 -89q0 -62 -124 -62
q-11 45 -43.5 74t-81.5 29q-77 0 -127 -73t-50 -190zM295 825q0 33 21.5 54t55.5 21q30 0 48.5 -18.5t18.5 -49.5q0 -33 -21 -54t-55 -21q-31 0 -49.5 18.5t-18.5 49.5z" />
    <glyph glyph-name="gdotaccent" unicode="&#x121;" horiz-adv-x="554" 
d="M48 307q0 79 62 129.5t160 50.5q50 0 95 -16q36 76 112 76q42 0 60.5 -22t18.5 -49q0 -26 -19 -40t-52 -14q-6 21 -20 34.5t-30 13.5q-19 0 -35 -16q71 -44 71 -129q0 -79 -64 -129t-162 -50q-33 0 -61 6q-14 -14 -14 -32q0 -26 37 -34t89 -7.5t104.5 -4t89.5 -35
t37 -89.5q0 -84 -73 -133t-211 -49q-105 0 -164 30t-59 92q0 47 31.5 77t68.5 33l35 3q-45 5 -69.5 25t-24.5 66q0 57 45 91q-58 44 -58 122zM373 -76q0 14 -3.5 25.5t-9.5 19.5t-14.5 13.5t-19.5 9t-23 5.5t-25.5 2.5t-27.5 1t-28.5 0.5h-28.5q-28 -33 -28 -85
q0 -37 28 -59.5t76 -22.5q51 0 77.5 25.5t26.5 64.5zM192 320q0 -44 21 -70.5t52 -26.5q32 0 49 26.5t17 63.5q0 45 -21.5 71t-52.5 26t-48 -26t-17 -64zM190 625q0 33 21.5 54t55.5 21q30 0 48.5 -18.5t18.5 -49.5q0 -33 -21 -54t-55 -21q-31 0 -49.5 18.5t-18.5 49.5z" />
    <glyph glyph-name="Gcommaaccent" unicode="&#x122;" horiz-adv-x="693" 
d="M201 357q0 -123 52 -200t136 -77q54 0 94 14v127q0 47 -2 70q-59 -2 -97 -7q-14 38 -14 84q56 8 148 8h111q8 -56 8 -148v-110q-32 -53 -103.5 -89t-162.5 -36q-155 0 -245 92.5t-90 245.5q0 169 94.5 272.5t255.5 103.5q107 0 174 -39t67 -89q0 -62 -124 -62
q-11 45 -43.5 74t-81.5 29q-77 0 -127 -73t-50 -190zM334 -291l-17 13q-17 15 -17 25q0 9 8 18.5t16.5 29.5t8.5 54q0 13 -6 37.5t-7 36.5q29 11 75 11q17 0 27 -10t10 -27q0 -143 -98 -188z" />
    <glyph glyph-name="gcommaaccent" unicode="&#x123;" horiz-adv-x="554" 
d="M48 307q0 79 62 129.5t160 50.5q50 0 95 -16q36 76 112 76q42 0 60.5 -22t18.5 -49q0 -26 -19 -40t-52 -14q-6 21 -20 34.5t-30 13.5q-19 0 -35 -16q71 -44 71 -129q0 -79 -64 -129t-162 -50q-33 0 -61 6q-14 -14 -14 -32q0 -26 37 -34t89 -7.5t104.5 -4t89.5 -35
t37 -89.5q0 -84 -73 -133t-211 -49q-105 0 -164 30t-59 92q0 47 31.5 77t68.5 33l35 3q-45 5 -69.5 25t-24.5 66q0 57 45 91q-58 44 -58 122zM373 -76q0 14 -3.5 25.5t-9.5 19.5t-14.5 13.5t-19.5 9t-23 5.5t-25.5 2.5t-27.5 1t-28.5 0.5h-28.5q-28 -33 -28 -85
q0 -37 28 -59.5t76 -22.5q51 0 77.5 25.5t26.5 64.5zM192 320q0 -44 21 -70.5t52 -26.5q32 0 49 26.5t17 63.5q0 45 -21.5 71t-52.5 26t-48 -26t-17 -64zM297 755l17 -14q18 -13 18 -25q0 -8 -5.5 -16t-12 -15t-12 -25.5t-5.5 -45.5q0 -13 6 -37.5t7 -36.5q-29 -11 -75 -11
q-17 0 -27 10.5t-10 26.5q0 142 99 189z" />
    <glyph glyph-name="Hcircumflex" unicode="&#x124;" horiz-adv-x="700" 
d="M483 82v235h-266v-218q0 -66 13 -83q-42 -21 -108 -21q-27 0 -43 18t-16 69v468q0 74 -12 141q61 14 158 14q8 -56 8 -148v-155h266v148q0 77 -8 141q61 14 154 14q8 -56 8 -148v-458q0 -37 4.5 -55t18.5 -28q-46 -21 -115 -21q-62 0 -62 87zM217 748l-17 22
q-11 13 -11 26q0 20 26 42q96 80 125 100q44 -31 98 -77q51 -43 73 -44q-2 -20 -15 -43.5t-32 -23.5q-15 0 -40 15q-16 10 -46 34l-40 32q-72 -56 -121 -83z" />
    <glyph glyph-name="hcircumflex" unicode="&#x125;" horiz-adv-x="573" 
d="M363 82v241q0 40 -15.5 65.5t-38.5 25.5q-34 0 -65 -46t-34 -105v-164q0 -62 13 -86q-38 -18 -102 -18q-60 0 -60 87v493q0 74 -12 141q61 14 144 14q17 -48 17 -102v-238q20 51 66.5 78.5t108.5 27.5q56 0 91.5 -40.5t35.5 -103.5v-253q0 -65 23 -83q-46 -21 -112 -21
q-60 0 -60 87zM154 756l-17 22q-11 13 -11 26q0 20 26 42q96 80 125 100q44 -31 98 -77q51 -43 73 -44q-2 -20 -15 -43.5t-32 -23.5q-15 0 -40 15q-16 10 -46 34l-40 32q-72 -56 -121 -83z" />
    <glyph glyph-name="Hbar" unicode="&#x126;" horiz-adv-x="769" 
d="M518 82v235h-267v-218q0 -65 14 -83q-43 -21 -108 -21q-27 0 -43 18t-16 69v416q-36 -4 -55 -8q-14 38 -14 88l69 3q-1 46 -13 110q63 14 158 14q6 -43 8 -123h267q-1 52 -8 109q58 14 154 14q5 -46 7 -123q37 3 51 13q20 -29 20 -61q0 -30 -71 -32v-403q0 -65 23 -83
q-45 -21 -114 -21q-62 0 -62 87zM251 502v-100h267v100h-267z" />
    <glyph glyph-name="hbar" unicode="&#x127;" horiz-adv-x="601" 
d="M390 82v241q0 40 -15.5 65.5t-38.5 25.5q-34 0 -64.5 -46t-33.5 -105v-164q0 -62 13 -86q-38 -18 -102 -18q-60 0 -60 87v463l-55 -8q-14 47 -14 88l68 3q-3 44 -12 88q63 14 144 14q18 -47 18 -101h64q66 0 86 13q20 -29 20 -60q0 -33 -87 -33h-83v-159q19 51 65.5 78.5
t109.5 27.5q56 0 91 -40.5t35 -103.5v-253q0 -65 23 -83q-46 -21 -112 -21q-60 0 -60 87z" />
    <glyph glyph-name="Itilde" unicode="&#x128;" horiz-adv-x="280" 
d="M63 82v468q0 74 -12 141q61 14 158 14q8 -56 8 -148v-458q0 -66 22 -83q-45 -21 -114 -21q-62 0 -62 87zM278 857l19 -14q-14 -47 -41.5 -71t-59.5 -24q-18 0 -48 13.5t-55 13.5q-46 0 -76 -31q-34 21 -34 61q0 33 23.5 50t52.5 17q22 0 64 -16.5t62 -16.5q22 0 41 16
t25 16q5 0 27 -14z" />
    <glyph glyph-name="itilde" unicode="&#x129;" horiz-adv-x="272" 
d="M275 657l19 -14q-14 -47 -41.5 -71t-59.5 -24q-18 0 -48 13.5t-55 13.5q-46 0 -76 -31q-34 21 -34 61q0 33 23.5 50t52.5 17q22 0 64 -16.5t62 -16.5q22 0 41 16t25 16q5 0 27 -14zM61 82v248q0 75 -12 141q61 14 153 14q8 -56 8 -148v-238q0 -65 23 -83
q-46 -21 -112 -21q-60 0 -60 87z" />
    <glyph glyph-name="Imacron" unicode="&#x12a;" horiz-adv-x="280" 
d="M63 82v468q0 74 -12 141q61 14 158 14q8 -56 8 -148v-458q0 -66 22 -83q-45 -21 -114 -21q-62 0 -62 87zM213 786h-79q-76 0 -141 -12q-14 38 -14 79q56 4 148 4h69q64 0 84 13q20 -28 20 -54q0 -30 -87 -30z" />
    <glyph glyph-name="imacron" unicode="&#x12b;" horiz-adv-x="272" 
d="M211 586h-79q-76 0 -141 -12q-14 38 -14 79q56 4 148 4h69q64 0 84 13q20 -28 20 -54q0 -30 -87 -30zM61 82v248q0 75 -12 141q61 14 153 14q8 -56 8 -148v-238q0 -65 23 -83q-46 -21 -112 -21q-60 0 -60 87z" />
    <glyph glyph-name="Ibreve" unicode="&#x12c;" horiz-adv-x="280" 
d="M63 82v468q0 74 -12 141q61 14 158 14q8 -56 8 -148v-458q0 -66 22 -83q-45 -21 -114 -21q-62 0 -62 87zM157 821q20 0 36 8t24.5 17.5t16.5 17.5t14 8q4 0 26 -10l22 -13q-19 -46 -63.5 -77.5t-99.5 -31.5q-67 0 -108 26.5t-41 61.5q0 48 91 48q7 -24 28.5 -39.5
t53.5 -15.5z" />
    <glyph glyph-name="ibreve" unicode="&#x12d;" horiz-adv-x="272" 
d="M154 621q20 0 36 8t24.5 17.5t16.5 17.5t14 8q3 0 26 -10l22 -13q-19 -46 -63.5 -77.5t-99.5 -31.5q-67 0 -108 26.5t-41 61.5q0 48 91 48q7 -24 28.5 -39.5t53.5 -15.5zM61 82v248q0 75 -12 141q61 14 153 14q8 -56 8 -148v-238q0 -65 23 -83q-46 -21 -112 -21
q-60 0 -60 87z" />
    <glyph glyph-name="Iogonek" unicode="&#x12e;" horiz-adv-x="280" 
d="M63 82v468q0 74 -12 141q61 14 158 14q8 -56 8 -148v-458q0 -66 22 -83q-25 -12 -68 -18q-44 -49 -44 -100q0 -13 8 -22t21 -9q8 0 16 1.5t11 1.5q13 0 18.5 -6.5t10.5 -22.5l7 -23q-33 -14 -67 -14q-49 0 -77 23.5t-28 63.5q0 67 57 107q-41 11 -41 84z" />
    <glyph glyph-name="iogonek" unicode="&#x12f;" horiz-adv-x="272" 
d="M61 82v248q0 75 -12 141q61 14 153 14q8 -56 8 -148v-238q0 -65 23 -83q-26 -13 -68 -18q-44 -49 -44 -100q0 -13 8 -22t21 -9q8 0 16 1.5t11 1.5q13 0 18.5 -6.5t10.5 -22.5l7 -23q-33 -14 -67 -14q-49 0 -77 23.5t-28 63.5q0 67 58 107q-38 13 -38 84zM51 647
q0 37 24 60t62 23q33 0 53.5 -20.5t20.5 -54.5q0 -37 -24 -60t-62 -23q-33 0 -53.5 20.5t-20.5 54.5z" />
    <glyph glyph-name="Idotaccent" unicode="&#x130;" horiz-adv-x="280" 
d="M63 82v468q0 74 -12 141q61 14 158 14q8 -56 8 -148v-458q0 -66 22 -83q-45 -21 -114 -21q-62 0 -62 87zM68 825q0 33 21.5 54t55.5 21q30 0 48.5 -18.5t18.5 -49.5q0 -33 -21 -54t-55 -21q-31 0 -49.5 18.5t-18.5 49.5z" />
    <glyph glyph-name="dotlessi" unicode="&#x131;" horiz-adv-x="272" 
d="M61 82v248q0 75 -12 141q61 14 153 14q8 -56 8 -148v-238q0 -65 23 -83q-46 -21 -112 -21q-60 0 -60 87z" />
    <glyph glyph-name="IJ" unicode="&#x132;" horiz-adv-x="555" 
d="M63 82v468q0 74 -12 141q61 14 158 14q8 -56 8 -148v-458q0 -66 22 -83q-45 -21 -114 -21q-62 0 -62 87zM339 -26v576q0 76 -13 141q65 14 158 14q8 -56 8 -148v-565q0 -99 -49.5 -161.5t-123.5 -62.5q-31 0 -51.5 20t-20.5 53q41 0 66.5 38t25.5 95z" />
    <glyph glyph-name="ij" unicode="&#x133;" horiz-adv-x="548" 
d="M61 82v248q0 75 -12 141q61 14 153 14q8 -56 8 -148v-238q0 -65 23 -83q-46 -21 -112 -21q-60 0 -60 87zM51 647q0 37 24 60t62 23q33 0 53.5 -20.5t20.5 -54.5q0 -37 -24 -60t-62 -23q-33 0 -53.5 20.5t-20.5 54.5zM327 647q0 37 24 60t62 23q33 0 53.5 -20.5
t20.5 -54.5q0 -37 -23.5 -60t-61.5 -23q-33 0 -54 20.5t-21 54.5zM338 -26v356q0 75 -12 141q61 14 153 14q8 -56 8 -148v-345q0 -102 -45 -163t-129 -61q-32 0 -51 21t-19 52q51 0 73 32.5t22 100.5z" />
    <glyph glyph-name="Jcircumflex" unicode="&#x134;" horiz-adv-x="284" 
d="M68 -26v576q0 76 -13 141q65 14 158 14q8 -56 8 -148v-565q0 -99 -49.5 -161.5t-123.5 -62.5q-31 0 -51.5 20t-20.5 53q41 0 66.5 38t25.5 95zM9 748l-17 22q-11 13 -11 26q0 20 26 42q96 80 125 100q44 -31 98 -77q51 -43 73 -44q-2 -20 -15 -43.5t-32 -23.5
q-15 0 -40 15q-16 10 -46 34l-40 32q-72 -56 -121 -83z" />
    <glyph glyph-name="jcircumflex" unicode="&#x135;" horiz-adv-x="276" 
d="M66 -26v356q0 75 -12 141q61 14 153 14q8 -56 8 -148v-345q0 -102 -45 -163t-129 -61q-32 0 -51 21t-19 52q51 0 73 32.5t22 100.5zM5 548l-17 22q-11 13 -11 26q0 20 26 42q96 80 125 100q44 -31 98 -77q51 -43 73 -44q-2 -20 -15 -43.5t-32 -23.5q-15 0 -40 15
q-16 10 -46 34l-40 32q-72 -56 -121 -83z" />
    <glyph glyph-name="Kcommaaccent" unicode="&#x136;" horiz-adv-x="659" 
d="M406 84l-189 258v-243q0 -64 13 -86q-41 -18 -105 -18q-62 0 -62 87v472q0 70 -12 137q63 14 149 14q17 -53 17 -102v-213l141 169q36 44 99 141q55 5 143 5q-47 -82 -93 -140l-149 -186l207 -277q50 -66 87 -87q-32 -22 -104 -22q-77 0 -142 91zM307 -291l-17 13
q-17 15 -17 25q0 8 5 16t11.5 15t11.5 25.5t5 45.5q0 13 -6 37.5t-7 36.5q29 11 75 11q16 0 26.5 -10t10.5 -27q0 -143 -98 -188z" />
    <glyph glyph-name="kcommaaccent" unicode="&#x137;" horiz-adv-x="546" 
d="M308 86l-98 135v-122q0 -62 13 -86q-38 -18 -102 -18q-60 0 -60 87v493q0 74 -12 141q61 14 144 14q17 -48 17 -102v-349l49 57q33 39 103 141q53 5 139 5q-40 -66 -97 -140l-61 -78l118 -160q30 -41 46.5 -58.5t35.5 -28.5q-35 -22 -104 -22q-73 0 -131 91zM247 -291
l-17 13q-17 15 -17 25q0 8 5 16t11.5 15t11.5 25.5t5 45.5q0 13 -6 37.5t-7 36.5q29 11 75 11q16 0 26.5 -10t10.5 -27q0 -143 -98 -188z" />
    <glyph glyph-name="Lacute" unicode="&#x139;" horiz-adv-x="569" 
d="M454 0h-236q-77 0 -141 -8q-14 44 -14 85v473q0 74 -12 141q61 14 158 14q8 -56 8 -148v-473h220q65 0 83 14q21 -25 21 -64q0 -34 -87 -34zM146 735l-18 22q-10 13 -10 26q0 19 25 41q105 88 143 115q27 -31 46 -76q-111 -89 -186 -128z" />
    <glyph glyph-name="lacute" unicode="&#x13a;" horiz-adv-x="272" 
d="M61 82v493q0 74 -12 141q61 14 153 14q8 -56 8 -148v-483q0 -65 23 -83q-46 -21 -112 -21q-60 0 -60 87zM57 743l-18 22q-10 13 -10 26q0 19 25 41q106 88 143 115q27 -31 46 -76q-111 -89 -186 -128z" />
    <glyph glyph-name="Lcommaaccent" unicode="&#x13b;" horiz-adv-x="569" 
d="M454 0h-236q-77 0 -141 -8q-14 44 -14 85v473q0 74 -12 141q61 14 158 14q8 -56 8 -148v-473h220q65 0 83 14q21 -25 21 -64q0 -34 -87 -34zM257 -291l-17 13q-17 15 -17 25q0 8 5 16t11.5 15t11.5 25.5t5 45.5q0 13 -6 37.5t-7 36.5q29 11 75 11q16 0 26.5 -10t10.5 -27
q0 -143 -98 -188z" />
    <glyph glyph-name="lcommaaccent" unicode="&#x13c;" horiz-adv-x="272" 
d="M61 82v493q0 74 -12 141q61 14 153 14q8 -56 8 -148v-483q0 -65 23 -83q-46 -21 -112 -21q-60 0 -60 87zM103 -291l-17 13q-17 15 -17 25q0 8 5 16t11.5 15t11.5 25.5t5 45.5q0 13 -6 37.5t-7 36.5q29 11 75 11q16 0 26.5 -10t10.5 -27q0 -143 -98 -188z" />
    <glyph glyph-name="Lcaron" unicode="&#x13d;" horiz-adv-x="569" 
d="M454 0h-236q-77 0 -141 -8q-14 44 -14 85v473q0 74 -12 141q61 14 158 14q8 -56 8 -148v-473h220q65 0 83 14q21 -25 21 -64q0 -34 -87 -34zM120 861q10 24 53 73q80 -53 116 -83q81 62 121 83l18 -22q10 -13 10 -26q0 -19 -25 -41q-98 -81 -125 -101q-19 12 -56 41.5
t-66.5 50.5t-45.5 25z" />
    <glyph glyph-name="lcaron" unicode="&#x13e;" horiz-adv-x="442" 
d="M61 82v493q0 74 -12 141q61 14 153 14q8 -56 8 -148v-483q0 -65 23 -83q-46 -21 -112 -21q-60 0 -60 87zM304 505l-17 13q-17 15 -17 25q0 9 8 18.5t16.5 29.5t8.5 54q0 13 -6 37.5t-7 36.5q29 11 75 11q17 0 27 -10t10 -27q0 -143 -98 -188z" />
    <glyph glyph-name="Ldot" unicode="&#x13f;" horiz-adv-x="569" 
d="M454 0h-236q-77 0 -141 -8q-14 44 -14 85v473q0 74 -12 141q61 14 158 14q8 -56 8 -148v-473h220q65 0 83 14q21 -25 21 -64q0 -34 -87 -34zM369 369q0 37 24 60.5t62 23.5q33 0 54 -20.5t21 -54.5q0 -37 -24 -60.5t-62 -23.5q-34 0 -54.5 20.5t-20.5 54.5z" />
    <glyph glyph-name="ldot" unicode="&#x140;" horiz-adv-x="495" 
d="M61 82v493q0 74 -12 141q61 14 153 14q8 -56 8 -148v-483q0 -65 23 -83q-46 -21 -112 -21q-60 0 -60 87zM293 298q0 37 24 60.5t62 23.5q33 0 54 -20.5t21 -54.5q0 -37 -24 -60.5t-62 -23.5q-34 0 -54.5 20.5t-20.5 54.5z" />
    <glyph glyph-name="Lslash" unicode="&#x141;" horiz-adv-x="627" 
d="M50 185l-18 22q-10 11 -10 26q0 21 25 42q21 18 75 53v222q0 75 -13 141q61 14 158 14q8 -56 8 -148v-128q30 20 88 56q27 -31 46 -76l-134 -82v-243h220q65 0 84 14q20 -25 20 -64q0 -34 -87 -34h-236q-77 0 -140 -8q-14 38 -14 85v155q-48 -30 -72 -47z" />
    <glyph glyph-name="lslash" unicode="&#x142;" horiz-adv-x="434" 
d="M57 186l-18 22q-10 13 -10 26q0 20 25 41q20 18 94 66v234q0 74 -12 141q61 14 153 14q8 -56 8 -148v-144q15 10 72 44q27 -31 46 -76l-118 -71v-236q0 -65 23 -83q-46 -21 -112 -21q-60 0 -60 87v161q-81 -51 -91 -57z" />
    <glyph glyph-name="Nacute" unicode="&#x143;" horiz-adv-x="687" 
d="M63 82v468q0 74 -12 141q49 14 132 14v-2l315 -428v275q0 77 -8 141q47 14 126 14q7 -59 7 -148v-458q0 -65 23 -83q-42 -21 -98 -21q-27 0 -40 24l-318 433v-353q0 -65 14 -83q-39 -21 -92 -21q-23 0 -36 18t-13 69zM264 735l-18 22q-10 13 -10 26q0 19 25 41
q105 88 143 115q27 -31 46 -76q-111 -89 -186 -128z" />
    <glyph glyph-name="nacute" unicode="&#x144;" horiz-adv-x="573" 
d="M363 82v233q0 40 -15.5 65t-38.5 25q-35 0 -67 -48.5t-32 -108.5v-149q0 -62 13 -86q-38 -18 -102 -18q-60 0 -60 87v248q0 74 -12 141q61 14 144 14q17 -48 17 -102q20 50 66.5 77t108.5 27q56 0 91.5 -39.5t35.5 -101.5v-247q0 -65 23 -83q-46 -21 -112 -21
q-60 0 -60 87zM207 535l-18 22q-10 13 -10 26q0 19 25 41q105 88 143 115q27 -31 46 -76q-111 -89 -186 -128z" />
    <glyph glyph-name="Ncommaaccent" unicode="&#x145;" horiz-adv-x="687" 
d="M63 82v468q0 74 -12 141q49 14 132 14v-2l315 -428v275q0 77 -8 141q47 14 126 14q7 -59 7 -148v-458q0 -65 23 -83q-42 -21 -98 -21q-27 0 -40 24l-318 433v-353q0 -65 14 -83q-39 -21 -92 -21q-23 0 -36 18t-13 69zM311 -291l-17 13q-17 15 -17 25q0 8 5 16t11.5 15
t11.5 25.5t5 45.5q0 13 -6 37.5t-7 36.5q29 11 75 11q16 0 26.5 -10t10.5 -27q0 -143 -98 -188z" />
    <glyph glyph-name="ncommaaccent" unicode="&#x146;" horiz-adv-x="573" 
d="M363 82v233q0 40 -15.5 65t-38.5 25q-35 0 -66.5 -46.5t-32.5 -104.5v-155q0 -62 13 -86q-38 -18 -102 -18q-60 0 -60 87v248q0 74 -12 141q61 14 144 14q17 -48 17 -102q20 50 66.5 77t108.5 27q56 0 91.5 -39.5t35.5 -101.5v-247q0 -65 23 -83q-46 -21 -112 -21
q-60 0 -60 87zM254 -291l-17 13q-17 15 -17 25q0 9 8 18.5t16.5 29.5t8.5 54q0 13 -6 37.5t-7 36.5q29 11 75 11q17 0 27 -10t10 -27q0 -143 -98 -188z" />
    <glyph glyph-name="Ncaron" unicode="&#x147;" horiz-adv-x="687" 
d="M63 82v468q0 74 -12 141q49 14 132 14v-2l315 -428v275q0 77 -8 141q47 14 126 14q7 -59 7 -148v-458q0 -65 23 -83q-42 -21 -98 -21q-27 0 -40 24l-318 433v-353q0 -65 14 -83q-39 -21 -92 -21q-23 0 -36 18t-13 69zM184 861q10 24 53 73q80 -53 116 -83q81 62 121 83
l18 -22q10 -13 10 -26q0 -19 -25 -41q-98 -81 -125 -101q-19 12 -56 41.5t-66.5 50.5t-45.5 25z" />
    <glyph glyph-name="ncaron" unicode="&#x148;" horiz-adv-x="573" 
d="M363 82v233q0 40 -15.5 65t-38.5 25q-35 0 -67 -48.5t-32 -108.5v-149q0 -62 13 -86q-38 -18 -102 -18q-60 0 -60 87v248q0 74 -12 141q61 14 144 14q17 -48 17 -102q20 50 66.5 77t108.5 27q56 0 91.5 -39.5t35.5 -101.5v-247q0 -65 23 -83q-46 -21 -112 -21
q-60 0 -60 87zM128 661q10 24 53 73q80 -53 116 -83q81 62 121 83l18 -22q10 -13 10 -26q0 -19 -25 -41q-98 -81 -125 -101q-19 12 -56 41.5t-66.5 50.5t-45.5 25z" />
    <glyph glyph-name="Eng" unicode="&#x14a;" horiz-adv-x="687" 
d="M498 -26v59l-308 419v-353q0 -65 14 -83q-39 -21 -92 -21q-23 0 -36 18t-13 69v468q0 74 -12 141q49 14 132 14v-2l315 -428v275q0 77 -8 141q47 14 126 14q7 -59 7 -148v-565q0 -99 -49.5 -161.5t-123.5 -62.5q-31 0 -51.5 20t-20.5 53q54 0 87 38t33 95z" />
    <glyph glyph-name="eng" unicode="&#x14b;" horiz-adv-x="573" 
d="M363 -26v341q0 40 -15.5 65t-38.5 25q-34 0 -65 -44.5t-34 -101.5v-160q0 -62 13 -86q-38 -18 -102 -18q-60 0 -60 87v248q0 74 -12 141q61 14 144 14q17 -48 17 -102q20 50 66.5 77t108.5 27q56 0 91.5 -39.5t35.5 -101.5v-354q0 -102 -45 -163t-128 -61
q-32 0 -51.5 20.5t-19.5 52.5q51 0 73 32.5t22 100.5z" />
    <glyph glyph-name="Omacron" unicode="&#x14c;" 
d="M36 336q0 165 93.5 268t244.5 103q141 0 228 -95t87 -248q0 -165 -94 -268t-246 -103q-140 0 -226.5 95t-86.5 248zM201 353q0 -121 46 -197t119 -76q70 0 113.5 74t43.5 193q0 121 -46 197t-119 76q-70 0 -113.5 -74t-43.5 -193zM436 786h-79q-76 0 -141 -12
q-14 38 -14 79q56 4 148 4h69q65 0 84 13q20 -28 20 -54q0 -30 -87 -30z" />
    <glyph glyph-name="omacron" unicode="&#x14d;" horiz-adv-x="551" 
d="M33 227q0 116 71.5 188t186.5 72q102 0 164.5 -65t62.5 -169q0 -116 -71.5 -188t-186.5 -72q-101 0 -164 65t-63 169zM194 245q0 -76 24.5 -123t62.5 -47q34 0 54.5 44.5t20.5 115.5q0 76 -24 123t-62 47q-34 0 -55 -44t-21 -116zM348 586h-79q-76 0 -141 -12
q-14 38 -14 79q56 4 148 4h69q64 0 84 13q20 -28 20 -54q0 -30 -87 -30z" />
    <glyph glyph-name="Obreve" unicode="&#x14e;" 
d="M36 336q0 165 93.5 268t244.5 103q141 0 228 -95t87 -248q0 -165 -94 -268t-246 -103q-140 0 -226.5 95t-86.5 248zM201 353q0 -121 46 -197t119 -76q70 0 113.5 74t43.5 193q0 121 -46 197t-119 76q-70 0 -113.5 -74t-43.5 -193zM379 821q20 0 36 8t24.5 17.5t16.5 17.5
t14 8q4 0 26 -10l22 -13q-19 -46 -63.5 -77.5t-99.5 -31.5q-67 0 -108 26.5t-41 61.5q0 48 91 48q7 -24 28.5 -39.5t53.5 -15.5z" />
    <glyph glyph-name="obreve" unicode="&#x14f;" horiz-adv-x="551" 
d="M33 227q0 116 71.5 188t186.5 72q102 0 164.5 -65t62.5 -169q0 -116 -71.5 -188t-186.5 -72q-101 0 -164 65t-63 169zM194 245q0 -76 24.5 -123t62.5 -47q34 0 54.5 44.5t20.5 115.5q0 76 -24 123t-62 47q-34 0 -55 -44t-21 -116zM291 621q20 0 36 8t24.5 17.5t16.5 17.5
t14 8q4 0 26 -10l22 -13q-19 -46 -63.5 -77.5t-99.5 -31.5q-67 0 -108 26.5t-41 61.5q0 48 91 48q7 -24 28.5 -39.5t53.5 -15.5z" />
    <glyph glyph-name="Ohungarumlaut" unicode="&#x150;" 
d="M36 336q0 165 93.5 268t244.5 103q141 0 228 -95t87 -248q0 -165 -94 -268t-246 -103q-140 0 -226.5 95t-86.5 248zM201 353q0 -121 46 -197t119 -76q70 0 113.5 74t43.5 193q0 121 -46 197t-119 76q-70 0 -113.5 -74t-43.5 -193zM175 735l-18 22q-10 13 -10 26
q0 19 25 41q106 88 143 115q27 -31 46 -76q-111 -89 -186 -128zM391 735l-18 22q-10 13 -10 26q0 19 25 41q106 88 143 115q27 -31 46 -76q-111 -89 -186 -128z" />
    <glyph glyph-name="ohungarumlaut" unicode="&#x151;" horiz-adv-x="551" 
d="M33 227q0 116 71.5 188t186.5 72q102 0 164.5 -65t62.5 -169q0 -116 -71.5 -188t-186.5 -72q-101 0 -164 65t-63 169zM194 245q0 -76 24.5 -123t62.5 -47q34 0 54.5 44.5t20.5 115.5q0 76 -24 123t-62 47q-34 0 -55 -44t-21 -116zM88 535l-18 22q-10 13 -10 26
q0 19 25 41q106 88 143 115q27 -31 46 -76q-111 -89 -186 -128zM304 535l-18 22q-10 13 -10 26q0 19 25 41q105 88 143 115q27 -31 46 -76q-111 -89 -186 -128z" />
    <glyph glyph-name="OE" unicode="&#x152;" horiz-adv-x="972" 
d="M817 318h-181v-234h199q65 0 83 14q21 -25 21 -64q0 -34 -87 -34h-214q-78 0 -141 -8q-11 28 -14 67q-72 -66 -177 -66q-120 0 -195 95t-75 248q0 165 81 268t211 103q82 0 148 -49l-5 29l-1 5q56 8 149 8h203q65 0 84 9q20 -23 20 -61q0 -32 -87 -32h-204q1 -19 1 -60
v-154h164q65 0 83 9q21 -24 21 -61q0 -32 -87 -32zM360 80q78 0 123 108v316q-49 116 -131 116q-67 0 -109 -74t-42 -193q0 -121 44 -197t115 -76z" />
    <glyph glyph-name="oe" unicode="&#x153;" horiz-adv-x="840" 
d="M33 227q0 116 69 188t179 72q100 0 160 -68q65 68 166 68q98 0 149.5 -52t51.5 -143q-1 -39 -25 -69h-268q5 -67 35.5 -107.5t76.5 -40.5q37 0 61.5 11.5t38 23.5t22.5 12q13 0 30 -11l22 -13q-23 -44 -75.5 -74.5t-118.5 -30.5q-113 0 -178 70q-70 -70 -178 -70
q-97 0 -157.5 65t-60.5 169zM194 245q0 -76 24.5 -123t62.5 -47q34 0 54.5 44.5t20.5 115.5q0 76 -24 123t-62 47q-34 0 -55 -44t-21 -116zM594 405q-28 0 -48 -29t-28 -78h145q-9 107 -69 107z" />
    <glyph glyph-name="Racute" unicode="&#x154;" horiz-adv-x="629" 
d="M63 82v463q0 75 -12 141q50 12 148 14h102q116 0 188 -57.5t72 -150.5q0 -62 -32.5 -111t-91.5 -78l114 -199q41 -70 71 -87q-38 -22 -107 -22q-73 0 -119 91l-103 183h-76v-170q0 -66 13 -83q-42 -21 -108 -21q-27 0 -43 18t-16 69zM216 616q1 -21 1 -64v-199h76
q50 0 80.5 36t30.5 93q0 59 -33 96.5t-86 37.5h-69zM240 735l-18 22q-10 13 -10 26q0 19 25 41q105 88 143 115q27 -31 46 -76q-111 -89 -186 -128z" />
    <glyph glyph-name="racute" unicode="&#x155;" horiz-adv-x="476" 
d="M210 225v-126q0 -62 13 -86q-38 -18 -102 -18q-60 0 -60 87v248q0 74 -12 141q61 14 144 14q17 -48 17 -102v-1q30 105 131 105q42 0 70.5 -35.5t28.5 -82.5q0 -59 -115 -59q-4 41 -17 68t-30 27q-27 0 -47.5 -53.5t-20.5 -126.5zM155 535l-18 22q-10 13 -10 26
q0 19 25 41q106 88 143 115q27 -31 46 -76q-111 -89 -186 -128z" />
    <glyph glyph-name="Rcommaaccent" unicode="&#x156;" horiz-adv-x="629" 
d="M63 82v463q0 75 -12 141q50 12 148 14h102q116 0 188 -57.5t72 -150.5q0 -62 -32.5 -111t-91.5 -78l114 -199q41 -70 71 -87q-38 -22 -107 -22q-73 0 -119 91l-103 183h-76v-170q0 -66 13 -83q-42 -21 -108 -21q-27 0 -43 18t-16 69zM216 616q1 -21 1 -64v-199h76
q50 0 80.5 36t30.5 93q0 59 -33 96.5t-86 37.5h-69zM287 -291l-17 13q-17 15 -17 25q0 8 5 16t11.5 15t11.5 25.5t5 45.5q0 13 -6 37.5t-7 36.5q29 11 75 11q16 0 26.5 -10t10.5 -27q0 -143 -98 -188z" />
    <glyph glyph-name="rcommaaccent" unicode="&#x157;" horiz-adv-x="476" 
d="M61 82v248q0 74 -12 141q61 14 144 14q17 -48 17 -102v-1q30 105 131 105q42 0 70.5 -35.5t28.5 -82.5q0 -59 -115 -59q-4 41 -17 68t-30 27q-26 0 -46 -48.5t-22 -117.5v-140q0 -62 13 -86q-38 -18 -102 -18q-60 0 -60 87zM112 -291l-17 13q-17 15 -17 25q0 9 8 18.5
t16.5 29.5t8.5 54q0 13 -6 37.5t-7 36.5q29 11 75 11q17 0 27 -10t10 -27q0 -143 -98 -188z" />
    <glyph glyph-name="Rcaron" unicode="&#x158;" horiz-adv-x="629" 
d="M63 82v463q0 75 -12 141q52 14 158 14h92q116 0 188 -57.5t72 -150.5q0 -62 -32.5 -111t-91.5 -78l114 -199q41 -70 71 -87q-38 -22 -107 -22q-73 0 -119 91l-103 183h-76v-170q0 -66 13 -83q-42 -21 -108 -21q-27 0 -43 18t-16 69zM216 616q1 -21 1 -64v-199h76
q50 0 80.5 36t30.5 93q0 59 -33 96.5t-86 37.5h-69zM160 861q10 24 53 73q80 -53 116 -83q81 62 121 83l18 -22q10 -13 10 -26q0 -19 -25 -41q-98 -81 -125 -101q-19 12 -56 41.5t-66.5 50.5t-45.5 25z" />
    <glyph glyph-name="rcaron" unicode="&#x159;" horiz-adv-x="476" 
d="M61 82v248q0 74 -12 141q61 14 144 14q17 -48 17 -102v-1q30 105 131 105q42 0 70.5 -35.5t28.5 -82.5q0 -59 -115 -59q-4 41 -17 68t-30 27q-26 0 -46 -48.5t-22 -117.5v-140q0 -62 13 -86q-38 -18 -102 -18q-60 0 -60 87zM76 661q10 24 53 73q80 -53 116 -83
q81 62 121 83l18 -22q10 -13 10 -26q0 -19 -25 -41q-98 -81 -125 -101q-19 12 -56 41.5t-66.5 50.5t-45.5 25z" />
    <glyph glyph-name="Sacute" unicode="&#x15a;" horiz-adv-x="575" 
d="M161 187q26 -107 111 -107q47 0 79.5 25.5t32.5 68.5q0 41 -35.5 71t-86 51t-100.5 45.5t-85.5 68.5t-35.5 105q0 86 65.5 139t188.5 53q96 0 155 -31.5t59 -78.5q0 -34 -31.5 -46.5t-97.5 -12.5q-23 82 -91 82q-42 0 -72 -27.5t-30 -66.5t36 -67t87.5 -47.5t103 -43
t87.5 -68t36 -107.5q0 -90 -70 -145t-203 -55q-105 0 -168.5 34t-63.5 85q0 75 129 75zM208 735l-18 22q-10 13 -10 26q0 19 25 41q106 88 143 115q27 -31 46 -76q-111 -89 -186 -128z" />
    <glyph glyph-name="sacute" unicode="&#x15b;" horiz-adv-x="442" 
d="M136 148q17 -73 68 -73q25 0 42 14t17 36q0 24 -23 42.5t-55.5 33.5t-65.5 32.5t-56 47t-23 68.5q0 60 49 99t141 39q73 0 119 -25t46 -62q0 -27 -25.5 -37.5t-79.5 -10.5q-16 53 -56 53q-21 0 -35 -14t-14 -34q0 -23 23.5 -41t56.5 -32t66.5 -30.5t57 -46.5t23.5 -70
q0 -64 -53.5 -104t-149.5 -40q-81 0 -129.5 26.5t-48.5 67.5q0 61 105 61zM142 535l-18 22q-10 13 -10 26q0 19 25 41q106 88 143 115q27 -31 46 -76q-111 -89 -186 -128z" />
    <glyph glyph-name="Scircumflex" unicode="&#x15c;" horiz-adv-x="575" 
d="M161 187q26 -107 111 -107q47 0 79.5 25.5t32.5 68.5q0 41 -35.5 71t-86 51t-100.5 45.5t-85.5 68.5t-35.5 105q0 86 65.5 139t188.5 53q96 0 155 -31.5t59 -78.5q0 -34 -31.5 -46.5t-97.5 -12.5q-23 82 -91 82q-42 0 -72 -27.5t-30 -66.5t36 -67t87.5 -47.5t103 -43
t87.5 -68t36 -107.5q0 -90 -70 -145t-203 -55q-105 0 -168.5 34t-63.5 85q0 75 129 75zM154 748l-17 22q-11 13 -11 26q0 20 26 42q96 80 125 100q44 -31 98 -77q51 -43 73 -44q-2 -20 -15 -43.5t-32 -23.5q-15 0 -40 15q-16 10 -46 34l-40 32q-72 -56 -121 -83z" />
    <glyph glyph-name="scircumflex" unicode="&#x15d;" horiz-adv-x="442" 
d="M136 148q17 -73 68 -73q25 0 42 14t17 36q0 24 -23 42.5t-55.5 33.5t-65.5 32.5t-56 47t-23 68.5q0 60 49 99t141 39q73 0 119 -25t46 -62q0 -27 -25.5 -37.5t-79.5 -10.5q-16 53 -56 53q-21 0 -35 -14t-14 -34q0 -23 23.5 -41t56.5 -32t66.5 -30.5t57 -46.5t23.5 -70
q0 -64 -53.5 -104t-149.5 -40q-81 0 -129.5 26.5t-48.5 67.5q0 61 105 61zM89 548l-17 22q-11 13 -11 26q0 20 26 42q96 80 125 100q44 -31 98 -77q51 -43 73 -44q-2 -20 -15 -43.5t-32 -23.5q-15 0 -40 15q-16 10 -46 34l-40 32q-72 -56 -121 -83z" />
    <glyph glyph-name="Scedilla" unicode="&#x15e;" horiz-adv-x="575" 
d="M161 187q26 -107 111 -107q47 0 79.5 25.5t32.5 68.5q0 41 -35.5 71t-86 51t-100.5 45.5t-85.5 68.5t-35.5 105q0 86 65.5 139t188.5 53q96 0 155 -31.5t59 -78.5q0 -34 -31.5 -46.5t-97.5 -12.5q-23 82 -91 82q-42 0 -72 -27.5t-30 -66.5t36 -67t87.5 -47.5t103 -43
t87.5 -68t36 -107.5q0 -84 -60.5 -138t-176.5 -61q2 -15 13.5 -27t24.5 -19.5t23.5 -21.5t10.5 -33q0 -40 -29 -64.5t-77 -24.5q-35 0 -66 14l6 23q5 16 10.5 22.5t18.5 6.5q3 0 11 -1.5t16 -1.5q29 0 29 30q0 8 -9 16t-20 15t-21 24t-11 42q-91 5 -144.5 38t-53.5 80
q0 75 129 75z" />
    <glyph glyph-name="scedilla" unicode="&#x15f;" horiz-adv-x="442" 
d="M136 148q17 -73 68 -73q25 0 42 14t17 36q0 24 -23 42.5t-55.5 33.5t-65.5 32.5t-56 47t-23 68.5q0 60 49 99t141 39q73 0 119 -25t46 -62q0 -27 -25.5 -37.5t-79.5 -10.5q-16 53 -56 53q-21 0 -35 -14t-14 -34q0 -23 23.5 -41t56.5 -32t66.5 -30.5t57 -46.5t23.5 -70
q0 -58 -44 -96.5t-125 -45.5q2 -21 37 -47t35 -55q0 -40 -29 -64.5t-77 -24.5q-35 0 -66 14l6 23q5 16 10.5 22.5t18.5 6.5q3 0 11 -1.5t16 -1.5q29 0 29 30q0 8 -9.5 16t-20.5 15t-20.5 24.5t-10.5 42.5q-66 5 -104 30.5t-38 61.5q0 61 105 61z" />
    <glyph glyph-name="Scaron" unicode="&#x160;" horiz-adv-x="575" 
d="M161 187q26 -107 111 -107q47 0 79.5 25.5t32.5 68.5q0 41 -35.5 71t-86 51t-100.5 45.5t-85.5 68.5t-35.5 105q0 86 65.5 139t188.5 53q96 0 155 -31.5t59 -78.5q0 -34 -31.5 -46.5t-97.5 -12.5q-23 82 -91 82q-42 0 -72 -27.5t-30 -66.5t36 -67t87.5 -47.5t103 -43
t87.5 -68t36 -107.5q0 -90 -70 -145t-203 -55q-105 0 -168.5 34t-63.5 85q0 75 129 75zM128 861q10 24 53 73q80 -53 116 -83q81 62 121 83l18 -22q10 -13 10 -26q0 -19 -25 -41q-98 -81 -125 -101q-19 12 -56 41.5t-66.5 50.5t-45.5 25z" />
    <glyph glyph-name="scaron" unicode="&#x161;" horiz-adv-x="442" 
d="M136 148q17 -73 68 -73q25 0 42 14t17 36q0 24 -23 42.5t-55.5 33.5t-65.5 32.5t-56 47t-23 68.5q0 60 49 99t141 39q73 0 119 -25t46 -62q0 -27 -25.5 -37.5t-79.5 -10.5q-16 53 -56 53q-21 0 -35 -14t-14 -34q0 -23 23.5 -41t56.5 -32t66.5 -30.5t57 -46.5t23.5 -70
q0 -64 -53.5 -104t-149.5 -40q-81 0 -129.5 26.5t-48.5 67.5q0 61 105 61zM63 661q10 24 53 73q80 -53 116 -83q81 62 121 83l18 -22q10 -13 10 -26q0 -19 -25 -41q-98 -81 -125 -101q-19 12 -56 41.5t-66.5 50.5t-45.5 25z" />
    <glyph glyph-name="Tcommaaccent" unicode="&#x162;" horiz-adv-x="648" 
d="M540 616h-138q0 -9 0.5 -29t0.5 -30v-458q0 -37 4.5 -55t18.5 -28q-46 -21 -115 -21q-62 0 -62 87v468q0 45 -2 66h-71q-77 0 -141 -8q-14 44 -14 84q56 8 148 8h354q65 0 83 14q21 -25 21 -64q0 -34 -87 -34zM291 -291l-17 13q-17 15 -17 25q0 8 5 16t11.5 15t11.5 25.5
t5 45.5q0 13 -6 37.5t-7 36.5q29 11 75 11q16 0 26.5 -10t10.5 -27q0 -143 -98 -188z" />
    <glyph glyph-name="tcommaaccent" unicode="&#x163;" horiz-adv-x="429" 
d="M295 400h-66v-254q0 -31 16.5 -51t43.5 -20q20 0 34 8.5t21.5 17.5t12.5 9q12 0 30 -11l22 -13q-16 -40 -56 -66.5t-90 -26.5q-84 0 -133.5 40t-49.5 105v258q-9 -1 -53 -8q-14 40 -14 88q63 3 71 3q2 10 8 30.5t9 38t3 36.5q54 10 117 10q6 -54 8 -114h47q66 0 86 13
q20 -31 20 -61q0 -32 -87 -32zM183 -291l-17 13q-17 15 -17 25q0 8 5 16t11.5 15t11.5 25.5t5 45.5q0 13 -6 37.5t-7 36.5q29 11 75 11q16 0 26.5 -10t10.5 -27q0 -143 -98 -188z" />
    <glyph glyph-name="Tcaron" unicode="&#x164;" horiz-adv-x="648" 
d="M540 616h-138q0 -9 0.5 -29t0.5 -30v-458q0 -37 4.5 -55t18.5 -28q-46 -21 -115 -21q-62 0 -62 87v468q0 45 -2 66h-71q-77 0 -141 -8q-14 44 -14 84q56 8 148 8h354q65 0 83 14q21 -25 21 -64q0 -34 -87 -34zM165 861q10 24 53 73q80 -53 116 -83q81 62 121 83l18 -22
q10 -13 10 -26q0 -19 -25 -41q-98 -81 -125 -101q-19 12 -56 41.5t-66.5 50.5t-45.5 25z" />
    <glyph glyph-name="tcaron" unicode="&#x165;" horiz-adv-x="562" 
d="M295 400h-66v-254q0 -31 16.5 -51t43.5 -20q20 0 34 8.5t21.5 17.5t12.5 9q12 0 30 -11l22 -13q-16 -40 -56 -66.5t-90 -26.5q-84 0 -133.5 40t-49.5 105v258q-9 -1 -53 -8q-14 40 -14 88q63 3 71 3q2 10 8 30.5t9 38t3 36.5q54 10 117 10q6 -54 8 -114h47q66 0 86 13
q20 -31 20 -61q0 -32 -87 -32zM433 507l-17 13q-17 15 -17 25q0 8 5 16t11.5 15t11.5 25.5t5 45.5q0 13 -6 37.5t-7 36.5q29 11 75 11q16 0 26.5 -10t10.5 -27q0 -143 -98 -188z" />
    <glyph glyph-name="Tbar" unicode="&#x166;" horiz-adv-x="648" 
d="M482 354h-79v-255q0 -37 4.5 -55t18.5 -28q-46 -21 -115 -21q-62 0 -62 87v272h-4q-75 0 -140 -12q-15 41 -15 88q56 4 149 4h10v116q0 45 -2 66h-71q-77 0 -141 -8q-14 44 -14 84q56 8 148 8h354q65 0 83 14q21 -25 21 -64q0 -34 -87 -34h-138q0 -9 0.5 -29t0.5 -30
v-123h62q65 0 84 13q20 -29 20 -61t-87 -32z" />
    <glyph glyph-name="tbar" unicode="&#x167;" horiz-adv-x="429" 
d="M289 244h-60v-98q0 -31 16.5 -51t43.5 -20q20 0 34 8.5t21.5 17.5t12.5 9q12 0 30 -11l22 -13q-16 -40 -56 -66.5t-90 -26.5q-84 0 -133.5 40t-49.5 105v102q-9 -1 -53 -8q-14 36 -14 83l67 3v78q-9 -1 -53 -8q-14 40 -14 88q63 3 71 3q2 10 8 30.5t9 38t3 36.5
q54 10 117 10q6 -54 8 -114h47q66 0 86 13q20 -31 20 -61q0 -32 -87 -32h-66v-81h42q67 0 86 9q20 -29 20 -55q0 -29 -88 -29z" />
    <glyph glyph-name="Utilde" unicode="&#x168;" horiz-adv-x="726" 
d="M63 258v292q0 74 -12 141q61 14 158 14q8 -56 8 -148v-286q0 -85 41.5 -138t107.5 -53q64 0 103.5 51.5t39.5 134.5v284q0 77 -8 141q61 14 154 14q8 -56 8 -148v-275q0 -129 -86.5 -209t-226.5 -80q-128 0 -207.5 73.5t-79.5 191.5zM500 857l19 -14q-14 -47 -41.5 -71
t-59.5 -24q-18 0 -48 13.5t-55 13.5q-46 0 -76 -31q-34 21 -34 61q0 33 23.5 50t52.5 17q22 0 64 -16.5t62 -16.5q22 0 41 16t25 16q5 0 27 -14z" />
    <glyph glyph-name="utilde" unicode="&#x169;" horiz-adv-x="573" 
d="M210 337v-167q0 -42 15.5 -68.5t39.5 -26.5q35 0 66.5 49t31.5 111v95q0 68 -7 145q52 10 148 10q8 -56 8 -148v-238q0 -65 23 -83q-46 -21 -112 -21q-60 0 -60 87v14q-20 -49 -66.5 -76t-107.5 -27q-56 0 -92 41.5t-36 106.5v189q0 74 -12 141q61 14 153 14
q8 -56 8 -148zM425 657l19 -14q-14 -47 -41.5 -71t-59.5 -24q-18 0 -48 13.5t-55 13.5q-46 0 -76 -31q-34 21 -34 61q0 33 23.5 50t52.5 17q22 0 64 -16.5t62 -16.5q22 0 41 16t25 16q5 0 27 -14z" />
    <glyph glyph-name="Umacron" unicode="&#x16a;" horiz-adv-x="726" 
d="M63 258v292q0 74 -12 141q61 14 158 14q8 -56 8 -148v-286q0 -85 41.5 -138t107.5 -53q64 0 103.5 51.5t39.5 134.5v284q0 77 -8 141q61 14 154 14q8 -56 8 -148v-275q0 -129 -86.5 -209t-226.5 -80q-128 0 -207.5 73.5t-79.5 191.5zM436 786h-79q-76 0 -141 -12
q-14 38 -14 79q56 4 148 4h69q65 0 84 13q20 -28 20 -54q0 -30 -87 -30z" />
    <glyph glyph-name="umacron" unicode="&#x16b;" horiz-adv-x="573" 
d="M210 337v-167q0 -42 15.5 -68.5t39.5 -26.5q34 0 65 46t33 107v102q0 68 -7 145q52 10 148 10q8 -56 8 -148v-238q0 -65 23 -83q-46 -21 -112 -21q-60 0 -60 87v14q-20 -49 -66.5 -76t-107.5 -27q-56 0 -92 41.5t-36 106.5v189q0 74 -12 141q61 14 153 14q8 -56 8 -148z
M359 586h-79q-76 0 -141 -12q-14 38 -14 79q56 4 148 4h69q64 0 84 13q20 -28 20 -54q0 -30 -87 -30z" />
    <glyph glyph-name="Ubreve" unicode="&#x16c;" horiz-adv-x="726" 
d="M63 258v292q0 74 -12 141q61 14 158 14q8 -56 8 -148v-286q0 -85 41.5 -138t107.5 -53q64 0 103.5 51.5t39.5 134.5v284q0 77 -8 141q61 14 154 14q8 -56 8 -148v-275q0 -129 -86.5 -209t-226.5 -80q-128 0 -207.5 73.5t-79.5 191.5zM379 821q20 0 36 8t24.5 17.5
t16.5 17.5t14 8q4 0 26 -10l22 -13q-19 -46 -63.5 -77.5t-99.5 -31.5q-67 0 -108 26.5t-41 61.5q0 48 91 48q7 -24 28.5 -39.5t53.5 -15.5z" />
    <glyph glyph-name="ubreve" unicode="&#x16d;" horiz-adv-x="573" 
d="M210 337v-167q0 -42 15.5 -68.5t39.5 -26.5q35 0 66.5 49t31.5 111v95q0 68 -7 145q52 10 148 10q8 -56 8 -148v-238q0 -65 23 -83q-46 -21 -112 -21q-60 0 -60 87v14q-20 -49 -66.5 -76t-107.5 -27q-56 0 -92 41.5t-36 106.5v189q0 74 -12 141q61 14 153 14
q8 -56 8 -148zM304 621q20 0 36 8t24.5 17.5t16.5 17.5t14 8q4 0 26 -10l22 -13q-19 -46 -63.5 -77.5t-99.5 -31.5q-67 0 -108 26.5t-41 61.5q0 48 91 48q7 -24 28.5 -39.5t53.5 -15.5z" />
    <glyph glyph-name="Uring" unicode="&#x16e;" horiz-adv-x="726" 
d="M63 258v292q0 74 -12 141q61 14 158 14q8 -56 8 -148v-286q0 -85 41.5 -138t107.5 -53q64 0 103.5 51.5t39.5 134.5v284q0 77 -8 141q61 14 154 14q8 -56 8 -148v-275q0 -129 -86.5 -209t-226.5 -80q-128 0 -207.5 73.5t-79.5 191.5zM260 835q0 44 30.5 72t79.5 28
q44 0 70 -25t26 -66q0 -44 -30.5 -72t-79.5 -28q-43 0 -69.5 25t-26.5 66zM331 841q0 -23 9.5 -37t24.5 -14q14 0 22.5 13t8.5 35t-10 36t-25 14q-13 0 -21.5 -13t-8.5 -34z" />
    <glyph glyph-name="uring" unicode="&#x16f;" horiz-adv-x="573" 
d="M210 337v-167q0 -42 15.5 -68.5t39.5 -26.5q34 0 65 46t33 107v102q0 68 -7 145q52 10 148 10q8 -56 8 -148v-238q0 -65 23 -83q-46 -21 -112 -21q-60 0 -60 87v14q-20 -49 -66.5 -76t-107.5 -27q-56 0 -92 41.5t-36 106.5v189q0 74 -12 141q61 14 153 14q8 -56 8 -148z
M183 635q0 44 30.5 72t79.5 28q44 0 70 -25t26 -66q0 -44 -30.5 -72t-79.5 -28q-43 0 -69.5 25t-26.5 66zM254 641q0 -23 9.5 -37t24.5 -14q14 0 22.5 13t8.5 35t-10 36t-25 14q-13 0 -21.5 -13t-8.5 -34z" />
    <glyph glyph-name="Uhungarumlaut" unicode="&#x170;" horiz-adv-x="726" 
d="M63 258v292q0 74 -12 141q61 14 158 14q8 -56 8 -148v-286q0 -85 41.5 -138t107.5 -53q64 0 103.5 51.5t39.5 134.5v284q0 77 -8 141q61 14 154 14q8 -56 8 -148v-275q0 -129 -86.5 -209t-226.5 -80q-128 0 -207.5 73.5t-79.5 191.5zM176 735l-18 22q-10 13 -10 26
q0 19 25 41q106 88 143 115q27 -31 46 -76q-111 -89 -186 -128zM392 735l-18 22q-10 13 -10 26q0 19 25 41q105 88 143 115q27 -31 46 -76q-111 -89 -186 -128z" />
    <glyph glyph-name="uhungarumlaut" unicode="&#x171;" horiz-adv-x="573" 
d="M210 337v-167q0 -42 15.5 -68.5t39.5 -26.5q34 0 65 46t33 107v102q0 68 -7 145q52 10 148 10q8 -56 8 -148v-238q0 -65 23 -83q-46 -21 -112 -21q-60 0 -60 87v14q-20 -49 -66.5 -76t-107.5 -27q-56 0 -92 41.5t-36 106.5v189q0 74 -12 141q61 14 153 14q8 -56 8 -148z
M314 535l-18 22q-10 13 -10 26q0 19 25 41q106 88 143 115q27 -31 46 -76q-111 -89 -186 -128zM98 535l-18 22q-10 13 -10 26q0 19 25 41q105 88 143 115q27 -31 46 -76q-111 -89 -186 -128z" />
    <glyph glyph-name="Uogonek" unicode="&#x172;" horiz-adv-x="726" 
d="M63 258v292q0 74 -12 141q61 14 158 14q8 -56 8 -148v-286q0 -85 41.5 -138t107.5 -53q64 0 103.5 51.5t39.5 134.5v284q0 77 -8 141q61 14 154 14q8 -56 8 -148v-275q0 -111 -66 -187t-177 -96q-45 -51 -45 -101q0 -13 8 -22t21 -9q8 0 16 1.5t11 1.5q13 0 18.5 -6.5
t10.5 -22.5l7 -23q-33 -14 -67 -14q-49 0 -77 23.5t-28 63.5q0 63 52 102q-128 2 -206 74.5t-78 190.5z" />
    <glyph glyph-name="uogonek" unicode="&#x173;" horiz-adv-x="573" 
d="M210 337v-167q0 -42 15.5 -68.5t39.5 -26.5q34 0 65 46t33 107v102q0 68 -7 145q52 10 148 10q8 -56 8 -148v-238q0 -65 23 -83q-26 -13 -68 -18q-44 -49 -44 -100q0 -13 8 -22t21 -9q8 0 16 1.5t11 1.5q13 0 18.5 -6.5t10.5 -22.5l7 -23q-33 -14 -67 -14q-49 0 -77 23.5
t-28 63.5q0 67 58 107q-38 13 -38 84v14q-20 -49 -66.5 -76t-107.5 -27q-56 0 -92 41.5t-36 106.5v189q0 74 -12 141q61 14 153 14q8 -56 8 -148z" />
    <glyph glyph-name="Wcircumflex" unicode="&#x174;" horiz-adv-x="1081" 
d="M667 82l-109 389l-121 -372q-18 -58 -18 -86q-35 -18 -101 -18q-27 0 -46.5 18t-38.5 69l-149 468q-18 56 -62 141q68 14 164 14q34 -54 48 -103l121 -418l110 366q25 83 33 147q58 5 124 5q35 -54 48 -100l120 -416l111 367q24 82 34 147q57 5 124 5q-6 -55 -22 -100
l-165 -506q-17 -50 -19 -86q-35 -18 -100 -18q-29 0 -50.5 18t-35.5 69zM407 748l-17 22q-11 13 -11 26q0 20 26 42q96 80 125 100q44 -31 98 -77q51 -43 73 -44q-2 -20 -15 -43.5t-32 -23.5q-15 0 -40 15q-16 10 -46 34l-40 32q-72 -56 -121 -83z" />
    <glyph glyph-name="wcircumflex" unicode="&#x175;" horiz-adv-x="839" 
d="M178 82l-88 248q-22 63 -64 141q58 14 146 14q32 -50 49 -102l67 -222l51 169q25 83 33 147q55 5 116 5q34 -53 49 -100l66 -222l52 170q28 97 35 147q55 5 115 5q-4 -47 -22 -99l-103 -284q-19 -50 -19 -86q-32 -18 -91 -18q-26 0 -44.5 18t-33.5 69l-60 208l-68 -191
q-17 -48 -17 -86q-32 -18 -91 -18q-25 0 -42.5 18t-35.5 69zM287 548l-17 22q-11 13 -11 26q0 20 26 42q96 80 125 100q44 -31 98 -77q51 -43 73 -44q-2 -20 -15 -43.5t-32 -23.5q-15 0 -40 15q-16 10 -46 34l-40 32q-72 -56 -121 -83z" />
    <glyph glyph-name="Ycircumflex" unicode="&#x176;" horiz-adv-x="702" 
d="M270 82v219l-153 249q-43 69 -100 141q61 14 172 14q39 -50 100 -148l78 -125l74 121q53 87 78 147q46 5 143 5q-19 -53 -48 -100l-190 -307v-199q0 -37 4.5 -55t18.5 -28q-46 -21 -115 -21q-62 0 -62 87zM217 748l-17 22q-11 13 -11 26q0 20 26 42q96 80 125 100
q44 -31 98 -77q51 -43 73 -44q-2 -20 -15 -43.5t-32 -23.5q-15 0 -40 15q-16 10 -46 34l-40 32q-72 -56 -121 -83z" />
    <glyph glyph-name="ycircumflex" unicode="&#x177;" horiz-adv-x="561" 
d="M233 -25l9 24q-32 14 -56 83l-96 248q-27 71 -66 141q61 14 147 14q37 -61 52 -103l75 -230l66 178q23 63 38 147q45 5 132 5q-13 -54 -45 -145l-125 -344q-40 -112 -97.5 -168.5t-126.5 -56.5q-33 0 -53 22t-20 60q121 0 166 125zM146 548l-17 22q-11 13 -11 26
q0 20 26 42q96 80 125 100q44 -31 98 -77q51 -43 73 -44q-2 -20 -15 -43.5t-32 -23.5q-15 0 -40 15q-16 10 -46 34l-40 32q-72 -56 -121 -83z" />
    <glyph glyph-name="Ydieresis" unicode="&#x178;" horiz-adv-x="702" 
d="M270 82v219l-153 249q-43 69 -100 141q61 14 172 14q39 -50 100 -148l78 -125l74 121q53 87 78 147q46 5 143 5q-19 -53 -48 -100l-190 -307v-199q0 -37 4.5 -55t18.5 -28q-46 -21 -115 -21q-62 0 -62 87zM169 818q0 32 21 53t54 21q30 0 48.5 -18.5t18.5 -48.5
q0 -33 -21 -53.5t-54 -20.5q-30 0 -48.5 19t-18.5 48zM390 818q0 32 21 53t55 21q29 0 47.5 -18.5t18.5 -48.5q0 -33 -21 -53.5t-54 -20.5q-30 0 -48.5 19t-18.5 48z" />
    <glyph glyph-name="Zacute" unicode="&#x179;" horiz-adv-x="638" 
d="M127 700h320q77 0 140 8q14 -38 14 -85l-374 -539h273q65 0 84 14q20 -25 20 -64q0 -34 -87 -34h-325q-78 0 -141 -8q-14 38 -14 85l374 539h-267q-65 0 -84 -14q-20 24 -20 64q0 34 87 34zM240 735l-18 22q-10 13 -10 26q0 19 25 41q105 88 143 115q27 -31 46 -76
q-111 -89 -186 -128z" />
    <glyph glyph-name="zacute" unicode="&#x17a;" horiz-adv-x="531" 
d="M394 0h-185q-78 0 -145 -6q-14 40 -14 82l243 324h-138q-66 0 -89 -13q-18 28 -18 61q0 32 88 32h181q77 0 145 6q14 -47 14 -76l-253 -330h152q39 0 57 4.5t29 18.5q20 -36 20 -71q0 -32 -87 -32zM186 535l-18 22q-10 13 -10 26q0 19 25 41q105 88 143 115
q27 -31 46 -76q-111 -89 -186 -128z" />
    <glyph glyph-name="Zdotaccent" unicode="&#x17b;" horiz-adv-x="638" 
d="M127 700h320q77 0 140 8q14 -38 14 -85l-374 -539h273q65 0 84 14q20 -25 20 -64q0 -34 -87 -34h-325q-78 0 -141 -8q-14 38 -14 85l374 539h-267q-65 0 -84 -14q-20 24 -20 64q0 34 87 34zM247 825q0 33 21.5 54t55.5 21q30 0 48.5 -18.5t18.5 -49.5q0 -33 -21 -54
t-55 -21q-31 0 -49.5 18.5t-18.5 49.5z" />
    <glyph glyph-name="zdotaccent" unicode="&#x17c;" horiz-adv-x="531" 
d="M394 0h-185q-78 0 -145 -6q-14 40 -14 82l243 324h-138q-66 0 -89 -13q-18 28 -18 61q0 32 88 32h181q77 0 145 6q14 -47 14 -76l-253 -330h152q39 0 57 4.5t29 18.5q20 -36 20 -71q0 -32 -87 -32zM193 625q0 33 21.5 54t55.5 21q30 0 48.5 -18.5t18.5 -49.5
q0 -33 -21 -54t-55 -21q-31 0 -49.5 18.5t-18.5 49.5z" />
    <glyph glyph-name="Zcaron" unicode="&#x17d;" horiz-adv-x="638" 
d="M127 700h320q77 0 140 8q14 -38 14 -85l-374 -539h273q65 0 84 14q20 -25 20 -64q0 -34 -87 -34h-325q-78 0 -141 -8q-14 38 -14 85l374 539h-267q-65 0 -84 -14q-20 24 -20 64q0 34 87 34zM160 861q10 24 53 73q80 -53 116 -83q81 62 121 83l18 -22q10 -13 10 -26
q0 -19 -25 -41q-98 -81 -125 -101q-19 12 -56 41.5t-66.5 50.5t-45.5 25z" />
    <glyph glyph-name="zcaron" unicode="&#x17e;" horiz-adv-x="531" 
d="M394 0h-185q-78 0 -145 -6q-14 40 -14 82l243 324h-138q-66 0 -89 -13q-18 28 -18 61q0 32 88 32h181q77 0 145 6q14 -47 14 -76l-253 -330h152q39 0 57 4.5t29 18.5q20 -36 20 -71q0 -32 -87 -32zM107 661q10 24 53 73q80 -53 116 -83q81 62 121 83l18 -22
q10 -13 10 -26q0 -19 -25 -41q-98 -81 -125 -101q-19 12 -56 41.5t-66.5 50.5t-45.5 25z" />
    <glyph glyph-name="longs" unicode="&#x17f;" horiz-adv-x="422" 
d="M61 82v454q0 88 53 142t143 54q63 0 105 -22t42 -50q0 -63 -105 -63q-9 53 -40 53q-21 0 -35 -27t-14 -69v-455q0 -62 13 -86q-38 -18 -102 -18q-60 0 -60 87z" />
    <glyph glyph-name="uni018F" unicode="&#x18f;" horiz-adv-x="690" 
d="M42 390q59 7 130 7h314q-11 102 -57.5 162.5t-116.5 60.5q-45 0 -79 -13t-50 -28t-32.5 -28t-30.5 -13q-11 0 -29 11l-23 14q27 63 99.5 103.5t165.5 40.5q149 0 235.5 -93t86.5 -246q0 -168 -90 -271.5t-242 -103.5q-119 0 -203 90.5t-84 221.5q0 55 6 85zM342 80
q58 0 99 64t47 169h-287q2 -99 41.5 -166t99.5 -67z" />
    <glyph glyph-name="florin" unicode="&#x192;" horiz-adv-x="428" 
d="M85 -26v422q-9 -1 -53 -8q-14 47 -14 88l67 3v57q0 88 52 142t140 54q62 0 103.5 -22t41.5 -50q0 -63 -105 -63q-3 23 -13 38t-24 15q-20 0 -33 -26.5t-13 -69.5v-74h55q65 0 84 13q20 -29 20 -61t-87 -32h-72v-408q0 -102 -44 -163t-126 -61q-32 0 -51.5 20.5
t-19.5 52.5q50 0 71 32.5t21 100.5z" />
    <glyph glyph-name="uni01DD" unicode="&#x1dd;" horiz-adv-x="525" 
d="M82 352l-24 16q19 58 72 88.5t125 30.5q107 0 172 -65t65 -174q0 -113 -69 -184t-181 -71q-99 0 -152.5 57.5t-53.5 157.5q2 44 15 69h280q-7 59 -33.5 93.5t-67.5 34.5q-22 0 -40.5 -10t-28.5 -21.5t-22.5 -21.5t-22.5 -10q-17 0 -34 10zM254 75q32 0 53 34.5t26 92.5
h-149q7 -127 70 -127z" />
    <glyph glyph-name="AEacute" unicode="&#x1fc;" horiz-adv-x="839" 
d="M684 318h-181v-234h198q66 0 84 14q21 -25 21 -64q0 -34 -87 -34h-214q-78 0 -141 -8q-14 38 -14 85v61h-142l-15 -39q-29 -70 -29 -87q-39 -17 -102 -17q-30 0 -30 26q0 19 21 61l230 468q36 79 54 142q56 8 148 8h204q65 0 84 9q20 -23 20 -61q0 -32 -87 -32h-204
q1 -19 1 -60v-154h163q66 0 84 9q21 -24 21 -61q0 -32 -87 -32zM412 735l-18 22q-10 13 -10 26q0 19 25 41q105 88 143 115q27 -31 46 -76q-111 -89 -186 -128zM240 222h110v287z" />
    <glyph glyph-name="aeacute" unicode="&#x1fd;" horiz-adv-x="794" 
d="M736 223h-267q5 -67 35 -107.5t77 -40.5q28 0 50 7.5t32.5 16t21 16t17.5 7.5q13 0 31 -11l22 -13q-23 -44 -75.5 -74.5t-117.5 -30.5q-124 0 -188 86q-54 -86 -175 -86q-74 0 -120 34.5t-46 90.5q0 75 79 119.5t207 57.5v27q0 38 -21 60.5t-56 22.5q-33 0 -55 -25
t-22 -59q-116 0 -116 63q0 41 59.5 72t152.5 31q99 0 151 -54q60 54 150 54q98 0 149 -52t51 -143q-1 -38 -26 -69zM317 535l-18 22q-10 13 -10 26q0 19 25 41q106 88 143 115q27 -31 46 -76q-111 -89 -186 -128zM242 80q45 0 77 52v99q-137 -14 -137 -98q0 -24 16.5 -38.5
t43.5 -14.5zM547 405q-28 0 -48 -29t-28 -78h145q-9 107 -69 107z" />
    <glyph glyph-name="Oslashacute" unicode="&#x1fe;" 
d="M89 82l18 24q-71 93 -71 230q0 165 93.5 268t244.5 103q93 0 166 -45l24 31q48 12 125 12l-78 -103q78 -96 78 -238q0 -165 -94 -268t-246 -103q-92 0 -166 44l-24 -32q-29 -10 -81 -10q-27 0 -27 19q0 20 38 68zM523 347q0 64 -14 120l-250 -330q44 -57 107 -57
q70 0 113.5 74t43.5 193zM201 353q0 -61 12 -112l250 323q-44 56 -105 56q-70 0 -113.5 -74t-43.5 -193zM283 735l-18 22q-10 13 -10 26q0 19 25 41q106 88 143 115q27 -31 46 -76q-111 -89 -186 -128z" />
    <glyph glyph-name="oslashacute" unicode="&#x1ff;" horiz-adv-x="551" 
d="M33 227q0 116 71.5 188t186.5 72q62 0 113 -27l12 15q37 12 99 12l-55 -70q58 -64 58 -164q0 -116 -71.5 -188t-186.5 -72q-58 0 -109 24l-9 -12q-21 -10 -60 -10q-20 0 -20 19q0 18 26 52q-55 64 -55 161zM197 535l-18 22q-10 13 -10 26q0 19 25 41q106 88 143 115
q27 -31 46 -76q-111 -89 -186 -128zM185 245q0 -32 4 -53l142 177q-27 36 -62 36q-37 0 -60.5 -44.5t-23.5 -115.5zM365 235q0 19 -4 53l-140 -180q25 -33 61 -33q37 0 60 44.5t23 115.5z" />
    <glyph glyph-name="Scommaaccent" unicode="&#x218;" horiz-adv-x="575" 
d="M161 187q26 -107 111 -107q47 0 79.5 25.5t32.5 68.5q0 41 -35.5 71t-86 51t-100.5 45.5t-85.5 68.5t-35.5 105q0 86 65.5 139t188.5 53q96 0 155 -31.5t59 -78.5q0 -34 -31.5 -46.5t-97.5 -12.5q-23 82 -91 82q-42 0 -72 -27.5t-30 -66.5t36 -67t87.5 -47.5t103 -43
t87.5 -68t36 -107.5q0 -90 -70 -145t-203 -55q-105 0 -168.5 34t-63.5 85q0 75 129 75zM232 -291l-17 13q-17 15 -17 25q0 9 8 18.5t16.5 29.5t8.5 54q0 13 -6 37.5t-7 36.5q29 11 75 11q17 0 27 -10t10 -27q0 -143 -98 -188z" />
    <glyph glyph-name="scommaaccent" unicode="&#x219;" horiz-adv-x="442" 
d="M136 148q17 -73 68 -73q25 0 42 14t17 36q0 24 -23 42.5t-55.5 33.5t-65.5 32.5t-56 47t-23 68.5q0 60 49 99t141 39q73 0 119 -25t46 -62q0 -27 -25.5 -37.5t-79.5 -10.5q-16 53 -56 53q-21 0 -35 -14t-14 -34q0 -23 23.5 -41t56.5 -32t66.5 -30.5t57 -46.5t23.5 -70
q0 -64 -53.5 -104t-149.5 -40q-81 0 -129.5 26.5t-48.5 67.5q0 61 105 61zM189 -291l-17 13q-17 15 -17 25q0 8 5 16t11.5 15t11.5 25.5t5 45.5q0 13 -6 37.5t-7 36.5q29 11 75 11q16 0 26.5 -10t10.5 -27q0 -143 -98 -188z" />
    <glyph glyph-name="uni021A" unicode="&#x21a;" horiz-adv-x="668" 
d="M550 616h-138q0 -9 0.5 -29t0.5 -30v-458q0 -37 4.5 -55t18.5 -28q-46 -21 -115 -21q-62 0 -62 87v468q0 45 -2 66h-71q-77 0 -141 -8q-14 44 -14 84q56 8 148 8h354q65 0 83 14q21 -25 21 -64q0 -34 -87 -34zM310 -291l-17 13q-17 15 -17 25q0 9 8 18.5t16.5 29.5
t8.5 54q0 13 -6 37.5t-7 36.5q29 11 75 11q17 0 27 -10t10 -27q0 -143 -98 -188z" />
    <glyph glyph-name="uni021B" unicode="&#x21b;" horiz-adv-x="429" 
d="M295 400h-66v-254q0 -31 16.5 -51t43.5 -20q20 0 34 8.5t21.5 17.5t12.5 9q12 0 30 -11l22 -13q-16 -40 -56 -66.5t-90 -26.5q-84 0 -133.5 40t-49.5 105v258q-9 -1 -53 -8q-14 40 -14 88q63 3 71 3q2 10 8 30.5t9 38t3 36.5q54 10 117 10q6 -54 8 -114h47q66 0 86 13
q20 -31 20 -61q0 -32 -87 -32zM183 -291l-17 13q-17 15 -17 25q0 8 5 16t11.5 15t11.5 25.5t5 45.5q0 13 -6 37.5t-7 36.5q29 11 75 11q16 0 26.5 -10t10.5 -27q0 -143 -98 -188z" />
    <glyph glyph-name="dotlessj" unicode="&#x237;" horiz-adv-x="276" 
d="M66 -26v356q0 75 -12 141q61 14 153 14q8 -56 8 -148v-345q0 -102 -45 -163t-129 -61q-32 0 -51 21t-19 52q51 0 73 32.5t22 100.5z" />
    <glyph glyph-name="circumflex" unicode="&#x2c6;" horiz-adv-x="394" 
d="M64 548l-17 22q-11 13 -11 26q0 20 26 42q96 80 125 100q44 -31 98 -77q51 -43 73 -44q-2 -20 -15 -43.5t-32 -23.5q-15 0 -40 15q-16 10 -46 34l-40 32q-72 -56 -121 -83z" />
    <glyph glyph-name="caron" unicode="&#x2c7;" horiz-adv-x="394" 
d="M40 661q10 24 53 73q80 -53 116 -83q81 62 121 83l18 -22q10 -13 10 -26q0 -19 -25 -41q-98 -81 -125 -101q-19 12 -56 41.5t-66.5 50.5t-45.5 25z" />
    <glyph glyph-name="breve" unicode="&#x2d8;" horiz-adv-x="376" 
d="M205 621q20 0 36 8t24.5 17.5t16.5 17.5t14 8q4 0 26 -10l22 -13q-19 -46 -63.5 -77.5t-99.5 -31.5q-67 0 -108 26.5t-41 61.5q0 48 91 48q7 -24 28.5 -39.5t53.5 -15.5z" />
    <glyph glyph-name="dotaccent" unicode="&#x2d9;" horiz-adv-x="266" 
d="M56 625q0 33 21.5 54t55.5 21q30 0 48.5 -18.5t18.5 -49.5q0 -33 -21 -54t-55 -21q-31 0 -49.5 18.5t-18.5 49.5z" />
    <glyph glyph-name="ring" unicode="&#x2da;" horiz-adv-x="535" 
d="M160 635q0 44 30.5 72t79.5 28q44 0 70 -25t26 -66q0 -44 -30.5 -72t-79.5 -28q-43 0 -69.5 25t-26.5 66zM231 641q0 -23 9.5 -37t24.5 -14q14 0 22.5 13t8.5 35t-10 36t-25 14q-13 0 -21.5 -13t-8.5 -34z" />
    <glyph glyph-name="ogonek" unicode="&#x2db;" horiz-adv-x="492" 
d="M261 0h64q-46 -52 -46 -102q0 -13 8 -22t21 -9q8 0 16 1.5t11 1.5q13 0 18.5 -6.5t10.5 -22.5l7 -23q-33 -14 -67 -14q-49 0 -77 23.5t-28 63.5q0 68 62 109z" />
    <glyph glyph-name="tilde" unicode="&#x2dc;" horiz-adv-x="376" 
d="M325 657l19 -14q-14 -47 -41.5 -71t-59.5 -24q-18 0 -48 13.5t-55 13.5q-46 0 -76 -31q-34 21 -34 61q0 33 23.5 50t52.5 17q22 0 64 -16.5t62 -16.5q22 0 41 16t25 16q5 0 27 -14z" />
    <glyph glyph-name="hungarumlaut" unicode="&#x2dd;" horiz-adv-x="492" 
d="M67 535l-18 22q-10 13 -10 26q0 19 25 41q106 88 143 115q27 -31 46 -76q-111 -89 -186 -128zM283 535l-18 22q-10 13 -10 26q0 19 25 41q106 88 143 115q27 -31 46 -76q-111 -89 -186 -128z" />
    <glyph glyph-name="uni0400" unicode="&#x400;" horiz-adv-x="592" 
d="M437 318h-220v-234h238q65 0 84 14q20 -25 20 -64q0 -34 -87 -34h-254q-77 0 -141 -8q-14 44 -14 85v473q0 76 -12 142q56 8 148 8h243q66 0 84 9q21 -24 21 -61q0 -32 -87 -32h-244q1 -19 1 -60v-154h203q65 0 84 9q20 -24 20 -61q0 -32 -87 -32zM182 863q19 45 46 76
q46 -33 109 -86q53 -43 73 -44q-2 -22 -12 -44.5t-28 -22.5q-16 0 -32 12q-20 12 -78 58t-78 51z" />
    <glyph glyph-name="afii10023" unicode="&#x401;" horiz-adv-x="592" 
d="M437 318h-220v-234h238q65 0 84 14q20 -25 20 -64q0 -34 -87 -34h-254q-77 0 -141 -8q-14 44 -14 85v473q0 76 -12 142q56 8 148 8h243q66 0 84 9q21 -24 21 -61q0 -32 -87 -32h-244q1 -19 1 -60v-154h203q65 0 84 9q20 -24 20 -61q0 -32 -87 -32zM114 818q0 32 21 53
t54 21q30 0 48.5 -18.5t18.5 -48.5q0 -33 -21 -53.5t-54 -20.5q-30 0 -48.5 19t-18.5 48zM335 818q0 32 21 53t55 21q29 0 47.5 -18.5t18.5 -48.5q0 -33 -21 -53.5t-54 -20.5q-29 0 -48 19t-19 48z" />
    <glyph glyph-name="afii10051" unicode="&#x402;" horiz-adv-x="785" 
d="M568 158v129q0 40 -16.5 65.5t-41.5 25.5q-36 0 -70 -46t-37 -105v-128q0 -65 18 -83q-45 -21 -112 -21q-60 0 -60 87v468q0 45 -2 66h-71q-77 0 -141 -8q-14 44 -14 84q56 8 148 8h354q65 0 83 14q21 -25 21 -64q0 -34 -87 -34h-138q0 -9 0.5 -29t0.5 -30v-203
q20 50 69.5 78t115.5 28q58 0 95.5 -40.5t37.5 -103.5v-140q0 -80 -50 -130.5t-126 -50.5q-31 0 -51 20t-20 52q42 0 68 26.5t26 64.5z" />
    <glyph glyph-name="afii10052" unicode="&#x403;" horiz-adv-x="547" 
d="M433 616h-217q1 -24 1 -72v-445q0 -66 13 -83q-42 -21 -108 -21q-27 0 -43 18t-16 69v468q0 76 -12 142q56 8 148 8h217q65 0 83 14q21 -25 21 -64q0 -34 -87 -34zM200 735l-18 22q-11 13 -11 26q0 19 26 41q108 90 142 115q27 -31 46 -76q-110 -88 -185 -128z" />
    <glyph glyph-name="afii10053" unicode="&#x404;" horiz-adv-x="658" 
d="M466 308h-263q10 -104 59 -166t123 -62q45 0 78.5 9.5t49 21.5t32 21.5t29.5 9.5t30 -10l23 -14q-30 -53 -101 -89t-161 -36q-152 0 -240.5 93t-88.5 245q0 169 94 272.5t254 103.5q106 0 172 -39t66 -89q0 -62 -124 -62q-11 46 -42.5 74.5t-80.5 28.5
q-69 0 -117.5 -62.5t-55.5 -164.5h247q66 0 83 13q21 -25 21 -64q0 -34 -87 -34z" />
    <glyph glyph-name="afii10054" unicode="&#x405;" horiz-adv-x="575" 
d="M161 187q26 -107 111 -107q47 0 79.5 25.5t32.5 68.5q0 41 -35.5 71t-86 51t-100.5 45.5t-85.5 68.5t-35.5 105q0 86 65.5 139t188.5 53q96 0 155 -31.5t59 -78.5q0 -34 -31.5 -46.5t-97.5 -12.5q-23 82 -91 82q-42 0 -72 -27.5t-30 -66.5t36 -67t87.5 -47.5t103 -43
t87.5 -68t36 -107.5q0 -90 -70 -145t-203 -55q-105 0 -168.5 34t-63.5 85q0 75 129 75z" />
    <glyph glyph-name="afii10055" unicode="&#x406;" horiz-adv-x="280" 
d="M63 82v468q0 74 -12 141q61 14 158 14q8 -56 8 -148v-458q0 -66 22 -83q-45 -21 -114 -21q-62 0 -62 87z" />
    <glyph glyph-name="afii10056" unicode="&#x407;" horiz-adv-x="280" 
d="M63 82v468q0 74 -12 141q61 14 158 14q8 -56 8 -148v-458q0 -66 22 -83q-45 -21 -114 -21q-62 0 -62 87zM-42 818q0 32 21 53t55 21q29 0 47.5 -18.5t18.5 -48.5q0 -33 -21 -53.5t-54 -20.5q-29 0 -48 19t-19 48zM179 818q0 32 21 53t55 21q29 0 47.5 -18.5t18.5 -48.5
q0 -33 -21 -53.5t-54 -20.5q-29 0 -48 19t-19 48z" />
    <glyph glyph-name="afii10057" unicode="&#x408;" horiz-adv-x="284" 
d="M68 -26v576q0 76 -13 141q65 14 158 14q8 -56 8 -148v-565q0 -99 -49.5 -161.5t-123.5 -62.5q-31 0 -51.5 20t-20.5 53q41 0 66.5 38t25.5 95z" />
    <glyph glyph-name="afii10058" unicode="&#x409;" horiz-adv-x="1043" 
d="M148 422v128q0 75 -13 141q39 9 158 9h346q8 -56 8 -148v-115h98q116 0 188.5 -58t72.5 -152q0 -101 -79 -164t-207 -63h-72q-77 0 -140 -8q-14 38 -14 85v473q0 44 -2 66h-202q2 -44 2 -64v-94q0 -208 -52.5 -335.5t-141.5 -127.5q-32 0 -51.5 19t-19.5 53q63 0 92 97.5
t29 257.5zM647 352v-268h89q51 0 82 37t31 96q0 60 -33.5 97.5t-86.5 37.5h-82z" />
    <glyph glyph-name="afii10059" unicode="&#x40a;" horiz-adv-x="1033" 
d="M63 82v468q0 74 -12 141q61 14 158 14q8 -56 8 -148v-155h267v148q0 77 -8 141q58 14 153 14q8 -56 8 -148v-120h98q116 0 188.5 -58t72.5 -152q0 -101 -79 -164t-207 -63h-72q-77 0 -140 -8q-14 38 -14 85v240h-267v-218q0 -66 13 -83q-42 -21 -108 -21q-27 0 -43 18
t-16 69zM637 352v-268h89q51 0 82 37t31 96q0 60 -33.5 97.5t-86.5 37.5h-82z" />
    <glyph glyph-name="afii10060" unicode="&#x40b;" horiz-adv-x="775" 
d="M559 82v202q0 40 -15.5 65.5t-39.5 25.5q-35 0 -67.5 -48t-33.5 -109v-119q0 -65 18 -83q-45 -21 -112 -21q-60 0 -60 87v468q0 45 -2 66h-71q-77 0 -141 -8q-14 44 -14 84q56 8 148 8h354q65 0 83 14q21 -25 21 -64q0 -34 -87 -34h-138q0 -9 0.5 -29t0.5 -30v-206
q19 50 67.5 78t112.5 28q57 0 93 -40.5t36 -103.5v-214q0 -65 23 -83q-46 -21 -115 -21q-28 0 -44.5 18t-16.5 69z" />
    <glyph glyph-name="afii10061" unicode="&#x40c;" horiz-adv-x="659" 
d="M406 84l-189 258v-243q0 -64 13 -86q-41 -18 -105 -18q-62 0 -62 87v472q0 70 -12 137q63 14 149 14q17 -53 17 -102v-213l141 169q36 44 99 141q55 5 143 5q-47 -82 -93 -140l-149 -186l207 -277q50 -66 87 -87q-32 -22 -104 -22q-77 0 -142 91zM260 735l-17 22
q-11 13 -11 26q0 19 26 41q112 93 142 115q27 -31 46 -76q-111 -89 -186 -128z" />
    <glyph glyph-name="uni040D" unicode="&#x40d;" horiz-adv-x="705" 
d="M493 82v427l-263 -493q-42 -21 -108 -21q-27 0 -43 18t-16 69v468q0 74 -12 141q61 14 158 14q8 -56 8 -148v-370l268 504q58 14 153 14q8 -56 8 -148v-458q0 -65 23 -83q-46 -21 -115 -21q-28 0 -44.5 18t-16.5 69zM238 863q23 49 47 76q46 -33 109 -86q52 -43 72 -44
q-7 -67 -40 -67q-14 0 -32 12q-20 12 -77.5 58t-78.5 51z" />
    <glyph glyph-name="afii10062" unicode="&#x40e;" horiz-adv-x="653" 
d="M290 200l11 24q-40 13 -73 83l-117 243q-36 72 -84 141q58 14 143 14q49 -58 69 -103l117 -260l97 208q35 77 51 147q44 5 132 5q-17 -59 -54 -145l-149 -339q-98 -225 -291 -225q-35 0 -55 22t-20 60q80 0 137.5 32t85.5 93zM348 821q20 0 36 8t24.5 17.5t16.5 17.5
t14 8q3 0 26 -10l22 -13q-19 -46 -63.5 -77.5t-99.5 -31.5q-67 0 -108 26.5t-41 61.5q0 48 91 48q7 -24 28.5 -39.5t53.5 -15.5z" />
    <glyph glyph-name="afii10145" unicode="&#x40f;" horiz-adv-x="691" 
d="M286 -93v93h-68q-77 0 -141 -8q-14 44 -14 85v473q0 74 -12 141q61 14 158 14q8 -56 8 -148v-473h258v466q0 77 -8 141q58 14 153 14q8 -56 8 -148v-453q0 -65 23 -83q-46 -21 -115 -21h-119v-76q0 -66 22 -83q-39 -21 -99 -21q-54 0 -54 87z" />
    <glyph glyph-name="afii10017" unicode="&#x410;" 
d="M511 82l-39 102h-257l-31 -85q-20 -56 -20 -83q-46 -21 -101 -21q-31 0 -31 26q0 23 15 61l183 468q24 59 41 141q56 14 156 14q31 -59 64 -148l176 -458q15 -38 26.5 -55.5t28.5 -27.5q-38 -21 -112 -21q-67 0 -99 87zM342 523l-95 -255h193z" />
    <glyph glyph-name="afii10018" unicode="&#x411;" horiz-adv-x="612" 
d="M77 -8q-14 44 -14 85v468q0 81 -12 147q56 8 148 8h226q65 0 83 14q21 -25 21 -64q0 -34 -87 -34h-226q1 -21 1 -65v-119h99q117 0 189 -57.5t72 -150.5q0 -100 -79 -162t-207 -62h-73q-77 0 -141 -8zM301 348h-84v-264h91q50 0 81 36t31 95t-33.5 96t-85.5 37z" />
    <glyph glyph-name="afii10019" unicode="&#x412;" horiz-adv-x="633" 
d="M566 528q0 -108 -103 -160q63 -19 99 -64t36 -107q0 -88 -68 -142.5t-178 -54.5h-134q-77 0 -141 -8q-14 44 -14 85v468q0 75 -12 141q52 14 158 14h150q93 0 150 -48t57 -124zM217 84h106q49 0 79 32t30 84q0 53 -32.5 86t-83.5 33h-99v-235zM216 616q1 -21 1 -64v-148
h89q42 0 68 29t26 76t-28 77t-71 30h-85z" />
    <glyph glyph-name="afii10020" unicode="&#x413;" horiz-adv-x="547" 
d="M433 616h-217q1 -24 1 -72v-445q0 -66 13 -83q-42 -21 -108 -21q-27 0 -43 18t-16 69v468q0 76 -12 142q56 8 148 8h217q65 0 83 14q21 -25 21 -64q0 -34 -87 -34z" />
    <glyph glyph-name="afii10021" unicode="&#x414;" horiz-adv-x="814" 
d="M32 -93v170q37 4 87 6q67 68 67 339v128q0 74 -12 141q39 9 158 9h346q8 -56 8 -148v-468q59 0 76 14q21 -25 21 -64v-110q0 -66 22 -83q-39 -21 -99 -21q-54 0 -54 87v93h-490v-76q0 -65 14 -83q-38 -21 -94 -21q-50 0 -50 87zM331 458q0 -259 -85 -374h286v466
q0 44 -1 66h-202q2 -44 2 -64v-94z" />
    <glyph glyph-name="afii10022" unicode="&#x415;" horiz-adv-x="592" 
d="M437 318h-220v-234h238q65 0 84 14q20 -25 20 -64q0 -34 -87 -34h-254q-77 0 -141 -8q-14 44 -14 85v473q0 76 -12 142q56 8 148 8h243q66 0 84 9q21 -24 21 -61q0 -32 -87 -32h-244q1 -19 1 -60v-154h203q65 0 84 9q20 -24 20 -61q0 -32 -87 -32z" />
    <glyph glyph-name="afii10024" unicode="&#x416;" horiz-adv-x="993" 
d="M748 84l-175 256v-241q0 -62 13 -86q-40 -18 -105 -18q-28 0 -44.5 18t-16.5 69v259l-175 -257q-59 -91 -134 -91q-68 0 -99 22q34 20 80 87l187 277l-141 186q-43 58 -88 140q95 0 152 -5q60 -101 90 -141l128 -168v159q0 77 -8 141q58 14 153 14q8 -56 8 -148v-165
l128 167q41 57 89 141q58 5 152 5q-39 -74 -87 -140l-141 -186l187 -277q44 -66 79 -87q-31 -22 -98 -22q-73 0 -134 91z" />
    <glyph glyph-name="afii10025" unicode="&#x417;" horiz-adv-x="576" 
d="M258 80q52 0 84 32t32 85q0 54 -32.5 88t-83.5 34h-26q-39 0 -80 -4q-9 41 -9 81q32 8 86 8h19q43 0 69 30t26 77q0 48 -28 78.5t-73 30.5q-35 0 -62.5 -13t-40 -28t-25.5 -28t-24 -13q-14 0 -32 11l-26 14q24 63 92 103.5t155 40.5q103 0 166 -49t63 -127
q0 -113 -104 -163q64 -20 100 -65.5t36 -108.5q0 -91 -71.5 -146t-188.5 -55q-108 0 -175 36.5t-67 84.5q0 59 87 59q12 -41 46.5 -67t86.5 -26z" />
    <glyph glyph-name="afii10026" unicode="&#x418;" horiz-adv-x="705" 
d="M493 82v427l-263 -493q-42 -21 -108 -21q-27 0 -43 18t-16 69v468q0 74 -12 141q61 14 158 14q8 -56 8 -148v-370l268 504q58 14 153 14q8 -56 8 -148v-458q0 -65 23 -83q-46 -21 -115 -21q-28 0 -44.5 18t-16.5 69z" />
    <glyph glyph-name="afii10027" unicode="&#x419;" horiz-adv-x="705" 
d="M493 82v427l-263 -493q-42 -21 -108 -21q-27 0 -43 18t-16 69v468q0 74 -12 141q61 14 158 14q8 -56 8 -148v-370l268 504q58 14 153 14q8 -56 8 -148v-458q0 -65 23 -83q-46 -21 -115 -21q-28 0 -44.5 18t-16.5 69zM369 821q20 0 36 8t24.5 17.5t16.5 17.5t14 8
q5 0 25 -10l23 -13q-19 -46 -63.5 -77.5t-99.5 -31.5q-67 0 -108 26.5t-41 61.5q0 48 91 48q7 -24 28.5 -39.5t53.5 -15.5z" />
    <glyph glyph-name="afii10028" unicode="&#x41a;" horiz-adv-x="659" 
d="M406 84l-189 258v-243q0 -64 13 -86q-41 -18 -105 -18q-62 0 -62 87v472q0 70 -12 137q63 14 149 14q17 -53 17 -102v-213l141 169q36 44 99 141q55 5 143 5q-47 -82 -93 -140l-149 -186l207 -277q50 -66 87 -87q-32 -22 -104 -22q-77 0 -142 91z" />
    <glyph glyph-name="afii10029" unicode="&#x41b;" horiz-adv-x="710" 
d="M148 422v128q0 75 -13 141q39 9 158 9h346q8 -56 8 -148v-453q0 -65 23 -83q-46 -21 -115 -21q-28 0 -44.5 18t-16.5 69v468q0 44 -2 66h-202q2 -44 2 -64v-94q0 -208 -52.5 -335.5t-141.5 -127.5q-32 0 -51.5 19t-19.5 53q63 0 92 97.5t29 257.5z" />
    <glyph glyph-name="afii10030" unicode="&#x41c;" horiz-adv-x="942" 
d="M733 82l-53 371l-126 -354q-20 -56 -20 -86q-35 -18 -99 -18q-26 0 -47 18t-40 69l-127 361l-47 -344q-4 -25 -4 -42q0 -29 15 -41q-45 -21 -101 -21q-42 0 -42 56q0 14 17 139t35 242l17 118q7 62 7 141q65 14 163 14q36 -58 50 -103l139 -429l127 380q22 65 37 147
q58 5 160 5q15 -53 30 -148l65 -458q9 -65 35 -83q-42 -21 -114 -21q-29 0 -49 18t-28 69z" />
    <glyph glyph-name="afii10031" unicode="&#x41d;" horiz-adv-x="700" 
d="M483 82v235h-266v-218q0 -66 13 -83q-42 -21 -108 -21q-27 0 -43 18t-16 69v468q0 74 -12 141q61 14 158 14q8 -56 8 -148v-155h266v148q0 77 -8 141q61 14 154 14q8 -56 8 -148v-458q0 -37 4.5 -55t18.5 -28q-46 -21 -115 -21q-62 0 -62 87z" />
    <glyph glyph-name="afii10032" unicode="&#x41e;" 
d="M36 336q0 165 93.5 268t244.5 103q141 0 228 -95t87 -248q0 -165 -94 -268t-246 -103q-140 0 -226.5 95t-86.5 248zM201 353q0 -121 46 -197t119 -76q70 0 113.5 74t43.5 193q0 121 -46 197t-119 76q-70 0 -113.5 -74t-43.5 -193z" />
    <glyph glyph-name="afii10033" unicode="&#x41f;" horiz-adv-x="706" 
d="M489 82v468q0 45 -1 66h-272q1 -21 1 -64v-453q0 -66 13 -83q-42 -21 -108 -21q-27 0 -43 18t-16 69v468q0 74 -12 141q39 9 158 9h426q8 -56 8 -148v-453q0 -66 22 -83q-45 -21 -114 -21q-62 0 -62 87z" />
    <glyph glyph-name="afii10034" unicode="&#x420;" horiz-adv-x="596" 
d="M63 82v463q0 75 -12 141q52 14 158 14h90q117 0 189.5 -57.5t72.5 -149.5q0 -100 -79 -162.5t-207 -62.5h-58v-169q0 -66 13 -83q-42 -21 -108 -21q-27 0 -43 18t-16 69zM216 616q1 -21 1 -64v-200h74q50 0 81 36t31 94q0 59 -33 96.5t-86 37.5h-68z" />
    <glyph glyph-name="afii10035" unicode="&#x421;" horiz-adv-x="658" 
d="M201 357q0 -124 50.5 -200.5t133.5 -76.5q45 0 78.5 9.5t49 21.5t32 21.5t29.5 9.5t30 -10l23 -14q-30 -53 -101 -89t-161 -36q-152 0 -240.5 93t-88.5 245q0 169 94 272.5t254 103.5q106 0 172 -39t66 -89q0 -62 -124 -62q-11 46 -42.5 74.5t-80.5 28.5
q-75 0 -124.5 -73.5t-49.5 -189.5z" />
    <glyph glyph-name="afii10036" unicode="&#x422;" horiz-adv-x="648" 
d="M540 616h-138q0 -9 0.5 -29t0.5 -30v-458q0 -37 4.5 -55t18.5 -28q-46 -21 -115 -21q-62 0 -62 87v468q0 45 -2 66h-71q-77 0 -141 -8q-14 44 -14 84q56 8 148 8h354q65 0 83 14q21 -25 21 -64q0 -34 -87 -34z" />
    <glyph glyph-name="afii10037" unicode="&#x423;" horiz-adv-x="653" 
d="M290 200l11 24q-40 13 -73 83l-117 243q-36 72 -84 141q58 14 143 14q49 -58 69 -103l117 -260l97 208q35 77 51 147q44 5 132 5q-17 -59 -54 -145l-149 -339q-98 -225 -291 -225q-35 0 -55 22t-20 60q80 0 137.5 32t85.5 93z" />
    <glyph glyph-name="afii10038" unicode="&#x424;" horiz-adv-x="827" 
d="M337 82v9q-136 0 -220 71t-84 186q0 118 82.5 194t218.5 84q-3 32 -10 65q61 14 158 14q6 -44 7 -78q136 -1 221 -72t85 -185q0 -119 -84 -195t-221 -83q0 -58 23 -76q-46 -21 -115 -21q-28 0 -44.5 18t-16.5 69zM198 361q0 -77 38 -127t101 -57v364q-63 -4 -101 -53.5
t-38 -126.5zM629 357q0 76 -38.5 126t-100.5 57v-363q62 4 100.5 53t38.5 127z" />
    <glyph glyph-name="afii10039" unicode="&#x425;" horiz-adv-x="722" 
d="M541 700q46 5 143 5q-21 -52 -56 -100l-175 -247l184 -259q28 -38 45.5 -55.5t37.5 -27.5q-35 -21 -114 -21q-72 0 -137 87l-130 184l-118 -168q-44 -63 -52 -95q-27 -8 -105 -8q-28 0 -28 19q0 18 33 67l200 285l-129 184q-52 72 -112 141q58 14 171 14q48 -56 113 -148
l71 -101l67 97q58 82 91 147z" />
    <glyph glyph-name="afii10040" unicode="&#x426;" horiz-adv-x="763" 
d="M601 -93v93h-383q-77 0 -141 -8q-14 44 -14 85v473q0 74 -12 141q61 14 158 14q8 -56 8 -148v-473h258v466q0 77 -8 141q58 14 153 14q8 -56 8 -148v-473q65 0 83 14q21 -25 21 -64v-110q0 -37 4.5 -55t18.5 -28q-41 -21 -100 -21q-54 0 -54 87z" />
    <glyph glyph-name="afii10041" unicode="&#x427;" horiz-adv-x="684" 
d="M467 82v225q-68 -44 -160 -44q-109 0 -176.5 70t-67.5 183v34q0 75 -12 141q61 14 158 14q8 -56 8 -148v-28q0 -80 35.5 -130t91.5 -50t89.5 44.5t33.5 112.5v44q0 74 -12 141q61 14 158 14q7 -49 7 -148v-458q0 -65 23 -83q-45 -21 -114 -21q-62 0 -62 87z" />
    <glyph glyph-name="afii10042" unicode="&#x428;" horiz-adv-x="989" 
d="M773 550q0 77 -8 141q58 14 153 14q8 -56 8 -148v-453q0 -65 23 -83q-46 -21 -115 -21h-616q-77 0 -141 -8q-14 44 -14 85v473q0 74 -12 141q61 14 158 14q8 -56 8 -148v-473h201v466q0 77 -8 141q58 14 154 14q7 -59 7 -148v-473h202v466z" />
    <glyph glyph-name="afii10043" unicode="&#x429;" horiz-adv-x="1062" 
d="M900 -93v93h-682q-77 0 -141 -8q-14 44 -14 85v473q0 74 -12 141q61 14 158 14q8 -56 8 -148v-473h201v466q0 77 -8 141q58 14 154 14q7 -59 7 -148v-473h202v466q0 77 -8 141q58 14 153 14q8 -56 8 -148v-473q65 0 83 14q21 -25 21 -64v-110q0 -65 23 -83
q-41 -21 -100 -21q-53 0 -53 87z" />
    <glyph glyph-name="afii10044" unicode="&#x42a;" horiz-adv-x="777" 
d="M230 77v468q0 37 -3 71h-45q-78 0 -141 -8q-14 38 -14 84q56 8 148 8h201q7 -59 7 -148v-115h98q116 0 188.5 -58t72.5 -152q0 -101 -79 -164t-207 -63h-71q-78 0 -141 -8q-14 38 -14 85zM383 352v-268h89q51 0 82 37t31 96q0 60 -33 97.5t-86 37.5h-83z" />
    <glyph glyph-name="afii10045" unicode="&#x42b;" horiz-adv-x="866" 
d="M63 77v473q0 74 -12 141q61 14 158 14q8 -56 8 -148v-120h97q117 0 189 -58t72 -152q0 -101 -79 -164t-207 -63h-71q-77 0 -141 -8q-14 44 -14 85zM650 82v468q0 75 -13 141q61 14 158 14q8 -56 8 -148v-458q0 -65 23 -83q-46 -21 -115 -21q-28 0 -44.5 18t-16.5 69z
M217 352v-268h89q50 0 81 37t31 96q0 60 -33 97.5t-86 37.5h-82z" />
    <glyph glyph-name="afii10046" unicode="&#x42c;" horiz-adv-x="610" 
d="M63 77v473q0 74 -12 141q61 14 158 14q8 -56 8 -148v-120h97q117 0 189 -58t72 -152q0 -101 -79 -164t-207 -63h-71q-77 0 -141 -8q-14 44 -14 85zM217 352v-268h89q50 0 81 37t31 96q0 60 -33 97.5t-86 37.5h-82z" />
    <glyph glyph-name="afii10047" unicode="&#x42d;" horiz-adv-x="653" 
d="M257 80q79 0 133 65t61 171h-134q-78 0 -141 -8q-14 44 -14 85q59 7 148 7h139q-11 100 -57.5 160t-116.5 60q-45 0 -79 -13t-50 -28t-32.5 -28t-30.5 -13q-13 0 -29 11l-23 14q27 63 99.5 103.5t165.5 40.5q148 0 234.5 -93t86.5 -246q0 -168 -94 -271.5t-254 -103.5
q-106 0 -172 36.5t-66 84.5q0 59 87 59q14 -42 49 -67.5t90 -25.5z" />
    <glyph glyph-name="afii10048" unicode="&#x42e;" horiz-adv-x="933" 
d="M63 82v468q0 74 -12 141q61 14 158 14q8 -56 8 -148v-155h109q16 138 95 221.5t197 83.5q123 0 199 -95t76 -248q0 -165 -82 -268t-215 -103q-119 0 -194 89t-80 235h-105v-218q0 -66 13 -83q-42 -21 -108 -21q-27 0 -43 18t-16 69zM487 353q0 -122 34 -197.5t89 -75.5
q52 0 84.5 74t32.5 193q0 122 -34 197.5t-89 75.5q-52 0 -84.5 -74t-32.5 -193z" />
    <glyph glyph-name="afii10049" unicode="&#x42f;" horiz-adv-x="624" 
d="M401 82v197h-68l-107 -194q-49 -91 -113 -91q-62 0 -90 22q29 18 70 87l110 191q-71 21 -112 70t-41 117q0 98 79 158.5t207 60.5h70q81 0 132 4l9 1q7 -49 7 -148v-458q0 -65 23 -83q-45 -21 -114 -21q-62 0 -62 87zM326 363h75v187q0 24 -2 66h-80q-50 0 -81 -34.5
t-31 -90.5t33.5 -92t85.5 -36z" />
    <glyph glyph-name="afii10065" unicode="&#x430;" horiz-adv-x="530" 
d="M319 82v12q-32 -101 -141 -101q-65 0 -105 34.5t-40 90.5q0 75 79.5 120t206.5 58v26q0 38 -21 60.5t-56 22.5q-33 0 -55 -25t-22 -59q-116 0 -116 63q0 41 61.5 72t157.5 31q91 0 145 -43t54 -113v-232q0 -65 24 -83q-46 -21 -113 -21q-27 0 -43 18t-16 69zM319 231
q-66 -7 -101.5 -32t-35.5 -66q0 -24 15 -38.5t38 -14.5q29 0 56 34t28 78v39z" />
    <glyph glyph-name="afii10066" unicode="&#x431;" horiz-adv-x="546" 
d="M336 606q-34 -8 -51.5 -14t-39 -22t-33 -45.5t-17.5 -76.5q53 39 121 39q88 0 142.5 -64.5t54.5 -166.5q0 -118 -69 -190.5t-179 -72.5q-232 0 -232 346q0 80 13.5 139.5t34 95t54.5 59.5t65 34t75 18q54 10 73 14t45.5 13.5t53.5 25.5q20 -31 20 -58t-33.5 -43
t-97.5 -31zM263 405q-28 0 -47 -26t-27 -71q6 -233 87 -233q34 0 54.5 44t20.5 114q0 77 -24.5 124.5t-63.5 47.5z" />
    <glyph glyph-name="afii10067" unicode="&#x432;" horiz-adv-x="533" 
d="M291 0h-170q-27 0 -43.5 18t-16.5 69v238q0 75 -12 141q52 14 144 14h110q78 0 126 -34t48 -89q0 -67 -69 -106q42 -15 66 -44t24 -67q0 -62 -57.5 -101t-149.5 -39zM210 75h65q27 0 43.5 17.5t16.5 46.5q0 30 -18.5 49t-49.5 19h-57v-132zM210 378v-96h58
q24 0 39.5 16.5t15.5 43.5q0 28 -17.5 45.5t-46.5 17.5h-50q1 -10 1 -27z" />
    <glyph glyph-name="afii10068" unicode="&#x433;" horiz-adv-x="429" 
d="M322 400h-113q1 -6 1 -17v-284q0 -62 13 -86q-38 -18 -102 -18q-60 0 -60 87v248q0 70 -12 136q54 14 106 14h149q67 0 85 13q21 -30 21 -61q0 -32 -88 -32z" />
    <glyph glyph-name="afii10069" unicode="&#x434;" horiz-adv-x="660" 
d="M139 260v70q0 71 -13 136q54 14 124 14h290q7 -49 7 -143v-257q45 0 64 8q21 -24 21 -56v-83q0 -37 4.5 -55t18.5 -28q-41 -21 -100 -21q-54 0 -54 87v68h-346v-51q0 -66 13 -83q-38 -21 -93 -21q-51 0 -51 87v144l59 3q56 30 56 181zM399 330q0 24 -2 70h-121
q2 -40 2 -63v-58q0 -124 -43 -199h164v250z" />
    <glyph glyph-name="afii10070" unicode="&#x435;" horiz-adv-x="517" 
d="M33 227q0 115 67.5 187.5t174.5 72.5q103 0 156 -52t53 -143q-1 -39 -25 -69h-268q5 -67 35.5 -107.5t76.5 -40.5q36 0 61 11.5t38.5 23.5t22.5 12q13 0 30 -11l23 -13q-24 -44 -78.5 -74.5t-123.5 -30.5q-111 0 -177 64.5t-66 169.5zM269 405q-27 0 -47 -29t-28 -78h145
q-9 107 -70 107z" />
    <glyph glyph-name="afii10072" unicode="&#x436;" horiz-adv-x="806" 
d="M573 85l-96 141v-127q0 -62 13 -86q-38 -18 -102 -18q-60 0 -60 87v143l-96 -139q-61 -91 -125 -91q-66 0 -98 22q24 16 73 87l114 160l-61 79q-40 53 -89 139q84 0 134 -5q54 -85 99 -141l49 -60v54q0 68 -7 145q52 10 148 10q8 -56 8 -148v-62l50 61q45 58 98 141
q52 5 134 5q-48 -84 -89 -139l-61 -79l114 -160q29 -42 43 -59.5t31 -27.5q-32 -22 -99 -22q-65 0 -125 90z" />
    <glyph glyph-name="afii10073" unicode="&#x437;" horiz-adv-x="465" 
d="M54 352l-24 16q18 58 68.5 88.5t117.5 30.5q88 0 141.5 -33.5t53.5 -90.5q0 -70 -70 -110q43 -16 67 -46.5t24 -70.5q0 -64 -59 -103.5t-155 -39.5q-84 0 -134.5 28.5t-50.5 67.5q0 46 88 46q8 -26 29 -43t52 -17q30 0 48.5 17.5t18.5 45.5q0 31 -18.5 51.5t-48.5 20.5
h-13q-24 0 -48 -4q-15 32 -15 75q20 4 56 4h20q25 0 40 16t15 43q0 28 -17.5 44.5t-46.5 16.5q-22 0 -40 -10t-26.5 -21.5t-17.5 -21.5t-17 -10q-21 0 -38 10z" />
    <glyph glyph-name="afii10074" unicode="&#x438;" horiz-adv-x="581" 
d="M370 82v210l-151 -279q-40 -18 -98 -18q-60 0 -60 87v248q0 74 -12 141q61 14 144 14q17 -48 17 -102v-203l157 295q52 10 144 10q8 -56 8 -148v-238q0 -65 23 -83q-46 -21 -112 -21q-60 0 -60 87z" />
    <glyph glyph-name="afii10075" unicode="&#x439;" horiz-adv-x="581" 
d="M370 82v210l-151 -279q-40 -18 -98 -18q-60 0 -60 87v248q0 74 -12 141q61 14 144 14q17 -48 17 -102v-203l157 295q52 10 144 10q8 -56 8 -148v-238q0 -65 23 -83q-46 -21 -112 -21q-60 0 -60 87zM307 621q21 0 38 8t25.5 17.5t17.5 17.5t15 8q3 0 25 -10l22 -13
q-19 -46 -64.5 -77.5t-101.5 -31.5q-69 0 -111.5 26.5t-42.5 61.5q0 48 92 48q7 -24 29.5 -39.5t55.5 -15.5z" />
    <glyph glyph-name="afii10076" unicode="&#x43a;" horiz-adv-x="560" 
d="M316 86l-106 143v-130q0 -62 13 -86q-38 -18 -102 -18q-60 0 -60 87v248q0 74 -12 141q61 14 144 14q17 -48 17 -102v-110l54 63q22 26 103 141q53 5 139 5q-48 -77 -97 -140l-61 -78l122 -160q25 -32 33.5 -43t22 -24t26.5 -20q-35 -22 -104 -22t-132 91z" />
    <glyph glyph-name="afii10077" unicode="&#x43b;" horiz-adv-x="578" 
d="M118 260v70q0 71 -13 136q56 14 124 14h280q8 -56 8 -143v-238q0 -65 23 -83q-46 -21 -112 -21q-60 0 -60 87v248q0 24 -2 70h-111q2 -40 2 -63v-58q0 -127 -41.5 -206.5t-115.5 -79.5q-38 0 -57 21t-19 56q54 0 74 50.5t20 139.5z" />
    <glyph glyph-name="afii10078" unicode="&#x43c;" horiz-adv-x="728" 
d="M531 82l-31 198l-60 -181q-16 -48 -16 -86q-32 -18 -90 -18q-25 0 -43.5 18t-36.5 69l-72 201l-21 -184q-1 -7 -2 -17.5t-2 -18t-1 -12.5q0 -24 12 -35q-47 -21 -99 -21q-37 0 -37 46q0 9 5.5 41.5t13.5 73.5t16 80.5t13 66.5l6 27q15 83 15 141q58 14 144 14
q32 -53 50 -102l70 -221l55 168q32 100 38 141h1q61 14 151 14q16 -51 31 -148l36 -238q9 -63 37 -83q-42 -21 -109 -21q-60 0 -74 87z" />
    <glyph glyph-name="afii10079" unicode="&#x43d;" horiz-adv-x="576" 
d="M366 82v126h-156v-109q0 -62 13 -86q-38 -18 -102 -18q-60 0 -60 87v248q0 74 -12 141q61 14 144 14q17 -48 17 -102v-95h156v42q0 72 -8 145q54 10 149 10q8 -56 8 -148v-238q0 -65 23 -83q-46 -21 -112 -21q-60 0 -60 87z" />
    <glyph glyph-name="afii10080" unicode="&#x43e;" horiz-adv-x="551" 
d="M33 227q0 116 71.5 188t186.5 72q102 0 164.5 -65t62.5 -169q0 -116 -71.5 -188t-186.5 -72q-101 0 -164 65t-63 169zM194 245q0 -76 24.5 -123t62.5 -47q34 0 54.5 44.5t20.5 115.5q0 76 -24 123t-62 47q-34 0 -55 -44t-21 -116z" />
    <glyph glyph-name="afii10081" unicode="&#x43f;" horiz-adv-x="573" 
d="M362 82v248q0 47 -2 70h-151q1 -6 1 -17v-284q0 -62 13 -86q-38 -18 -102 -18q-60 0 -60 87v248q0 70 -12 136q54 14 106 14h348q8 -56 8 -143v-238q0 -37 4.5 -55t18.5 -28q-45 -21 -111 -21q-28 0 -44.5 18t-16.5 69z" />
    <glyph glyph-name="afii10082" unicode="&#x440;" horiz-adv-x="556" 
d="M61 -145v475q0 74 -12 141q61 14 144 14q17 -48 17 -101q33 103 138 103q78 0 126.5 -60.5t48.5 -158.5q0 -123 -65 -199t-172 -76q-45 0 -76 20v-140q0 -61 13 -87q-38 -18 -102 -18q-60 0 -60 87zM289 405q-29 0 -53.5 -47.5t-25.5 -109.5v-152q28 -21 71 -21
q36 0 57.5 48t21.5 126q0 70 -19.5 113t-51.5 43z" />
    <glyph glyph-name="afii10083" unicode="&#x441;" horiz-adv-x="506" 
d="M196 245q0 -76 29 -123t76 -47q28 0 49.5 7.5t31.5 16t20 16t17 7.5q10 0 30 -10l22 -13q-23 -45 -76.5 -75.5t-121.5 -30.5q-110 0 -175 64.5t-65 169.5q0 117 70 188.5t187 71.5q79 0 127.5 -33.5t48.5 -78.5q0 -55 -110 -55q-6 37 -24 61t-44 24q-40 0 -66 -44.5
t-26 -115.5z" />
    <glyph glyph-name="afii10084" unicode="&#x442;" horiz-adv-x="504" 
d="M400 400h-74q1 -21 1 -63v-238q0 -37 4.5 -55t18.5 -28q-46 -21 -112 -21q-60 0 -60 87v248q0 36 -3 70q-77 0 -144 -12q-14 47 -14 88q57 4 152 4h211q68 0 86 13q21 -30 21 -61q0 -32 -87 -32z" />
    <glyph glyph-name="afii10085" unicode="&#x443;" horiz-adv-x="561" 
d="M233 -25l9 24q-32 14 -56 83l-96 248q-27 71 -66 141q61 14 147 14q37 -61 52 -103l75 -230l66 178q23 63 38 147q45 5 132 5q-13 -54 -45 -145l-125 -344q-40 -112 -97.5 -168.5t-126.5 -56.5q-33 0 -53 22t-20 60q121 0 166 125z" />
    <glyph glyph-name="afii10086" unicode="&#x444;" horiz-adv-x="761" 
d="M724 253q0 -115 -74 -185t-196 -70v-124q0 -63 14 -86q-40 -18 -103 -18q-27 0 -43 18t-16 69v143q-22 -2 -33 -2q-106 0 -171 62.5t-65 166.5q0 115 74.5 185t194.5 70v93q0 75 -13 141q61 14 144 14q17 -48 17 -102v-148q22 2 33 2q107 0 172 -62.5t65 -166.5zM466 405
q-8 0 -12 -3v-320q14 -7 24 -7q40 0 63.5 44t23.5 116q0 76 -27.5 123t-71.5 47zM196 245q0 -76 27 -123t70 -47q3 0 13 2v321q-14 7 -25 7q-38 0 -61.5 -44.5t-23.5 -115.5z" />
    <glyph glyph-name="afii10087" unicode="&#x445;" horiz-adv-x="558" 
d="M389 477q46 5 139 5q-23 -53 -59 -99l-102 -140l106 -144q27 -38 44.5 -55.5t38.5 -27.5q-32 -21 -108 -21q-67 0 -130 87l-59 80l-46 -63q-46 -63 -54 -95q-25 -8 -101 -8q-27 0 -27 19q0 22 33 67l126 175l-52 73q-50 70 -115 141q54 14 161 14q53 -60 115 -148l1 -1
q52 70 89 141z" />
    <glyph glyph-name="afii10088" unicode="&#x446;" horiz-adv-x="653" 
d="M489 -68v68h-268q-78 0 -146 -12q-14 44 -14 88v254q0 74 -12 141q61 14 144 14q17 -48 17 -102v-303h156v250q0 72 -8 145q52 10 149 10q8 -56 8 -148v-257q66 0 84 13q21 -30 21 -61v-83q0 -37 4.5 -55t18.5 -28q-41 -21 -100 -21q-54 0 -54 87z" />
    <glyph glyph-name="afii10089" unicode="&#x447;" horiz-adv-x="556" 
d="M210 337v-38q0 -31 15.5 -50.5t38.5 -19.5q28 0 53.5 28t26.5 65v9q0 80 -7 144q52 10 149 10q7 -59 7 -148v-238q0 -65 24 -83q-46 -21 -113 -21q-60 0 -60 87v132q-16 -31 -58.5 -48t-99.5 -17q-55 0 -90 36t-35 92v53q0 74 -12 141q61 14 153 14q8 -56 8 -148z" />
    <glyph glyph-name="afii10090" unicode="&#x448;" horiz-adv-x="824" 
d="M613 330q0 68 -7 145q52 10 148 10q8 -56 8 -148v-237q0 -66 23 -84q-47 -16 -112 -16h-452q-78 0 -146 -12q-14 44 -14 88v254q0 74 -12 141q61 14 144 14q17 -48 17 -102v-303h127v250q0 72 -8 145q52 10 149 10q8 -56 8 -148v-257h127v250z" />
    <glyph glyph-name="afii10091" unicode="&#x449;" horiz-adv-x="900" 
d="M737 -68v68h-516q-78 0 -146 -12q-14 44 -14 88v254q0 74 -12 141q61 14 144 14q17 -48 17 -102v-303h127v250q0 72 -8 145q52 10 149 10q8 -56 8 -148v-257h127v250q0 68 -7 145q52 10 148 10q8 -56 8 -148v-237v-20q66 0 85 13q20 -29 20 -61v-83q0 -65 23 -83
q-41 -21 -100 -21q-53 0 -53 87z" />
    <glyph glyph-name="afii10092" unicode="&#x44a;" horiz-adv-x="633" 
d="M171 480h139q17 -53 17 -102v-69h64q95 0 153.5 -40t58.5 -107q0 -72 -67 -117t-176 -45h-122q-27 0 -43.5 18t-16.5 69v238q0 37 -3 75q-76 0 -142 -12q-14 40 -14 88q57 4 152 4zM363 237h-36v-162h45q31 0 50 21.5t19 56.5q0 37 -21.5 60.5t-56.5 23.5z" />
    <glyph glyph-name="afii10093" unicode="&#x44b;" horiz-adv-x="746" 
d="M61 87v243q0 74 -12 141q61 14 144 14q17 -48 17 -102v-74h64q95 0 153.5 -40t58.5 -107q0 -72 -67 -117t-176 -45h-122q-27 0 -43.5 18t-16.5 69zM536 82v248q0 76 -13 141q63 14 154 14q8 -56 8 -148v-238q0 -66 22 -83q-45 -21 -111 -21q-28 0 -44 18t-16 69zM210 75
h45q31 0 50.5 21.5t19.5 56.5q0 37 -22 60.5t-56 23.5h-37v-162z" />
    <glyph glyph-name="afii10094" unicode="&#x44c;" horiz-adv-x="516" 
d="M61 87v243q0 74 -12 141q61 14 144 14q17 -48 17 -102v-74h64q95 0 153.5 -40t58.5 -107q0 -72 -67 -117t-176 -45h-122q-27 0 -43.5 18t-16.5 69zM210 75h45q31 0 50.5 21.5t19.5 56.5q0 37 -22 60.5t-56 23.5h-37v-162z" />
    <glyph glyph-name="afii10095" unicode="&#x44d;" horiz-adv-x="489" 
d="M126 135q7 -25 28.5 -42.5t52.5 -17.5q81 0 86 136q-74 0 -139 -12q-14 38 -14 84q56 4 150 4q-8 54 -29.5 86t-52.5 32t-52.5 -15.5t-34.5 -31.5t-23 -16q-20 0 -37 10l-24 16q19 58 70.5 88.5t120.5 30.5q104 0 166 -64.5t62 -169.5q0 -114 -71.5 -187t-185.5 -73
q-73 0 -117 28.5t-44 67.5q0 46 88 46z" />
    <glyph glyph-name="afii10096" unicode="&#x44e;" horiz-adv-x="755" 
d="M61 82v248q0 74 -12 141q61 14 144 14q17 -48 17 -102v-95h64q17 91 80.5 145t155.5 54q95 0 153 -64.5t58 -169.5q0 -116 -66.5 -188t-174.5 -72q-89 0 -147 59t-64 156h-59v-109q0 -62 13 -86q-38 -18 -102 -18q-60 0 -60 87zM425 245q0 -76 20 -123t52 -47
q28 0 45.5 44t17.5 116q0 76 -20 123t-52 47q-28 0 -45.5 -44.5t-17.5 -115.5z" />
    <glyph glyph-name="afii10097" unicode="&#x44f;" horiz-adv-x="522" 
d="M317 82v99h-38l-57 -101q-49 -87 -111 -87q-59 0 -90 21q29 18 71 85l60 94q-50 16 -78 50t-28 80q0 70 62.5 113.5t162.5 43.5h178q17 -53 17 -102v-279q0 -64 13 -86q-40 -18 -102 -18q-28 0 -44 18t-16 69zM317 325q0 44 -4 80h-36q-33 0 -53.5 -20.5t-20.5 -52.5
q0 -35 23 -57t59 -22h32v72z" />
    <glyph glyph-name="uni0450" unicode="&#x450;" horiz-adv-x="517" 
d="M33 227q0 115 67.5 187.5t174.5 72.5q103 0 156 -52t53 -143q-1 -39 -25 -69h-268q5 -67 35.5 -107.5t76.5 -40.5q36 0 61 11.5t38.5 23.5t22.5 12q13 0 30 -11l23 -13q-24 -44 -78.5 -74.5t-123.5 -30.5q-111 0 -177 64.5t-66 169.5zM142 663q23 49 46 76
q46 -32 112 -86q54 -43 73 -44q-1 -21 -11 -44t-28 -23q-15 0 -33 12q-23 13 -81 58.5t-78 50.5zM269 405q-27 0 -47 -29t-28 -78h145q-9 107 -70 107z" />
    <glyph glyph-name="afii10071" unicode="&#x451;" horiz-adv-x="517" 
d="M33 227q0 115 67.5 187.5t174.5 72.5q103 0 156 -52t53 -143q-1 -39 -25 -69h-268q5 -67 35.5 -107.5t76.5 -40.5q36 0 61 11.5t38.5 23.5t22.5 12q13 0 30 -11l23 -13q-24 -44 -78.5 -74.5t-123.5 -30.5q-111 0 -177 64.5t-66 169.5zM300 618q0 32 21 53t55 21
q29 0 48 -18.5t19 -48.5q0 -33 -21.5 -53.5t-54.5 -20.5q-30 0 -48.5 19t-18.5 48zM73 618q0 32 21.5 53t54.5 21q29 0 48 -18.5t19 -48.5q0 -33 -21 -53.5t-55 -20.5q-29 0 -48 19t-19 48zM269 405q-27 0 -47 -29t-28 -78h145q-9 107 -70 107z" />
    <glyph glyph-name="afii10099" unicode="&#x452;" horiz-adv-x="601" 
d="M390 -26v349q0 40 -15.5 65.5t-38.5 25.5q-34 0 -64.5 -46t-33.5 -105v-164q0 -62 13 -86q-38 -18 -102 -18q-60 0 -60 87v463l-55 -8q-14 47 -14 88l68 3q-3 44 -12 88q63 14 144 14q18 -47 18 -101h64q66 0 86 13q20 -29 20 -60q0 -33 -87 -33h-83v-159
q19 51 65.5 78.5t109.5 27.5q56 0 91 -40.5t35 -103.5v-360q0 -102 -45 -163t-127 -61q-33 0 -52.5 20.5t-19.5 52.5q52 0 73.5 32.5t21.5 100.5z" />
    <glyph glyph-name="afii10100" unicode="&#x453;" horiz-adv-x="439" 
d="M322 400h-113q1 -6 1 -17v-284q0 -62 13 -86q-38 -18 -102 -18q-60 0 -60 87v248q0 70 -12 136q54 14 106 14h149q67 0 85 13q21 -30 21 -61q0 -32 -88 -32zM138 535l-17 22q-11 13 -11 26q0 19 26 41q116 94 146 115q22 -25 46 -76q-111 -87 -190 -128z" />
    <glyph glyph-name="afii10101" unicode="&#x454;" horiz-adv-x="499" 
d="M330 201h-131q8 -58 35 -92t67 -34q28 0 49.5 7.5t31.5 16t20 16t17 7.5q10 0 30 -10l22 -13q-23 -45 -76.5 -75.5t-121.5 -30.5q-110 0 -175 64.5t-65 169.5q0 117 70 188.5t187 71.5q80 0 127.5 -30.5t47.5 -72.5q0 -50 -105 -50q-7 31 -26 51t-46 20q-34 0 -59 -34.5
t-31 -90.5h114q67 0 85 9q21 -30 21 -56q0 -32 -88 -32z" />
    <glyph glyph-name="afii10102" unicode="&#x455;" horiz-adv-x="442" 
d="M136 148q17 -73 68 -73q25 0 42 14t17 36q0 24 -23 42.5t-55.5 33.5t-65.5 32.5t-56 47t-23 68.5q0 60 49 99t141 39q73 0 119 -25t46 -62q0 -27 -25.5 -37.5t-79.5 -10.5q-16 53 -56 53q-21 0 -35 -14t-14 -34q0 -23 23.5 -41t56.5 -32t66.5 -30.5t57 -46.5t23.5 -70
q0 -64 -53.5 -104t-149.5 -40q-81 0 -129.5 26.5t-48.5 67.5q0 61 105 61z" />
    <glyph glyph-name="afii10103" unicode="&#x456;" horiz-adv-x="272" 
d="M61 82v248q0 75 -12 141q61 14 153 14q8 -56 8 -148v-238q0 -65 23 -83q-46 -21 -112 -21q-60 0 -60 87zM51 647q0 37 24 60t62 23q33 0 53.5 -20.5t20.5 -54.5q0 -37 -24 -60t-62 -23q-33 0 -53.5 20.5t-20.5 54.5z" />
    <glyph glyph-name="afii10104" unicode="&#x457;" horiz-adv-x="272" 
d="M61 82v248q0 75 -12 141q61 14 153 14q8 -56 8 -148v-238q0 -65 24 -83q-46 -21 -112 -21q-28 0 -44.5 18t-16.5 69zM-48 618q0 32 21 53t54 21q31 0 49.5 -18.5t18.5 -48.5q0 -33 -21 -53.5t-55 -20.5q-30 0 -48.5 19t-18.5 48zM178 618q0 32 21.5 53t55.5 21
q29 0 47.5 -18.5t18.5 -48.5q0 -33 -21 -53.5t-54 -20.5q-30 0 -49 19t-19 48z" />
    <glyph glyph-name="afii10105" unicode="&#x458;" horiz-adv-x="276" 
d="M55 647q0 37 24 60t62 23q33 0 53.5 -20.5t20.5 -54.5q0 -37 -23.5 -60t-61.5 -23q-33 0 -54 20.5t-21 54.5zM66 -26v356q0 75 -12 141q61 14 153 14q8 -56 8 -148v-345q0 -102 -45 -163t-129 -61q-32 0 -51 21t-19 52q51 0 73 32.5t22 100.5z" />
    <glyph glyph-name="afii10106" unicode="&#x459;" horiz-adv-x="828" 
d="M118 260v70q0 71 -13 136q56 14 124 14h285q8 -56 8 -143v-28h64q95 0 153.5 -40t58.5 -107q0 -72 -67 -117t-176 -45h-122q-27 0 -43.5 18t-16.5 69v243q0 47 -2 70h-116q2 -40 2 -63v-58q0 -127 -41.5 -206.5t-115.5 -79.5q-38 0 -57 21t-19 56q54 0 74 50.5t20 139.5z
M522 104q0 -21 1 -29h44q31 0 50.5 21.5t19.5 56.5q0 37 -22 60.5t-57 23.5h-36v-133z" />
    <glyph glyph-name="afii10107" unicode="&#x45a;" horiz-adv-x="821" 
d="M366 87v121h-156v-109q0 -62 13 -86q-38 -18 -102 -18q-60 0 -60 87v248q0 74 -12 141q61 14 144 14q17 -48 17 -102v-95h156v42q0 72 -8 145q54 10 149 10q8 -56 8 -148v-28h64q95 0 153.5 -40t58.5 -107q0 -72 -67 -117t-176 -45h-122q-27 0 -43.5 18t-16.5 69z
M515 104q0 -21 1 -29h44q31 0 50 21.5t19 56.5q0 37 -21.5 60.5t-56.5 23.5h-36v-133z" />
    <glyph glyph-name="afii10108" unicode="&#x45b;" horiz-adv-x="601" 
d="M390 82v241q0 40 -15.5 65.5t-38.5 25.5q-34 0 -64.5 -46t-33.5 -105v-164q0 -62 13 -86q-38 -18 -102 -18q-60 0 -60 87v463l-55 -8q-14 47 -14 88l68 3q-3 44 -12 88q63 14 144 14q18 -47 18 -101h64q66 0 86 13q20 -29 20 -60q0 -33 -87 -33h-83v-159q19 51 65.5 78.5
t109.5 27.5q56 0 91 -40.5t35 -103.5v-253q0 -65 23 -83q-46 -21 -112 -21q-60 0 -60 87z" />
    <glyph glyph-name="afii10109" unicode="&#x45c;" horiz-adv-x="550" 
d="M308 86l-98 135v-122q0 -62 13 -86q-38 -18 -102 -18q-60 0 -60 87v248q0 74 -12 141q61 14 144 14q17 -48 17 -102v-104l49 57q33 39 103 141q53 5 139 5q-40 -66 -97 -140l-61 -78l118 -160q30 -41 46.5 -58.5t35.5 -28.5q-35 -22 -104 -22q-73 0 -131 91zM199 535
l-18 22q-10 11 -10 26q0 20 25 41q113 91 146 115q27 -31 46 -76q-113 -89 -189 -128z" />
    <glyph glyph-name="uni045D" unicode="&#x45d;" horiz-adv-x="581" 
d="M370 82v210l-151 -279q-40 -18 -98 -18q-60 0 -60 87v248q0 74 -12 141q61 14 144 14q17 -48 17 -102v-203l157 295q52 10 144 10q8 -56 8 -148v-238q0 -65 23 -83q-46 -21 -112 -21q-60 0 -60 87zM174 663q19 46 47 76q39 -27 111 -86q52 -43 74 -44q-7 -67 -40 -67
q-15 0 -33 12q-21 12 -79.5 58t-79.5 51z" />
    <glyph glyph-name="afii10110" unicode="&#x45e;" horiz-adv-x="561" 
d="M233 -25l9 24q-32 14 -56 83l-96 248q-27 71 -66 141q61 14 147 14q37 -61 52 -103l75 -230l66 178q23 63 38 147q45 5 132 5q-13 -54 -45 -145l-125 -344q-40 -112 -97.5 -168.5t-126.5 -56.5q-33 0 -53 22t-20 60q121 0 166 125zM297 621q21 0 38 8t25.5 17.5t17 17.5
t14.5 8q4 0 26 -10l22 -13q-19 -46 -64.5 -77.5t-101.5 -31.5q-69 0 -111.5 26.5t-42.5 61.5q0 48 91 48q8 -24 30.5 -39.5t55.5 -15.5z" />
    <glyph glyph-name="afii10193" unicode="&#x45f;" horiz-adv-x="576" 
d="M227 -68v68h-6q-78 0 -146 -12q-14 44 -14 88v254q0 74 -12 141q61 14 144 14q17 -48 17 -102v-303h156v250q0 72 -8 145q52 10 149 10q8 -56 8 -148v-237q0 -67 22 -84q-45 -16 -111 -16h-69v-51q0 -65 23 -83q-41 -21 -100 -21q-53 0 -53 87z" />
    <glyph glyph-name="afii10050" unicode="&#x490;" horiz-adv-x="531" 
d="M417 616h-201q1 -24 1 -72v-445q0 -66 13 -83q-42 -21 -108 -21q-27 0 -43 18t-16 69v468q0 76 -12 142q56 8 148 8h184v58q0 37 -4.5 55t-18.5 28q38 21 94 21q50 0 50 -87v-125q0 -34 -87 -34z" />
    <glyph glyph-name="afii10098" unicode="&#x491;" horiz-adv-x="422" 
d="M316 400h-107q1 -6 1 -17v-284q0 -62 13 -86q-38 -18 -102 -18q-60 0 -60 87v248q0 70 -12 136q54 14 106 14h126v33q0 67 -22 84q38 21 93 21q51 0 51 -87v-99q0 -32 -87 -32z" />
    <glyph glyph-name="uni04D8" unicode="&#x4d8;" horiz-adv-x="690" 
d="M42 390q59 7 130 7h314q-11 102 -57.5 162.5t-116.5 60.5q-45 0 -79 -13t-50 -28t-32.5 -28t-30.5 -13q-11 0 -29 11l-23 14q27 63 99.5 103.5t165.5 40.5q149 0 235.5 -93t86.5 -246q0 -168 -90 -271.5t-242 -103.5q-119 0 -203 90.5t-84 221.5q0 55 6 85zM342 80
q58 0 99 64t47 169h-287q2 -99 41.5 -166t99.5 -67z" />
    <glyph glyph-name="afii10846" unicode="&#x4d9;" horiz-adv-x="525" 
d="M82 352l-24 16q19 58 72 88.5t125 30.5q107 0 172 -65t65 -174q0 -113 -69 -184t-181 -71q-99 0 -152.5 57.5t-53.5 157.5q2 44 15 69h280q-7 59 -33.5 93.5t-67.5 34.5q-22 0 -40.5 -10t-28.5 -21.5t-22.5 -21.5t-22.5 -10q-17 0 -34 10zM254 75q32 0 53 34.5t26 92.5
h-149q7 -127 70 -127z" />
    <glyph glyph-name="Wgrave" unicode="&#x1e80;" horiz-adv-x="1081" 
d="M667 82l-109 389l-121 -372q-18 -58 -18 -86q-35 -18 -101 -18q-27 0 -46.5 18t-38.5 69l-149 468q-18 56 -62 141q68 14 164 14q34 -54 48 -103l121 -418l110 366q25 83 33 147q58 5 124 5q35 -54 48 -100l120 -416l111 367q24 82 34 147q57 5 124 5q-6 -55 -22 -100
l-165 -506q-17 -50 -19 -86q-35 -18 -100 -18q-29 0 -50.5 18t-35.5 69zM426 863q23 49 47 76q40 -28 108 -86q52 -43 73 -44q-7 -67 -40 -67q-14 0 -32 12q-20 12 -77.5 58t-78.5 51z" />
    <glyph glyph-name="wgrave" unicode="&#x1e81;" horiz-adv-x="839" 
d="M178 82l-88 248q-22 63 -64 141q58 14 146 14q32 -50 49 -102l67 -222l51 169q25 83 33 147q55 5 116 5q34 -53 49 -100l66 -222l52 170q28 97 35 147q55 5 115 5q-4 -47 -22 -99l-103 -284q-19 -50 -19 -86q-32 -18 -91 -18q-26 0 -44.5 18t-33.5 69l-60 208l-68 -191
q-17 -48 -17 -86q-32 -18 -91 -18q-25 0 -42.5 18t-35.5 69zM305 663q23 49 47 76q40 -28 108 -86q52 -43 73 -44q-7 -67 -40 -67q-14 0 -32 12q-20 12 -77.5 58t-78.5 51z" />
    <glyph glyph-name="Wacute" unicode="&#x1e82;" horiz-adv-x="1081" 
d="M667 82l-109 389l-121 -372q-18 -58 -18 -86q-35 -18 -101 -18q-27 0 -46.5 18t-38.5 69l-149 468q-18 56 -62 141q68 14 164 14q34 -54 48 -103l121 -418l110 366q25 83 33 147q58 5 124 5q35 -54 48 -100l120 -416l111 367q24 82 34 147q57 5 124 5q-6 -55 -22 -100
l-165 -506q-17 -50 -19 -86q-35 -18 -100 -18q-29 0 -50.5 18t-35.5 69zM461 735l-18 22q-10 13 -10 26q0 19 25 41q106 88 143 115q27 -31 46 -76q-111 -89 -186 -128z" />
    <glyph glyph-name="wacute" unicode="&#x1e83;" horiz-adv-x="839" 
d="M178 82l-88 248q-22 63 -64 141q58 14 146 14q32 -50 49 -102l67 -222l51 169q25 83 33 147q55 5 116 5q34 -53 49 -100l66 -222l52 170q28 97 35 147q55 5 115 5q-4 -47 -22 -99l-103 -284q-19 -50 -19 -86q-32 -18 -91 -18q-26 0 -44.5 18t-33.5 69l-60 208l-68 -191
q-17 -48 -17 -86q-32 -18 -91 -18q-25 0 -42.5 18t-35.5 69zM340 535l-18 22q-10 13 -10 26q0 19 25 41q105 88 143 115q27 -31 46 -76q-111 -89 -186 -128z" />
    <glyph glyph-name="Wdieresis" unicode="&#x1e84;" horiz-adv-x="1081" 
d="M667 82l-109 389l-121 -372q-18 -58 -18 -86q-35 -18 -101 -18q-27 0 -46.5 18t-38.5 69l-149 468q-18 56 -62 141q68 14 164 14q34 -54 48 -103l121 -418l110 366q25 83 33 147q58 5 124 5q35 -54 48 -100l120 -416l111 367q24 82 34 147q57 5 124 5q-6 -55 -22 -100
l-165 -506q-17 -50 -19 -86q-35 -18 -100 -18q-29 0 -50.5 18t-35.5 69zM359 818q0 32 21 53t54 21q30 0 48.5 -18.5t18.5 -48.5q0 -33 -21 -53.5t-54 -20.5q-30 0 -48.5 19t-18.5 48zM580 818q0 32 21 53t55 21q29 0 47.5 -18.5t18.5 -48.5q0 -33 -21 -53.5t-54 -20.5
q-30 0 -48.5 19t-18.5 48z" />
    <glyph glyph-name="wdieresis" unicode="&#x1e85;" horiz-adv-x="839" 
d="M178 82l-88 248q-22 63 -64 141q58 14 146 14q32 -50 49 -102l67 -222l51 169q25 83 33 147q55 5 116 5q34 -53 49 -100l66 -222l52 170q28 97 35 147q55 5 115 5q-4 -47 -22 -99l-103 -284q-19 -50 -19 -86q-32 -18 -91 -18q-26 0 -44.5 18t-33.5 69l-60 208l-68 -191
q-17 -48 -17 -86q-32 -18 -91 -18q-25 0 -42.5 18t-35.5 69zM237 618q0 32 21 53t54 21q30 0 48.5 -18.5t18.5 -48.5q0 -33 -21 -53.5t-54 -20.5q-30 0 -48.5 19t-18.5 48zM458 618q0 32 21 53t55 21q29 0 47.5 -18.5t18.5 -48.5q0 -33 -21 -53.5t-54 -20.5q-30 0 -48.5 19
t-18.5 48z" />
    <glyph glyph-name="Ygrave" unicode="&#x1ef2;" horiz-adv-x="702" 
d="M270 82v219l-153 249q-43 69 -100 141q61 14 172 14q39 -50 100 -148l78 -125l74 121q53 87 78 147q46 5 143 5q-19 -53 -48 -100l-190 -307v-199q0 -37 4.5 -55t18.5 -28q-46 -21 -115 -21q-62 0 -62 87zM237 863q23 49 47 76q40 -28 108 -86q52 -43 73 -44
q-7 -67 -40 -67q-14 0 -32 12q-20 12 -77.5 58t-78.5 51z" />
    <glyph glyph-name="ygrave" unicode="&#x1ef3;" horiz-adv-x="561" 
d="M233 -25l9 24q-32 14 -56 83l-96 248q-27 71 -66 141q61 14 147 14q37 -61 52 -103l75 -230l66 178q23 63 38 147q45 5 132 5q-13 -54 -45 -145l-125 -344q-40 -112 -97.5 -168.5t-126.5 -56.5q-33 0 -53 22t-20 60q121 0 166 125zM166 663q23 49 47 76q40 -28 108 -86
q52 -43 73 -44q-7 -67 -40 -67q-14 0 -32 12q-20 12 -77.5 58t-78.5 51z" />
    <glyph glyph-name="figuredash" unicode="&#x2012;" horiz-adv-x="483" 
d="M358 283h-165q-77 0 -141 -13q-14 40 -14 88q56 4 148 4h155q65 0 84 14q20 -30 20 -61q0 -32 -87 -32z" />
    <glyph glyph-name="endash" unicode="&#x2013;" horiz-adv-x="557" 
d="M432 233h-239q-76 0 -141 -12q-14 40 -14 88q56 4 148 4h229q64 0 84 13q20 -31 20 -61q0 -32 -87 -32z" />
    <glyph glyph-name="emdash" unicode="&#x2014;" horiz-adv-x="800" 
d="M670 233h-472q-75 0 -141 -12q-14 47 -14 88q56 4 148 4h462q65 0 83 13q21 -30 21 -61q0 -32 -87 -32z" />
    <glyph glyph-name="quoteleft" unicode="&#x2018;" horiz-adv-x="257" 
d="M172 705l21 -16q22 -18 22 -32q0 -11 -10 -22.5t-20 -36t-10 -66.5q0 -16 7 -46t8 -45q-38 -13 -92 -13q-20 0 -33 13t-13 33q0 171 120 231z" />
    <glyph glyph-name="quoteright" unicode="&#x2019;" horiz-adv-x="257" 
d="M87 428l-20 16q-22 18 -22 32q0 11 10 22.5t20 35.5t10 66q0 16 -7 46.5t-8 45.5q38 13 92 13q20 0 33 -13t13 -34q0 -172 -121 -230z" />
    <glyph glyph-name="quotesinglbase" unicode="&#x201a;" horiz-adv-x="257" 
d="M87 -140l-20 16q-22 18 -22 32q0 11 10 22.5t20 36t10 66.5q0 16 -7 46t-8 45q38 13 92 13q20 0 33 -13t13 -33q0 -171 -121 -231z" />
    <glyph glyph-name="quotedblleft" unicode="&#x201c;" horiz-adv-x="451" 
d="M172 705l21 -16q22 -18 22 -32q0 -11 -10 -22.5t-20 -36t-10 -66.5q0 -16 7 -46t8 -45q-38 -13 -92 -13q-20 0 -33 13t-13 33q0 171 120 231zM367 705l20 -16q22 -16 22 -32q0 -11 -10 -22.5t-20 -36t-10 -66.5q0 -16 7 -46t8 -45q-38 -13 -91 -13q-21 0 -33.5 13
t-12.5 33q0 172 120 231z" />
    <glyph glyph-name="quotedblright" unicode="&#x201d;" horiz-adv-x="460" 
d="M87 428l-20 16q-22 18 -22 32q0 11 10 22.5t20 35.5t10 66q0 16 -7 46.5t-8 45.5q38 13 92 13q20 0 33 -13t13 -34q0 -172 -121 -230zM291 428l-20 16q-22 16 -22 32q0 11 10 22.5t20 35.5t10 66q0 16 -7.5 46t-7.5 46q38 13 91 13q20 0 33 -13t13 -34q0 -173 -120 -230z
" />
    <glyph glyph-name="quotedblbase" unicode="&#x201e;" horiz-adv-x="448" 
d="M87 -140l-20 16q-22 18 -22 32q0 11 10 22.5t20 36t10 66.5q0 16 -7 46t-8 45q38 13 92 13q20 0 33 -13t13 -33q0 -171 -121 -231zM282 -140l-21 16q-21 17 -21 32q0 11 10 22.5t19.5 36t9.5 66.5q0 16 -7 46t-8 45q38 13 92 13q20 0 33 -13t13 -33q0 -171 -120 -231z
" />
    <glyph glyph-name="dagger" unicode="&#x2020;" horiz-adv-x="275" 
d="M267 420h-62v-512q-37 -15 -82 -15q-53 0 -53 87v440q-66 0 -135 -12q-14 40 -14 88q56 4 148 4h1v52q0 77 -8 141q56 14 136 14q7 -59 7 -148v-59h45q64 0 84 13q20 -29 20 -61t-87 -32z" />
    <glyph glyph-name="daggerdbl" unicode="&#x2021;" horiz-adv-x="275" 
d="M267 100h-62v-192q-37 -15 -82 -15q-53 0 -53 87v120q-66 0 -135 -12q-14 38 -14 88q56 4 148 4h1v240q-66 0 -135 -12q-14 40 -14 88q56 4 148 4h1v52q0 77 -8 141q56 14 136 14q7 -59 7 -148v-59h45q64 0 84 13q20 -29 20 -61t-87 -32h-62v-240h45q64 0 84 13
q20 -29 20 -61t-87 -32z" />
    <glyph glyph-name="bullet" unicode="&#x2022;" horiz-adv-x="288" 
d="M45 297q0 46 29.5 75t76.5 29q41 0 66.5 -26t25.5 -67q0 -46 -29.5 -75t-76.5 -29q-41 0 -66.5 26t-25.5 67z" />
    <glyph glyph-name="ellipsis" unicode="&#x2026;" horiz-adv-x="704" 
d="M48 69q0 37 24 60.5t62 23.5q33 0 54 -21t21 -55q0 -37 -24 -60.5t-62 -23.5q-34 0 -54.5 21t-20.5 55zM272 69q0 37 24 60.5t61 23.5q34 0 54.5 -21t20.5 -55q0 -37 -24 -60.5t-62 -23.5q-33 0 -53.5 21t-20.5 55zM495 69q0 37 24 60.5t62 23.5q33 0 54 -21t21 -55
q0 -37 -24 -60.5t-62 -23.5q-33 0 -54 21t-21 55z" />
    <glyph glyph-name="perthousand" unicode="&#x2030;" horiz-adv-x="1009" 
d="M89 82l450 611q48 12 125 12l-502 -700q-28 -10 -81 -10q-26 0 -26 19q0 22 34 68zM31 544q0 73 44 118t114 45q63 0 101 -40.5t38 -106.5q0 -73 -44 -118t-115 -45q-61 0 -99.5 41t-38.5 106zM130 554q0 -35 15 -57.5t38 -22.5q20 0 33 21t13 54q0 36 -15 57.5t-38 21.5
q-21 0 -33.5 -20.5t-12.5 -53.5zM351 140q0 73 44 118t114 45q63 0 101 -40.5t38 -106.5q0 -73 -44 -118t-115 -45q-61 0 -99.5 41t-38.5 106zM450 150q0 -35 15 -57.5t38 -22.5q20 0 33 21t13 54q0 36 -15 57.5t-38 21.5q-21 0 -33.5 -20.5t-12.5 -53.5zM681 140
q0 73 43.5 118t113.5 45q63 0 101 -40.5t38 -106.5q0 -73 -43.5 -118t-114.5 -45q-62 0 -100 40.5t-38 106.5zM780 150q0 -35 14.5 -57.5t38.5 -22.5q20 0 32.5 21t12.5 54q0 36 -14.5 57.5t-38.5 21.5q-21 0 -33 -20.5t-12 -53.5z" />
    <glyph glyph-name="guilsinglleft" unicode="&#x2039;" horiz-adv-x="299" 
d="M265 121l-24 -21q-16 -11 -31 -11q-22 0 -47 29q-73 82 -135 162q69 88 135 162q25 29 47 29q17 0 31 -11l24 -21q-10 -19 -25.5 -42t-27.5 -38.5t-33 -42t-29 -36.5q8 -10 29 -36.5t33 -42t27.5 -38.5t25.5 -42z" />
    <glyph glyph-name="guilsinglright" unicode="&#x203a;" horiz-adv-x="299" 
d="M58 100l-24 21q10 19 25.5 42t27.5 38.5t33 42t29 36.5q-8 10 -29 36.5t-33 42t-27.5 38.5t-25.5 42l24 21q16 11 31 11q22 0 47 -29q73 -82 135 -162q-69 -88 -135 -162q-25 -29 -47 -29q-15 0 -31 11z" />
    <glyph glyph-name="fraction" unicode="&#x2044;" horiz-adv-x="659" 
d="M59 82l450 611q48 12 125 12l-502 -700q-28 -10 -81 -10q-26 0 -26 19q0 22 34 68z" />
    <glyph glyph-name="Euro" unicode="&#x20ac;" horiz-adv-x="761" 
d="M499 383h-194v-26q0 -30 3 -57h174q66 0 84 11q20 -21 20 -55q0 -29 -87 -29h-176q21 -69 64.5 -108t101.5 -39q56 0 93.5 15.5t58.5 31t36 15.5t30 -10l24 -14q-31 -53 -102 -89t-160 -36q-123 0 -206.5 62.5t-111.5 170.5q-39 0 -94 -6q-15 34 -15 73q41 4 98 6
q-1 11 -1 32q0 19 2 51q-31 -1 -84 -6q-15 34 -15 73q42 5 112 7q31 116 118.5 183.5t214.5 67.5q107 0 173 -39t66 -89q0 -62 -124 -62q-12 46 -43.5 74.5t-79.5 28.5q-58 0 -101.5 -44t-61.5 -120h166q66 0 84 11q20 -20 20 -55q0 -29 -87 -29z" />
    <glyph glyph-name="uni20B4" unicode="&#x20b4;" horiz-adv-x="572" 
d="M440 260h-193q-34 -39 -34 -75q0 -46 30.5 -75.5t82.5 -29.5q33 0 59.5 13t39 28t25.5 28t23 13q12 0 30 -11l24 -14q-28 -65 -89.5 -104.5t-153.5 -39.5q-99 0 -165 51t-66 126q0 44 32 87q-30 -2 -45 -4q-10 28 -10 63q51 4 122 6q16 12 45 33t37 27h-40q-78 0 -145 -7
q-9 25 -9 63q52 5 148 5h124q41 38 41 73q0 45 -29 74.5t-79 29.5q-31 0 -56 -13t-36.5 -28t-24 -28t-21.5 -13q-12 0 -30 11l-24 14q27 65 87 104.5t148 39.5q97 0 160.5 -50.5t63.5 -125.5q0 -43 -40 -88q29 1 48 8q16 -16 16 -44q0 -25 -87 -25h-47q-15 -12 -44 -32
t-40 -28h105q67 0 88 7q16 -16 16 -44q0 -25 -87 -25z" />
    <glyph glyph-name="afii61352" unicode="&#x2116;" horiz-adv-x="1019" 
d="M63 82v468q0 74 -12 141q49 14 132 14v-2l315 -428v275q0 77 -8 141q47 14 126 14q7 -59 7 -148v-458q0 -65 23 -83q-42 -21 -98 -21q-27 0 -40 24l-318 433v-353q0 -65 14 -83q-39 -21 -92 -21q-23 0 -36 18t-13 69zM679 542q0 72 45.5 117t117.5 45q65 0 104.5 -40
t39.5 -106q0 -72 -45.5 -117t-118.5 -45q-64 0 -103.5 40t-39.5 106zM780 553q0 -47 15.5 -76.5t39.5 -29.5q22 0 35.5 27.5t13.5 72.5q0 47 -15.5 76.5t-39.5 29.5q-22 0 -35.5 -27.5t-13.5 -72.5z" />
    <glyph glyph-name="trademark" unicode="&#x2122;" horiz-adv-x="711" 
d="M602 440l-21 142l-51 -137q-9 -26 -9 -38q-17 -9 -50 -9q-26 0 -44 42l-49 135l-19 -130q-2 -14 -2 -17q0 -14 8 -20q-21 -10 -51 -10q-21 0 -21 27l31 211q3 27 3 59q28 8 82 8q18 -25 23 -41l57 -177l53 153q7 20 16 63q34 2 81 2q7 -32 13 -66l29 -192q4 -29 17 -37
q-20 -10 -58 -10q-32 0 -38 42zM244 658h-56v-213q0 -29 12 -37q-21 -10 -58 -10q-31 0 -31 42v196q0 15 -1 22h-29q-39 0 -64 -4q-6 20 -6 43q28 3 68 3h159q30 0 38 7q11 -14 11 -32q0 -17 -43 -17z" />
    <glyph glyph-name="minus" unicode="&#x2212;" horiz-adv-x="533" 
d="M408 283h-215q-77 0 -141 -13q-14 40 -14 88q56 4 148 4h205q65 0 84 14q20 -30 20 -61q0 -32 -87 -32z" />
    <glyph glyph-name="commaaccent" unicode="&#xf6c3;" horiz-adv-x="234" 
d="M79 -291l-17 13q-17 15 -17 25q0 8 5 16t11.5 15t11.5 25.5t5 45.5q0 13 -6 37.5t-7 36.5q29 11 75 11q16 0 26.5 -10t10.5 -27q0 -143 -98 -188z" />
    <glyph glyph-name="dollaroldstyle" unicode="&#xf724;" horiz-adv-x="430" 
d="M162 -42v37q-62 7 -97.5 32t-35.5 60q0 61 105 61q15 -73 64 -73q23 0 39 14t16 36q0 24 -22 42.5t-53.5 33.5t-63 32.5t-53.5 47t-22 68.5q0 48 31.5 83.5t91.5 48.5q-2 53 -8 110q47 14 114 14q4 -51 6 -122q51 -8 81 -31t30 -52q0 -27 -25.5 -37.5t-79.5 -10.5
q-14 53 -52 53q-19 0 -32 -14t-13 -34q0 -23 22.5 -41t54.5 -32t64 -30.5t54.5 -46.5t22.5 -70q0 -51 -32.5 -87.5t-94.5 -49.5v-25q0 -65 18 -84q-37 -20 -87 -20q-43 0 -43 87z" />
    <glyph glyph-name="zerooldstyle" unicode="&#xf730;" horiz-adv-x="587" 
d="M36 231q0 114 74 185t194 71q111 0 179 -65.5t68 -172.5q0 -114 -75 -185t-195 -71q-110 0 -177.5 66t-67.5 172zM197 242q0 -72 27 -117t71 -45q43 0 68.5 43.5t25.5 114.5q0 72 -27.5 117t-70.5 45t-68.5 -43.5t-25.5 -114.5z" />
    <glyph glyph-name="oneoldstyle" unicode="&#xf731;" horiz-adv-x="387" 
d="M41 281l-17 20q-7 10 -7 20q0 23 26 49q42 41 124 101q61 14 149 14q8 -56 8 -148v-238q0 -66 13 -83q-42 -21 -100 -21q-28 0 -43 17.5t-15 69.5v280q-69 -48 -138 -81z" />
    <glyph glyph-name="twooldstyle" unicode="&#xf732;" horiz-adv-x="457" 
d="M420 352q0 -42 -32 -83t-71.5 -68t-76.5 -59.5t-45 -57.5h133q65 0 83 14q21 -25 21 -61q0 -18 -17.5 -27.5t-69.5 -9.5h-152q-78 0 -141 -8q-14 38 -14 85q0 31 35.5 66t77.5 61t77.5 59.5t35.5 62.5q0 26 -21 50t-60 24q-23 0 -40.5 -9.5t-26 -21.5t-17 -21.5
t-16.5 -9.5q-14 0 -29 10l-23 14q48 125 194 125q83 0 139 -38t56 -97z" />
    <glyph glyph-name="threeoldstyle" unicode="&#xf733;" horiz-adv-x="535" 
d="M233 -115q46 0 73.5 30.5t27.5 81.5q0 50 -25 82.5t-65 32.5h-16q-28 0 -56 -4q-8 36 -8 83q24 6 60 6h17q29 0 47 27.5t18 70.5q0 48 -23.5 76.5t-64.5 28.5q-27 0 -48 -13t-31.5 -28t-21.5 -28t-19 -13q-13 0 -31 11l-25 14q22 63 81 103.5t143 40.5q91 0 148.5 -47.5
t57.5 -126.5q0 -50 -24 -90t-67 -63q55 -19 86.5 -63t31.5 -103q0 -89 -66.5 -142.5t-178.5 -53.5q-95 0 -154 37t-59 86q0 57 87 57q10 -41 36.5 -67t68.5 -26z" />
    <glyph glyph-name="fouroldstyle" unicode="&#xf734;" horiz-adv-x="549" 
d="M291 -113v113h-114q-77 0 -140 -8q-15 41 -15 85l257 394q61 14 158 14q8 -56 8 -148v-253q43 1 61 14q20 -24 20 -64q0 -33 -81 -34v-96q0 -37 4.5 -55t18.5 -28q-46 -21 -115 -21q-62 0 -62 87zM291 84v250l-153 -250h153z" />
    <glyph glyph-name="fiveoldstyle" unicode="&#xf735;" horiz-adv-x="529" 
d="M356 396h-142l-15 -165h96q89 0 144 -57.5t55 -150.5q0 -102 -67 -163.5t-181 -61.5q-92 0 -151 37t-59 86q0 57 86 57q10 -41 37 -67t67 -26q47 0 74.5 34.5t27.5 95.5q0 57 -24 94.5t-62 37.5h-42q-61 0 -113 -6q-14 42 -14 86l22 249q56 4 149 4h95q65 0 83 23
q21 -38 21 -71q0 -18 -17.5 -27t-69.5 -9z" />
    <glyph glyph-name="sixoldstyle" unicode="&#xf736;" horiz-adv-x="552" 
d="M431 609q-113 0 -167.5 -48.5t-67.5 -153.5q55 39 125 39q87 0 141 -58.5t54 -152.5q0 -107 -69 -174.5t-174 -67.5q-111 0 -174 81t-63 230q0 175 85.5 276.5t218.5 101.5q52 0 71.5 -18.5t19.5 -54.5zM266 365q-55 0 -73 -88q4 -97 27.5 -149.5t60.5 -52.5q32 0 53 39
t21 99q0 68 -25 110t-64 42z" />
    <glyph glyph-name="sevenoldstyle" unicode="&#xf737;" horiz-adv-x="523" 
d="M141 -113l143 362q33 80 51 147h-213q-65 0 -84 -14q-20 24 -20 61q0 18 17 27.5t70 9.5h226q78 0 141 8q14 -38 14 -85q-12 -50 -50 -148l-140 -351q-23 -60 -23 -83q-38 -21 -103 -21q-22 0 -32.5 7.5t-10.5 28.5q0 17 14 51z" />
    <glyph glyph-name="eightoldstyle" unicode="&#xf738;" horiz-adv-x="550" 
d="M35 176q0 112 99 172q-84 56 -84 148q0 83 60 134.5t167 51.5q102 0 161 -48t59 -126q0 -100 -91 -159q106 -58 106 -161q0 -89 -66.5 -142t-179.5 -53q-110 0 -170.5 50.5t-60.5 132.5zM360 169q0 42 -31.5 69t-93.5 56q-62 -33 -62 -108q0 -47 26 -76.5t68 -29.5
q38 0 65.5 24.5t27.5 64.5zM196 507q0 -37 26.5 -61t76.5 -47q60 31 60 99q0 43 -24 70t-58 27t-57.5 -26.5t-23.5 -61.5z" />
    <glyph glyph-name="nineoldstyle" unicode="&#xf739;" horiz-adv-x="550" 
d="M150 -67q7 -21 36.5 -37t65.5 -16q49 0 75 44.5t30 163.5q-54 -40 -127 -40q-87 0 -141 56.5t-54 147.5q0 104 69 169t174 65q112 0 174 -81t62 -241q0 -176 -75 -271t-206 -95q-72 0 -121.5 27t-49.5 62q0 46 88 46zM283 130q55 0 73 81q-13 193 -85 193
q-32 0 -53 -36.5t-21 -94.5q0 -64 24.5 -103.5t61.5 -39.5z" />
    <glyph glyph-name="T_h" horiz-adv-x="1135" 
d="M558 616h-156q0 -9 0.5 -29t0.5 -30v-458q0 -37 4.5 -55t18.5 -28q-46 -21 -115 -21q-62 0 -62 87v468q0 45 -2 66h-71q-77 0 -141 -8q-14 44 -14 84q56 8 148 8h372q65 0 84 14v2q61 14 144 14q17 -53 17 -102v-238q19 50 64 78t105 28q54 0 88 -40.5t34 -103.5v-253
q0 -37 4.5 -55t18.5 -28q-46 -21 -112 -21q-60 0 -60 87v241q0 40 -14 65.5t-36 25.5q-32 0 -61.5 -48t-30.5 -109v-158q0 -64 13 -86q-38 -18 -102 -18q-60 0 -60 87v493q0 37 -1 55q-17 -14 -78 -14z" />
    <glyph glyph-name="T_h.caron" horiz-adv-x="1135" 
d="M558 616h-156q0 -9 0.5 -29t0.5 -30v-458q0 -37 4.5 -55t18.5 -28q-46 -21 -115 -21q-62 0 -62 87v468q0 45 -2 66h-71q-77 0 -141 -8q-14 44 -14 84q56 8 148 8h372q65 0 84 14v2q61 14 144 14q17 -53 17 -102v-238q19 50 64 78t105 28q54 0 88 -40.5t34 -103.5v-253
q0 -37 4.5 -55t18.5 -28q-46 -21 -112 -21q-60 0 -60 87v241q0 40 -14 65.5t-36 25.5q-32 0 -61.5 -48t-30.5 -109v-158q0 -64 13 -86q-38 -18 -102 -18q-60 0 -60 87v493q0 37 -1 55q-17 -14 -78 -14zM154 861q10 24 53 73q80 -53 116 -83q81 62 121 83l18 -22
q10 -13 10 -26q0 -19 -25 -41q-98 -81 -125 -101q-19 12 -56 41.5t-66.5 50.5t-45.5 25z" />
    <glyph glyph-name="T_h.commaaccent" horiz-adv-x="1135" 
d="M558 616h-156q0 -9 0.5 -29t0.5 -30v-458q0 -37 4.5 -55t18.5 -28q-46 -21 -115 -21q-62 0 -62 87v468q0 45 -2 66h-71q-77 0 -141 -8q-14 44 -14 84q56 8 148 8h372q65 0 84 14v2q61 14 144 14q17 -53 17 -102v-238q19 50 64 78t105 28q54 0 88 -40.5t34 -103.5v-253
q0 -37 4.5 -55t18.5 -28q-46 -21 -112 -21q-60 0 -60 87v241q0 40 -14 65.5t-36 25.5q-32 0 -61.5 -48t-30.5 -109v-158q0 -64 13 -86q-38 -18 -102 -18q-60 0 -60 87v493q0 37 -1 55q-17 -14 -78 -14zM297 -291l-17 13q-17 15 -17 25q0 8 5 16t11.5 15t11.5 25.5t5 45.5
q0 13 -6 37.5t-7 36.5q29 11 75 11q16 0 26.5 -10t10.5 -27q0 -143 -98 -188z" />
    <glyph glyph-name="f_f_j" horiz-adv-x="930" 
d="M405 82v318h-167v-301q0 -62 13 -86q-38 -18 -102 -18q-60 0 -60 87v314l-55 -8q-14 47 -14 88l69 3v75q0 80 48.5 129t131.5 49q58 0 96 -21.5t38 -49.5q0 -63 -92 -63q-6 52 -32 52q-17 0 -29 -22t-12 -55v-93h167v31q0 99 65.5 160t176.5 61q78 0 130 -26.5t52 -60.5
q0 -67 -105 -67q-7 31 -27 51.5t-49 20.5q-40 0 -67 -34t-27 -87v-49h206q73 0 91 12q18 -60 18 -155v-345q0 -102 -44.5 -163t-127.5 -61q-32 0 -51.5 20.5t-19.5 52.5q50 0 72 32.5t22 100.5v356q0 46 -3 80q-33 -10 -75 -10h-88v-301q0 -64 13 -86q-40 -18 -102 -18
q-28 0 -44 18t-16 69z" />
    <glyph glyph-name="f_j" horiz-adv-x="606" 
d="M396 -26v356q0 49 -4 80q-33 -10 -75 -10h-79v-301q0 -62 13 -86q-38 -18 -102 -18q-60 0 -60 87v314l-55 -8q-14 47 -14 88l69 3v32q0 99 65.5 160t177.5 61q78 0 130 -26.5t52 -60.5q0 -67 -106 -67q-6 31 -26.5 51.5t-48.5 20.5q-41 0 -68 -34t-27 -87v-49h197
q74 0 91 12q18 -60 18 -155v-345q0 -102 -44.5 -163t-127.5 -61q-33 0 -52.5 20.5t-19.5 52.5q52 0 74 32.5t22 100.5z" />
    <glyph glyph-name="zero.slash" horiz-adv-x="611" 
d="M79 82l14 22q-57 89 -57 220q0 159 77.5 258.5t202.5 99.5q75 0 132 -40l17 26q48 12 124 12l-71 -111q58 -88 58 -218q0 -159 -78.5 -258.5t-204.5 -99.5q-66 0 -121 33l-13 -21q-27 -10 -80 -10q-29 0 -29 19q0 23 29 68zM192 340q0 -47 4 -80l183 277q-31 58 -77 58
q-49 0 -79.5 -70.5t-30.5 -184.5zM419 335q0 26 -4 72l-178 -279q29 -48 71 -48q50 0 80.5 70.5t30.5 184.5z" />
    <glyph glyph-name="zero.fitted" horiz-adv-x="562" 
d="M19 324q0 159 76 258.5t197 99.5q112 0 181.5 -91.5t69.5 -239.5q0 -159 -76 -258.5t-198 -99.5q-111 0 -180.5 91.5t-69.5 239.5zM185 340q0 -115 27.5 -187.5t70.5 -72.5q42 0 68 70.5t26 184.5q0 115 -27.5 187.5t-71.5 72.5q-42 0 -67.5 -70.5t-25.5 -184.5z" />
    <glyph glyph-name="one.fitted" horiz-adv-x="562" 
d="M66 471l-20 23q-8 9 -8 22q0 23 26 49q22 20 67 54t64 47q63 14 153 14q9 -54 9 -148v-452h50q67 0 87 13q21 -30 21 -61q0 -32 -88 -32h-218q-79 0 -147 -12q-15 41 -15 88q60 4 154 4h7v468q-70 -45 -142 -77z" />
    <glyph glyph-name="two.fitted" horiz-adv-x="562" 
d="M512 496q0 -52 -29.5 -101.5t-72.5 -89t-87 -76t-79 -74.5t-42 -71h205q69 0 88 14q21 -25 21 -61q0 -18 -17.5 -27.5t-70.5 -9.5h-212q-84 0 -151 -8q-15 41 -15 85q0 36 31 77t75.5 79t89 77t75.5 83t31 85q0 51 -31.5 84t-84.5 33q-32 0 -57 -13t-37 -28t-24.5 -28
t-21.5 -13q-12 0 -30 11l-23 14q27 65 85.5 104.5t145.5 39.5q103 0 170.5 -52t67.5 -134z" />
    <glyph glyph-name="three.fitted" horiz-adv-x="562" 
d="M247 80q49 0 78.5 30.5t29.5 81.5t-27 83t-70 32h-19q-28 0 -56 -4q-9 40 -9 83q26 6 62 6h19q32 0 52 28t20 70q0 48 -25 76.5t-70 28.5q-29 0 -51.5 -13t-33.5 -28t-22.5 -28t-20.5 -13q-13 0 -31 11l-25 14q24 64 85 104t147 40q94 0 153 -47.5t59 -126.5
q0 -50 -25 -89.5t-69 -63.5q57 -19 90 -63t33 -103q0 -89 -69 -142.5t-184 -53.5q-99 0 -160 37t-61 86q0 57 87 57q10 -41 39.5 -67t73.5 -26z" />
    <glyph glyph-name="four.fitted" horiz-adv-x="562" 
d="M303 82v49h-125q-75 0 -137 -8q-14 44 -14 85l264 458q61 14 158 14q8 -56 8 -148v-316q43 1 57 13q21 -25 21 -64q0 -33 -78 -34v-32q0 -66 22 -83q-45 -21 -114 -21q-62 0 -62 87zM151 216h152v279z" />
    <glyph glyph-name="five.fitted" horiz-adv-x="562" 
d="M377 591h-153l-15 -165h104q92 0 149 -57t57 -151q0 -102 -69.5 -163.5t-187.5 -61.5q-96 0 -157.5 37t-61.5 86q0 57 87 57q11 -41 40.5 -67t71.5 -26q52 0 81.5 34.5t29.5 95.5q0 57 -26 94.5t-67 37.5h-44q-65 0 -119 -6q-14 42 -14 86l23 249q59 4 154 4h99
q67 0 86 23q20 -36 20 -71q0 -18 -17.5 -27t-70.5 -9z" />
    <glyph glyph-name="six.fitted" horiz-adv-x="562" 
d="M438 609q-114 0 -170 -49t-69 -154q56 40 127 40q89 0 143.5 -58.5t54.5 -152.5q0 -107 -70 -174.5t-176 -67.5q-112 0 -176 81t-64 230q0 175 87 276.5t221 101.5q53 0 72.5 -18.5t19.5 -54.5zM272 365q-58 0 -76 -88q4 -97 28 -149.5t62 -52.5q33 0 55 39t22 99
q0 68 -25.5 110t-65.5 42z" />
    <glyph glyph-name="seven.fitted" horiz-adv-x="562" 
d="M168 82l148 362q35 85 53 147h-224q-67 0 -86 -14q-20 24 -20 61q0 18 17.5 27.5t70.5 9.5h234q80 0 145 8q14 -44 14 -85q-18 -67 -52 -148l-144 -351q-24 -61 -24 -83q-38 -21 -103 -21q-22 0 -33 7.5t-11 28.5q0 18 15 51z" />
    <glyph glyph-name="eight.fitted" horiz-adv-x="562" 
d="M38 176q0 113 100 172q-85 57 -85 148q0 82 61 134t169 52q104 0 163.5 -48t59.5 -126q0 -100 -93 -159q108 -59 108 -161q0 -89 -67.5 -142t-181.5 -53q-112 0 -173 50.5t-61 132.5zM369 169q0 23 -9.5 41.5t-30.5 34t-39 25.5t-50 25q-64 -33 -64 -109q0 -47 27 -76.5
t70 -29.5q40 0 68 24t28 65zM199 507q0 -38 27 -62t78 -47q64 31 64 100q0 43 -24.5 70t-60.5 27t-60 -26.5t-24 -61.5z" />
    <glyph glyph-name="nine.fitted" horiz-adv-x="562" 
d="M154 128q7 -21 37 -37t67 -16q50 0 77 44.5t31 163.5q-54 -40 -130 -40q-88 0 -143 56.5t-55 147.5q0 104 70 169t176 65q113 0 176 -81t63 -241q0 -176 -76 -271t-208 -95q-73 0 -123 27t-50 62q0 46 88 46zM289 325q58 0 76 82q-13 192 -88 192q-34 0 -55.5 -36.5
t-21.5 -94.5q0 -64 25 -103.5t64 -39.5z" />
    <glyph glyph-name="zero.taboldstyle" horiz-adv-x="539" 
d="M23 231q0 113 71.5 184.5t185.5 71.5q106 0 171 -65.5t65 -172.5q0 -114 -71.5 -185t-186.5 -71q-105 0 -170 66t-65 172zM184 242q0 -72 24.5 -117t62.5 -45t60.5 43.5t22.5 114.5q0 72 -24.5 117t-62.5 45t-60.5 -43.5t-22.5 -114.5z" />
    <glyph glyph-name="one.taboldstyle" horiz-adv-x="539" 
d="M56 281l-16 20q-7 10 -7 20q0 23 25 49q37 35 127 101q63 14 150 14q7 -49 7 -148v-257h49q65 0 85 13q20 -29 20 -61t-87 -32h-200q-77 0 -143 -12q-14 38 -14 88q55 4 146 4v282q-78 -52 -142 -81z" />
    <glyph glyph-name="two.taboldstyle" horiz-adv-x="539" 
d="M477 353q0 -43 -37 -84t-82.5 -68t-88 -59.5t-50.5 -57.5h160q71 0 91 14q20 -24 20 -61q0 -18 -17.5 -27.5t-71.5 -9.5h-168q-87 0 -158 -8q-14 44 -14 85q0 31 40.5 66t89.5 61t89.5 59.5t40.5 61.5q0 26 -26 50.5t-72 24.5q-34 0 -57.5 -15.5t-36.5 -31t-22 -15.5
q-14 0 -31 10l-23 14q56 125 214 125q89 0 149.5 -38t60.5 -96z" />
    <glyph glyph-name="three.taboldstyle" horiz-adv-x="539" 
d="M236 -115q46 0 73.5 30.5t27.5 81.5q0 50 -25 82.5t-65 32.5h-18q-27 0 -55 -4q-9 40 -9 83q25 6 61 6h17q30 0 48 27.5t18 70.5q0 48 -23.5 76.5t-65.5 28.5q-27 0 -48 -13t-31.5 -28t-21.5 -28t-20 -13q-13 0 -31 11l-26 14q24 63 83.5 103.5t142.5 40.5
q91 0 148.5 -47.5t57.5 -126.5q0 -50 -24 -90t-67 -63q56 -19 88 -62.5t32 -103.5q0 -89 -67 -142.5t-179 -53.5q-96 0 -155.5 37t-59.5 86q0 57 86 57q11 -42 38.5 -67.5t69.5 -25.5z" />
    <glyph glyph-name="four.taboldstyle" horiz-adv-x="539" 
d="M288 -113v113h-120q-75 0 -134 -8q-14 38 -14 85l257 394q61 14 158 14q7 -49 7 -148v-253q40 1 57 14q20 -24 20 -64q0 -33 -77 -34v-96q0 -65 22 -83q-45 -21 -114 -21q-62 0 -62 87zM140 84h148v242z" />
    <glyph glyph-name="five.taboldstyle" horiz-adv-x="539" 
d="M363 396h-147l-15 -165h99q89 0 144.5 -57t55.5 -151q0 -102 -67 -163.5t-182 -61.5q-93 0 -153 37t-60 86q0 57 87 57q10 -41 37.5 -67t68.5 -26q48 0 76 34.5t28 95.5q0 57 -25 94.5t-64 37.5h-41q-62 0 -115 -6q-14 42 -14 86l22 249q57 4 150 4h96q66 0 85 23
q21 -38 21 -71q0 -18 -17.5 -27t-69.5 -9z" />
    <glyph glyph-name="six.taboldstyle" horiz-adv-x="539" 
d="M423 609q-111 0 -164.5 -48.5t-66.5 -153.5q53 39 123 39q86 0 139 -58.5t53 -152.5q0 -107 -68.5 -174.5t-172.5 -67.5q-109 0 -171.5 81.5t-62.5 229.5q0 175 84 276.5t215 101.5q53 0 72.5 -18.5t19.5 -54.5zM260 365q-55 0 -71 -90q4 -96 27 -148t58 -52
q31 0 51.5 39t20.5 99q0 68 -24.5 110t-61.5 42z" />
    <glyph glyph-name="seven.taboldstyle" horiz-adv-x="539" 
d="M154 -113l144 362q32 75 51 147h-215q-65 0 -84 -14q-20 24 -20 61q0 18 17 27.5t70 9.5h227q79 0 142 8q14 -38 14 -85q-13 -52 -50 -148l-141 -351q-23 -58 -23 -83q-38 -21 -103 -21q-22 0 -32.5 7.5t-10.5 28.5q0 17 14 51z" />
    <glyph glyph-name="eight.taboldstyle" horiz-adv-x="539" 
d="M33 176q0 113 97 172q-82 58 -82 148q0 83 59.5 134.5t164.5 51.5q102 0 160 -48t58 -126q0 -101 -90 -159q105 -58 105 -161q0 -89 -66 -142t-178 -53q-109 0 -168.5 50.5t-59.5 132.5zM353 169q0 43 -31 69.5t-92 55.5q-59 -33 -59 -108q0 -47 25 -76.5t66 -29.5
q38 0 64.5 24.5t26.5 64.5zM194 507q0 -37 25.5 -61t74.5 -47q58 31 58 99q0 43 -23 70t-57 27t-56 -26t-22 -62z" />
    <glyph glyph-name="nine.taboldstyle" horiz-adv-x="539" 
d="M147 -67q6 -21 35 -37t65 -16q47 0 72.5 44.5t29.5 162.5q-53 -39 -125 -39q-85 0 -138.5 56.5t-53.5 147.5q0 104 68.5 169t172.5 65q110 0 171.5 -81.5t61.5 -240.5q0 -176 -74.5 -271t-203.5 -95q-72 0 -120.5 27t-48.5 62q0 46 88 46zM277 130q53 0 71 80
q-11 194 -82 194q-32 0 -52 -36.5t-20 -94.5q0 -64 23.5 -103.5t59.5 -39.5z" />
    <glyph glyph-name="f_b" horiz-adv-x="927" 
d="M316 400h-78v-301q0 -62 13 -86q-38 -18 -102 -18q-60 0 -60 87v314l-55 -8q-14 47 -14 88l69 3v26q0 102 69.5 164.5t189.5 62.5q61 0 106 -14q51 8 119 8q8 -56 8 -147v-178q32 86 138 86q77 0 126 -61t49 -158q0 -123 -73 -199t-191 -76q-91 0 -144.5 33t-53.5 104
v466q-11 24 -35.5 39t-56.5 15q-44 0 -73 -35.5t-29 -91.5v-43h54q62 0 79 9q19 -33 19 -57q0 -32 -74 -32zM581 147q0 -43 6 -59q18 -13 51 -13q43 0 68 48.5t25 126.5q0 69 -19.5 112t-51.5 43q-30 0 -54 -38.5t-25 -98.5v-121z" />
    <glyph glyph-name="f_f_b" horiz-adv-x="1260" 
d="M423 82v318h-185v-301q0 -62 13 -86q-38 -18 -102 -18q-60 0 -60 87v314l-55 -8q-14 47 -14 88l69 3v75q0 80 50 129t135 49q59 0 98.5 -21.5t39.5 -49.5q0 -63 -96 -63q-7 52 -34 52q-19 0 -31.5 -21.5t-12.5 -55.5v-93h185v25q0 102 70 164.5t189 62.5q61 0 106 -14
q51 8 119 8q8 -56 8 -147v-178q33 86 138 86q78 0 126 -60.5t48 -158.5q0 -123 -73 -199t-190 -76q-91 0 -144.5 33t-53.5 104v465q-10 25 -35 40t-57 15q-44 0 -73 -35.5t-29 -91.5v-43h55q62 0 79 9q17 -29 17 -57q0 -32 -74 -32h-77v-301q0 -62 13 -86q-38 -18 -102 -18
q-60 0 -60 87zM915 147q0 -43 6 -59q18 -13 52 -13q43 0 67.5 48.5t24.5 126.5q0 69 -19.5 112t-51.5 43q-30 0 -54 -38.5t-25 -98.5v-121z" />
    <glyph glyph-name="f_h" horiz-adv-x="944" 
d="M316 400h-78v-301q0 -62 13 -86q-38 -18 -102 -18q-60 0 -60 87v314l-55 -8q-14 47 -14 88l69 3v26q0 102 69.5 164.5t189.5 62.5q59 0 106 -14q58 8 110 8q17 -47 17 -101v-235q19 50 66 78t109 28q56 0 91 -40.5t35 -103.5v-253q0 -65 24 -83q-46 -21 -113 -21
q-60 0 -60 87v241q0 39 -15 65t-38 26q-36 0 -67 -48t-32 -109v-158q0 -62 13 -86q-38 -18 -102 -18q-60 0 -60 87v514q-11 24 -35.5 39t-56.5 15q-44 0 -73 -35.5t-29 -91.5v-43h54q62 0 79 9q19 -33 19 -57q0 -32 -74 -32z" />
    <glyph glyph-name="f_f_h" horiz-adv-x="1278" 
d="M423 82v318h-185v-301q0 -62 13 -86q-38 -18 -102 -18q-60 0 -60 87v314l-55 -8q-14 47 -14 88l69 3v75q0 80 50 129t135 49q59 0 98.5 -21.5t39.5 -49.5q0 -63 -96 -63q-7 52 -34 52q-19 0 -31.5 -21.5t-12.5 -55.5v-93h185v25q0 102 70 164.5t189 62.5q59 0 106 -14
q58 8 110 8q17 -51 17 -101v-235q19 50 66 78t109 28q56 0 91.5 -40.5t35.5 -103.5v-253q0 -37 4.5 -55t18.5 -28q-46 -21 -112 -21q-60 0 -60 87v241q0 40 -15.5 65.5t-39.5 25.5q-35 0 -66 -48t-32 -109v-158q0 -62 13 -86q-38 -18 -102 -18q-60 0 -60 87v513
q-10 25 -35 40t-57 15q-44 0 -73 -35.5t-29 -91.5v-43h55q62 0 79 9q17 -29 17 -57q0 -32 -74 -32h-77v-301q0 -62 13 -86q-38 -18 -102 -18q-60 0 -60 87z" />
    <glyph glyph-name="f_k" horiz-adv-x="917" 
d="M316 400h-78v-301q0 -62 13 -86q-38 -18 -102 -18q-60 0 -60 87v314l-55 -8q-14 47 -14 88l69 3v26q0 102 69.5 164.5t189.5 62.5q59 0 106 -14q58 8 110 8q17 -47 17 -101v-346l49 57q33 39 103 141q53 5 139 5q-40 -66 -97 -140l-62 -78l118 -160q51 -69 83 -87
q-35 -22 -104 -22q-74 0 -131 91l-98 135v-122q0 -62 13 -86q-38 -18 -102 -18q-60 0 -60 87v514q-11 24 -35.5 39t-56.5 15q-44 0 -73 -35.5t-29 -91.5v-43h54q62 0 79 9q19 -33 19 -57q0 -32 -74 -32z" />
    </font>
</defs>
</svg>
